<svg width="1500" height="253" viewBox="0 0 1500 253" fill="none" xmlns="http://www.w3.org/2000/svg">
<mask id="mask0" mask-type="alpha" maskUnits="userSpaceOnUse" x="-123" y="-1" width="1747" height="566">
<path d="M106.232 111.445C78.167 105.378 62.2255 122.499 57.7628 131.818C54.5009 124.258 44.8901 108.471 32.5416 105.801C-9.63171 94.3331 -27.0018 132.105 -30.4152 152.424C-43.3096 148.657 -72.9214 147.936 -88.2133 175.187C-107.328 209.252 -85.4458 250.71 -45.7379 250.48C-37.031 313.477 16.699 321.763 42.4757 318.031C46.2933 332.079 61.7867 361.872 93.2192 368.667C141.491 379.103 173.28 344.841 183.141 326.405C185.53 335.736 198.728 356.219 232.405 363.499C284.287 373.54 308.965 335.487 314.818 315.206C329.242 323.221 362.156 331.316 378.419 299.573C398.748 259.895 370.949 218.627 339.054 223.484C346.943 186.993 317.02 155.549 285.921 163.517C296.73 120.311 259.185 90.1577 227.176 102.334C182.159 45.5899 112.907 80.5682 106.232 111.445Z" fill="url(#paint0_linear)"/>
<path d="M1005.79 515.076C929.492 539.496 888.848 490.744 878.063 463.316C834.628 472.93 791.078 432.35 795.95 390.471C758.851 386.129 720.128 346.054 732.33 294.706C744.533 243.358 810.278 220.959 863.002 239.105C887.269 201.093 933.582 207.79 953.705 215.89C968.383 182.825 1024.45 187.677 1041.73 208.96C1062.43 146.316 1161.25 152.688 1178.52 188.098C1194.33 181.459 1246.24 188.802 1258.82 245.648C1273.7 327.093 1206.79 351.319 1172.86 339.998C1176.16 369.084 1155.01 380.041 1134.39 372.052C1135.65 434.542 1087.5 444.154 1063.27 441.149C1060.25 460.647 1044.54 502.731 1005.79 515.076Z" fill="url(#paint1_linear)"/>
<path d="M417.706 367.874C400.814 359.535 395.337 345.03 394.71 338.82C381.918 342.036 348.746 343.632 318.398 324.292C280.462 300.117 278.868 259.502 300.556 225.957C322.245 192.412 386.096 184.789 407.211 195.213C411.725 174.975 441.647 161.835 467.166 160.476C492.684 159.118 520.195 167.935 534.824 186.731C566.938 168.545 598.587 185.873 604.807 197.794C613.416 189.449 639.155 171.18 690.103 175.228C747.842 180.041 778.877 211.907 787.177 227.238C802.116 222.359 874.399 219.92 882.258 269.074C889.032 311.448 840.961 339.574 802.716 339.074C780.674 399.678 710.626 393.688 695.841 386.733C693.54 400.235 660.897 459.008 571.814 446.005C482.732 433.001 466.485 375.281 468.721 366.849C462.28 371.839 438.82 378.299 417.706 367.874Z" fill="url(#paint2_linear)"/>
<path d="M1185.24 168.759C1172.88 180.504 1171.52 196.788 1172.38 203.463C1160.88 202.28 1132.58 206.343 1111.34 232.051C1084.8 264.186 1092.56 307.402 1118.36 339.108C1144.15 370.813 1199.65 367.804 1215.1 353.123C1223.45 373.737 1251.6 382.443 1273.4 379.455C1295.21 376.467 1316.41 362.377 1324.52 339.968C1355.65 353.628 1378.43 329.823 1381 316.141C1390.13 323.471 1415.91 338.324 1457.92 325.212C1505.49 310.114 1524.49 271.044 1528.05 253.397C1541.73 255.965 1603.17 246.013 1598.77 192.684C1594.98 146.71 1548.18 125.307 1516.07 132.465C1483.91 72.2136 1426.24 90.6886 1415.34 100.605C1410.38 86.7296 1369.7 30.2508 1297.56 59.4411C1225.43 88.6315 1224.68 152.472 1228.45 160.999C1221.91 156.84 1200.69 154.078 1185.24 168.759Z" fill="url(#paint3_linear)"/>
</mask>
<g mask="url(#mask0)">
<rect x="-101" y="9.26099" width="1758" height="370" fill="url(#paint4_radial)"/>
</g>
<defs>
<linearGradient id="paint0_linear" x1="195.449" y1="30.2947" x2="69.3328" y2="402.644" gradientUnits="userSpaceOnUse">
<stop stop-color="#0054A5"/>
<stop offset="1" stop-color="white"/>
</linearGradient>
<linearGradient id="paint1_linear" x1="1043.87" y1="507.319" x2="965.017" y2="153.496" gradientUnits="userSpaceOnUse">
<stop stop-color="#0054A5"/>
<stop offset="1" stop-color="white"/>
</linearGradient>
<linearGradient id="paint2_linear" x1="582.433" y1="447.699" x2="586.904" y2="64.3775" gradientUnits="userSpaceOnUse">
<stop stop-color="#0054A5"/>
<stop offset="1" stop-color="white"/>
</linearGradient>
<linearGradient id="paint3_linear" x1="1306.13" y1="55.8091" x2="1370.21" y2="441.079" gradientUnits="userSpaceOnUse">
<stop stop-color="#0054A5"/>
<stop offset="1" stop-color="white"/>
</linearGradient>
<radialGradient id="paint4_radial" cx="0" cy="0" r="1" gradientUnits="userSpaceOnUse" gradientTransform="translate(778.001 -2452.74) rotate(90) scale(3012 14314.2)">
<stop stop-color="#0054A5" stop-opacity="0.67"/>
<stop offset="0.645123" stop-color="#417FBC" stop-opacity="0.75355"/>
<stop offset="1" stop-color="white"/>
</radialGradient>
</defs>
</svg>
