<svg width="1500" height="441" viewBox="0 0 1500 441" fill="none" xmlns="http://www.w3.org/2000/svg">
<mask id="mask0" mask-type="alpha" maskUnits="userSpaceOnUse" x="-296" y="-1" width="1978" height="728">
<path d="M312.307 289.334C256.939 278.518 222.921 319.096 212.833 340.738C182.567 405.67 238.34 455.936 268.457 459.739L710.483 523.953C741.085 528.399 789.699 516.398 798.303 469.123C806.907 421.849 769.063 395.555 755.462 393.579C763.495 386.081 771.087 357.723 762.859 342.663C749.556 314.736 714.1 307.852 693.18 320.41C685.471 289.829 637.894 270.786 606.28 285.257C605.812 231.119 573.338 201.324 557.159 193.193C508.622 168.812 452.738 171.102 410.133 213.429C372.663 194.122 341.874 209.29 331.163 219.288C320.214 226.94 301.115 251.662 312.307 289.334Z" fill="url(#paint0_linear)"/>
<rect x="-180" y="357" width="1758" height="370" fill="url(#paint1_radial)"/>
<path d="M967.542 266.328C985.854 264.114 1000.37 274.199 1005.34 279.519C1012.28 269.116 1035.17 248.314 1071.24 248.326C1116.32 248.34 1147.01 284.592 1155.67 327.947C1164.34 371.302 1123.58 415.508 1100.69 418.276C1112.13 439.435 1099.99 468.911 1082.47 485.033C1064.95 501.154 1038.6 509.123 1014.32 500.445C1004.26 535.817 968.71 538.407 955.533 531.12C955.357 543.778 949.976 575.511 910.089 601.51C864.722 630.767 819.05 619.689 801.884 610.493C794.599 623.67 743.958 668.047 702.522 627.629C666.801 592.787 681.208 539.01 709.303 517.17C681.223 448.837 736.371 413.479 752.149 411.227C744.001 397.525 724.939 324.687 798.989 284.652C873.038 244.618 926.786 287.987 931.296 297.01C932.337 288.686 944.652 269.095 967.542 266.328Z" fill="url(#paint2_linear)"/>
<path d="M282.892 220.469C339.14 252.514 335.673 315.851 326.909 343.515C358.273 376.465 340.046 418.635 331.783 433.488C323.519 448.341 305.678 462.544 279.908 457.146C257.5 500.244 203.046 499.39 179.46 466.559C130.947 538.713 71.0192 492.625 52.9301 474.363C48.2152 483.778 33.9715 499.036 3.38829 490.067C-25.902 478.021 -34.5987 459.209 -36.6581 450.687C-50.3351 461.793 -88.843 480.733 -133.458 467.648C-178.074 454.564 -196.655 418.881 -200.368 402.675C-209.719 405.691 -239.07 401.402 -250.79 381.409C-278.918 333.424 -255.908 285.608 -240.887 267.698C-243.918 262.49 -247.278 245.524 -236.469 219.324C-213.837 174.133 -177.741 178.96 -162.522 187.023C-159.444 172.088 -148.535 137.999 -129.517 121.115C-92.4132 90.5316 -51.4013 112.351 -35.5332 127.083C4.23168 84.7594 51.5035 70.1334 102.929 81.3142C194.027 101.12 210.2 181.876 206.899 219.778C221.614 214.015 257.413 206.086 282.892 220.469Z" fill="url(#paint3_linear)"/>
<path d="M1475.61 109.169C1537.19 99.5835 1568.99 144.092 1577.19 167.544C1619.75 172.34 1628.44 210.785 1630.05 225.346C1631.67 239.907 1625.42 259.333 1602.26 269.966C1608.17 311.349 1565 340.915 1528.6 331.893C1529.88 407.262 1457.75 409.441 1433.61 407.174C1435.05 416.114 1432.19 434.258 1403.31 445.154C1373.78 453.267 1356.7 445.431 1350.44 440.84C1345.77 455.878 1325.88 489.927 1283.76 505.823C1241.63 521.719 1207.61 508.01 1195.87 499.168C1190.18 506.372 1164.82 519.734 1144.73 512.776C1096.51 496.079 1088.5 451.191 1090.52 430.834C1085.3 429.009 1073.42 419.461 1067.62 395.861C1060.74 352.947 1091.69 336.214 1108.02 333.211C1102.29 321.466 1092.27 292.506 1097.98 270.626C1110.42 229.524 1154.48 221.496 1174.95 222.62C1183.08 172.151 1212.18 136.152 1258.61 115.206C1340.86 78.1023 1397.56 123.452 1415.63 150.765C1424.03 138.746 1447.78 113.6 1475.61 109.169Z" fill="url(#paint4_linear)"/>
</mask>
<g mask="url(#mask0)">
<rect x="-117" y="56.9996" width="1684" height="724" fill="url(#paint5_radial)"/>
</g>
<defs>
<linearGradient id="paint0_linear" x1="543.445" y1="250.241" x2="363.752" y2="706.767" gradientUnits="userSpaceOnUse">
<stop stop-color="#0054A5"/>
<stop offset="1" stop-color="#FBFBFB"/>
</linearGradient>
<radialGradient id="paint1_radial" cx="0" cy="0" r="1" gradientUnits="userSpaceOnUse" gradientTransform="translate(699 -2105) rotate(90) scale(3075 14613.6)">
<stop stop-color="#0054A5" stop-opacity="0.67"/>
<stop offset="0.645123" stop-color="#417FBC" stop-opacity="0.75355"/>
<stop offset="1" stop-color="white"/>
</radialGradient>
<linearGradient id="paint2_linear" x1="790.057" y1="289.293" x2="1067.14" y2="608.221" gradientUnits="userSpaceOnUse">
<stop stop-color="#0054A5"/>
<stop offset="1" stop-color="white"/>
</linearGradient>
<linearGradient id="paint3_linear" x1="250.5" y1="152" x2="-200.733" y2="885.548" gradientUnits="userSpaceOnUse">
<stop stop-color="#0054A5"/>
<stop offset="1" stop-color="white"/>
</linearGradient>
<linearGradient id="paint4_linear" x1="1287.58" y1="129.85" x2="1597.06" y2="795.871" gradientUnits="userSpaceOnUse">
<stop stop-color="#0054A5"/>
<stop offset="1" stop-color="white"/>
</linearGradient>
<radialGradient id="paint5_radial" cx="0" cy="0" r="1" gradientUnits="userSpaceOnUse" gradientTransform="translate(725 -1385.33) rotate(90) scale(2039.99 4744.95)">
<stop stop-color="#0054A5"/>
<stop offset="0.673733" stop-color="#2C71B4"/>
<stop offset="1" stop-color="white"/>
</radialGradient>
</defs>
</svg>
