<svg width="478" height="498" viewBox="0 0 478 498" fill="none" xmlns="http://www.w3.org/2000/svg">
<path d="M130.398 161.442C129.271 161.417 87.0942 180.17 83.9303 227.769C81.027 271.527 110.72 313.544 114.672 310.847C119.506 307.542 111.76 280.147 121.497 249.065C124.953 238.041 139.526 228.432 139.526 228.432L130.398 161.442Z" fill="#2D87DB"/>
<path opacity="0.1" d="M139.531 228.409C135.29 231.333 131.404 234.742 127.952 238.567C121.916 224.56 110.663 198.426 103.383 181.482C115.857 167.47 129.796 161.402 130.408 161.382L139.531 228.409Z" fill="black"/>
<path d="M237.048 163.03C238.175 163.041 279.78 183.041 281.512 230.714C283.115 274.544 252.182 315.652 248.313 312.84C243.58 309.393 252.146 282.234 243.333 250.879C240.204 239.765 225.929 229.711 225.929 229.711L237.048 163.03Z" fill="#2D87DB"/>
<path opacity="0.1" d="M263.621 184.101L237.418 240.493C234.02 236.464 230.154 232.855 225.902 229.742L237.022 163.061C237.691 163.038 251.596 169.538 263.621 184.101Z" fill="black"/>
<path d="M213.853 272.226L150.621 271.283C150.621 271.283 121.618 217.555 126.018 154.141C128.242 122.468 136.952 90.7046 147.336 64.4045C161.577 28.1208 178.925 2.51309 186.253 2.60389C193.581 2.69468 210.139 28.8827 223.349 65.5395C232.87 92.0932 240.655 124.145 241.941 155.87C244.475 219.424 213.853 272.226 213.853 272.226Z" fill="#C7C7C7"/>
<path d="M221.948 147.362C221.844 154.576 219.603 161.597 215.508 167.537C211.412 173.477 205.647 178.069 198.942 180.732C192.237 183.394 184.892 184.008 177.837 182.496C170.783 180.984 164.336 177.413 159.311 172.235C154.287 167.058 150.911 160.506 149.61 153.409C148.31 146.313 149.144 138.99 152.007 132.367C154.869 125.745 159.632 120.12 165.692 116.205C171.752 112.29 178.837 110.26 186.051 110.372C195.714 110.526 204.921 114.507 211.651 121.442C218.381 128.377 222.084 137.699 221.948 147.362Z" fill="#A6A6A6"/>
<path d="M220.709 143.63C220.601 150.842 218.357 157.861 214.261 163.797C210.165 169.734 204.4 174.323 197.695 176.983C190.991 179.644 183.648 180.256 176.596 178.743C169.543 177.231 163.097 173.661 158.074 168.485C153.05 163.309 149.675 156.759 148.373 149.665C147.072 142.57 147.904 135.249 150.763 128.627C153.623 122.005 158.382 116.38 164.438 112.463C170.495 108.546 177.577 106.512 184.789 106.62C194.46 106.768 203.676 110.749 210.411 117.689C217.147 124.629 220.851 133.96 220.709 143.63Z" fill="#2D87DB"/>
<path d="M209.529 143.445C209.462 148.448 207.911 153.32 205.074 157.442C202.237 161.564 198.241 164.752 193.592 166.603C188.942 168.453 183.848 168.883 178.955 167.838C174.061 166.792 169.587 164.319 166.1 160.73C162.612 157.141 160.267 152.599 159.362 147.677C158.457 142.756 159.032 137.676 161.015 133.081C162.997 128.487 166.298 124.583 170.5 121.865C174.702 119.147 179.615 117.737 184.619 117.812C191.32 117.913 197.707 120.669 202.377 125.475C207.048 130.281 209.62 136.744 209.529 143.445Z" fill="white"/>
<path d="M209.537 143.438C209.497 146.573 208.874 149.672 207.7 152.579L193.056 166.816C190.119 167.908 187.004 168.441 183.871 168.387C181.585 168.361 179.314 168.018 177.123 167.37L208.678 136.686C209.272 138.887 209.561 141.159 209.537 143.438Z" fill="#EBEBEB"/>
<path d="M188.304 118.126L159.179 146.446C159.01 145.216 158.933 143.974 158.951 142.732C159.049 136.03 161.804 129.642 166.61 124.971C171.417 120.3 177.882 117.728 184.583 117.821C185.83 117.828 187.074 117.93 188.304 118.126Z" fill="#EBEBEB"/>
<path d="M206.553 131.153L171.692 165.031C171.027 164.663 170.384 164.258 169.764 163.819L205.406 129.217C205.8 129.818 206.183 130.478 206.553 131.153Z" fill="#EBEBEB"/>
<path d="M223.348 65.5386L147.312 64.3836C161.576 28.12 178.924 2.51227 186.252 2.60307C193.58 2.69386 210.165 28.8512 223.348 65.5386Z" fill="#2D87DB"/>
<path d="M160.532 56.7415C160.527 57.1626 160.397 57.5727 160.158 57.9198C159.92 58.2669 159.584 58.5355 159.193 58.6915C158.802 58.8475 158.373 58.8839 157.961 58.7961C157.549 58.7083 157.173 58.5002 156.879 58.1983C156.586 57.8963 156.388 57.514 156.312 57.0998C156.236 56.6857 156.285 56.2583 156.452 55.8717C156.619 55.4852 156.897 55.1569 157.251 54.9284C157.604 54.7 158.018 54.5817 158.439 54.5886C159.002 54.5977 159.538 54.8294 159.93 55.2329C160.322 55.6364 160.539 56.1789 160.532 56.7415Z" fill="white"/>
<path d="M174.058 56.9494C174.058 57.2322 174.003 57.5123 173.894 57.7734C173.786 58.0344 173.626 58.2712 173.425 58.4699C173.224 58.6686 172.985 58.8252 172.723 58.9305C172.46 59.0358 172.179 59.0878 171.897 59.0833C171.614 59.0789 171.335 59.0181 171.076 58.9046C170.817 58.791 170.583 58.627 170.389 58.4221C170.194 58.2171 170.042 57.9754 169.941 57.7111C169.841 57.4467 169.794 57.165 169.804 56.8824C169.824 56.3255 170.061 55.7985 170.464 55.4146C170.868 55.0307 171.407 54.8205 171.964 54.8293C172.521 54.8381 173.052 55.0651 173.444 55.4615C173.835 55.858 174.056 56.3922 174.058 56.9494Z" fill="white"/>
<path d="M187.574 57.1498C187.56 57.5669 187.423 57.9706 187.181 58.3105C186.939 58.6504 186.602 58.9116 186.212 59.0616C185.823 59.2115 185.398 59.2435 184.99 59.1537C184.583 59.0639 184.211 58.8562 183.92 58.5564C183.63 58.2566 183.434 57.8781 183.357 57.4679C183.28 57.0576 183.326 56.6339 183.488 56.2494C183.65 55.8648 183.922 55.5365 184.27 55.3053C184.617 55.0741 185.025 54.9502 185.442 54.949C185.729 54.9468 186.013 55.0027 186.277 55.1134C186.541 55.2241 186.78 55.3873 186.979 55.593C187.179 55.7988 187.334 56.0428 187.436 56.3104C187.539 56.578 187.586 56.8636 187.574 57.1498Z" fill="white"/>
<path d="M201.106 57.3495C201.093 57.7667 200.958 58.1709 200.717 58.5117C200.476 58.8525 200.14 59.1149 199.751 59.2662C199.362 59.4175 198.937 59.451 198.529 59.3625C198.121 59.2741 197.748 59.0676 197.457 58.7687C197.165 58.4699 196.968 58.0919 196.89 57.6819C196.812 57.2719 196.856 56.8479 197.017 56.4629C197.178 56.0778 197.449 55.7485 197.796 55.5162C198.143 55.2839 198.55 55.1587 198.967 55.1563C199.253 55.1547 199.537 55.2107 199.801 55.321C200.064 55.4313 200.303 55.5937 200.503 55.7984C200.702 56.0031 200.859 56.246 200.962 56.5125C201.066 56.779 201.115 57.0637 201.106 57.3495Z" fill="white"/>
<path d="M214.664 57.5178C214.657 57.9382 214.526 58.3473 214.288 58.6934C214.049 59.0395 213.713 59.3071 213.322 59.4623C212.931 59.6175 212.503 59.6534 212.092 59.5655C211.681 59.4776 211.305 59.2698 211.012 58.9683C210.718 58.6669 210.521 58.2853 210.445 57.8719C210.368 57.4584 210.416 57.0315 210.582 56.6452C210.748 56.2589 211.025 55.9304 211.378 55.7014C211.73 55.4723 212.143 55.3528 212.563 55.3581C212.843 55.3616 213.12 55.4203 213.377 55.5308C213.634 55.6413 213.867 55.8015 214.062 56.0021C214.257 56.2027 214.41 56.4399 214.514 56.7C214.617 56.9601 214.668 57.238 214.664 57.5178Z" fill="white"/>
<path d="M157.506 261.687C157.486 262.244 157.249 262.771 156.846 263.155C156.442 263.539 155.903 263.749 155.346 263.74C154.789 263.732 154.258 263.505 153.866 263.108C153.475 262.712 153.254 262.177 153.253 261.62C153.252 261.338 153.307 261.057 153.416 260.796C153.524 260.535 153.684 260.298 153.885 260.1C154.086 259.901 154.325 259.745 154.587 259.639C154.85 259.534 155.131 259.482 155.413 259.486C155.696 259.491 155.975 259.552 156.234 259.665C156.493 259.779 156.727 259.943 156.922 260.148C157.116 260.353 157.268 260.594 157.369 260.859C157.469 261.123 157.516 261.405 157.506 261.687Z" fill="#A6A6A6"/>
<path d="M171.064 261.856C171.051 262.274 170.916 262.678 170.675 263.019C170.434 263.359 170.098 263.622 169.709 263.773C169.32 263.924 168.895 263.958 168.487 263.869C168.079 263.781 167.706 263.574 167.415 263.276C167.123 262.977 166.926 262.599 166.848 262.189C166.77 261.779 166.814 261.355 166.975 260.97C167.136 260.585 167.407 260.255 167.754 260.023C168.101 259.791 168.508 259.666 168.926 259.663C169.211 259.661 169.495 259.717 169.759 259.828C170.022 259.938 170.261 260.101 170.461 260.305C170.661 260.51 170.817 260.753 170.921 261.019C171.024 261.286 171.073 261.57 171.064 261.856Z" fill="#A6A6A6"/>
<path d="M184.603 262.076C184.597 262.496 184.466 262.905 184.227 263.252C183.988 263.598 183.652 263.865 183.261 264.02C182.871 264.176 182.443 264.212 182.031 264.124C181.62 264.036 181.244 263.828 180.951 263.526C180.658 263.225 180.461 262.843 180.384 262.43C180.308 262.016 180.356 261.59 180.522 261.203C180.688 260.817 180.965 260.489 181.317 260.259C181.67 260.03 182.082 259.911 182.503 259.916C182.783 259.92 183.059 259.978 183.316 260.089C183.573 260.199 183.806 260.36 184.001 260.56C184.196 260.761 184.35 260.998 184.453 261.258C184.556 261.518 184.607 261.796 184.603 262.076Z" fill="#A6A6A6"/>
<path d="M198.105 262.263C198.092 262.68 197.957 263.085 197.716 263.425C197.475 263.766 197.139 264.029 196.75 264.18C196.361 264.331 195.936 264.365 195.528 264.276C195.12 264.188 194.747 263.981 194.456 263.682C194.164 263.384 193.967 263.006 193.889 262.596C193.811 262.186 193.855 261.762 194.016 261.377C194.177 260.991 194.448 260.662 194.795 260.43C195.142 260.198 195.549 260.072 195.967 260.07C196.253 260.068 196.536 260.124 196.8 260.235C197.063 260.345 197.302 260.507 197.502 260.712C197.702 260.917 197.858 261.16 197.962 261.426C198.065 261.693 198.114 261.977 198.105 262.263Z" fill="#A6A6A6"/>
<path d="M211.623 262.464C211.608 262.881 211.472 263.285 211.229 263.625C210.987 263.965 210.65 264.226 210.261 264.376C209.871 264.526 209.447 264.558 209.039 264.468C208.631 264.378 208.259 264.17 207.969 263.871C207.678 263.571 207.483 263.192 207.406 262.782C207.329 262.372 207.375 261.948 207.537 261.564C207.699 261.179 207.971 260.851 208.318 260.619C208.666 260.388 209.073 260.264 209.491 260.263C209.777 260.261 210.061 260.317 210.325 260.428C210.59 260.538 210.829 260.701 211.028 260.907C211.227 261.113 211.383 261.357 211.485 261.625C211.587 261.892 211.634 262.178 211.623 262.464Z" fill="#A6A6A6"/>
<path opacity="0.2" d="M183.658 3.39138C166.559 26.0537 147.198 74.2598 143.724 139.74C141.146 188.122 162.238 243.493 174.745 271.642L150.621 271.283C150.621 271.283 121.618 217.555 126.018 154.14C128.242 122.468 136.952 90.7042 147.335 64.4041C160.091 31.8777 175.337 7.93366 183.658 3.39138Z" fill="white"/>
<path d="M207.748 291.153L156.328 290.382L154.194 271.337L210.445 272.18L207.748 291.153Z" fill="#2D87DB"/>
<path opacity="0.1" d="M210.445 272.181L209.127 281.423L155.01 278.619L154.203 271.345L210.445 272.181Z" fill="black"/>
<path opacity="0.6" d="M206.621 310.294C206.596 356.226 182.582 402.998 182.582 402.998C182.582 402.998 158.596 356.2 158.621 310.268C158.709 303.715 159.786 297.214 161.816 290.987L203.471 291.01C205.487 297.241 206.549 303.743 206.621 310.294Z" fill="#FFC727"/>
<path opacity="0.6" d="M198.628 299.047C198.607 335.674 182.587 372.998 182.587 372.998C182.587 372.998 166.607 335.657 166.628 299.03C166.628 296.34 166.821 293.653 167.206 290.99L198.034 291.007C198.424 293.67 198.622 296.357 198.628 299.047Z" fill="#FFC727"/>
</svg>
