<svg width="34" height="27" viewBox="0 0 34 27" fill="none" xmlns="http://www.w3.org/2000/svg">
<path d="M31.7468 1.2461H23.636C21.8954 1.2461 20.1939 1.73836 18.7298 2.66702L16.9999 3.75977L15.27 2.66702C13.8074 1.73853 12.1039 1.24518 10.3638 1.2461H2.25303C1.62558 1.2461 1.11865 1.74534 1.11865 2.36328V22.1934C1.11865 22.8113 1.62558 23.3105 2.25303 23.3105H10.3638C12.1044 23.3105 13.8059 23.8028 15.27 24.7315L16.8439 25.73C16.89 25.7579 16.9432 25.7753 16.9964 25.7753C17.0495 25.7753 17.1027 25.7614 17.1488 25.73L18.7227 24.7315C20.1903 23.8028 21.8954 23.3105 23.636 23.3105H31.7468C32.3742 23.3105 32.8812 22.8113 32.8812 22.1934V2.36328C32.8812 1.74534 32.3742 1.2461 31.7468 1.2461ZM10.3638 20.7969H3.671V3.75977H10.3638C11.6187 3.75977 12.8382 4.11238 13.891 4.7792L15.6209 5.87195L15.8655 6.02905V22.1584C14.1781 21.2647 12.2922 20.7969 10.3638 20.7969ZM30.3288 20.7969H23.636C21.7076 20.7969 19.8217 21.2647 18.1343 22.1584V6.02905L18.3789 5.87195L20.1088 4.7792C21.1616 4.11238 22.3811 3.75977 23.636 3.75977H30.3288V20.7969ZM12.9197 8.22852H6.33323C6.19498 8.22852 6.08154 8.34722 6.08154 8.49036V10.0614C6.08154 10.2045 6.19498 10.3232 6.33323 10.3232H12.9162C13.0544 10.3232 13.1678 10.2045 13.1678 10.0614V8.49036C13.1714 8.34722 13.0579 8.22852 12.9197 8.22852ZM20.8284 8.49036V10.0614C20.8284 10.2045 20.9419 10.3232 21.0801 10.3232H27.663C27.8013 10.3232 27.9147 10.2045 27.9147 10.0614V8.49036C27.9147 8.34722 27.8013 8.22852 27.663 8.22852H21.0801C20.9419 8.22852 20.8284 8.34722 20.8284 8.49036ZM12.9197 13.1162H6.33323C6.19498 13.1162 6.08154 13.2349 6.08154 13.3781V14.9491C6.08154 15.0922 6.19498 15.2109 6.33323 15.2109H12.9162C13.0544 15.2109 13.1678 15.0922 13.1678 14.9491V13.3781C13.1714 13.2349 13.0579 13.1162 12.9197 13.1162ZM27.6666 13.1162H21.0801C20.9419 13.1162 20.8284 13.2349 20.8284 13.3781V14.9491C20.8284 15.0922 20.9419 15.2109 21.0801 15.2109H27.663C27.8013 15.2109 27.9147 15.0922 27.9147 14.9491V13.3781C27.9183 13.2349 27.8048 13.1162 27.6666 13.1162Z" fill="#FBFBFB"/>
</svg>
