<svg width="90" height="84" viewBox="0 0 90 84" fill="none" xmlns="http://www.w3.org/2000/svg">
<path d="M74.9868 28.0334C69.5783 14.9957 56.7438 5.7882 41.7706 5.7882C21.9298 5.7882 5.78654 21.9315 5.78654 41.7723C5.78654 61.6136 21.9298 77.7563 41.7706 77.7563C57.7943 77.7563 71.3731 67.2189 76.016 52.7245L76.1832 52.2024H75.6351H68.988L79.1704 31.8365L89.3531 52.203H82.0834H81.7767L81.6971 52.4991C76.9571 70.124 60.8722 83.1451 41.7728 83.1451C18.9611 83.1451 0.4 64.5834 0.4 41.7723C0.4 18.9595 18.9611 0.399453 41.7734 0.4C57.3907 0.4 71.0133 9.0968 78.0514 21.9033L74.9868 28.0334Z" fill="#0054A5" stroke="#FBFBFB" stroke-width="0.8"/>
<path d="M22.088 35.0082C22.232 32.7762 23.084 31.0362 24.644 29.7882C26.228 28.5402 28.244 27.9162 30.692 27.9162C32.372 27.9162 33.824 28.2162 35.048 28.8162C36.272 29.4162 37.196 30.2322 37.82 31.2642C38.444 32.2962 38.756 33.4602 38.756 34.7562C38.756 36.2442 38.36 37.5162 37.568 38.5722C36.776 39.6282 35.828 40.3362 34.724 40.6962V40.8402C36.14 41.2722 37.244 42.0642 38.036 43.2162C38.828 44.3442 39.224 45.7962 39.224 47.5722C39.224 48.9882 38.9 50.2482 38.252 51.3522C37.604 52.4562 36.644 53.3322 35.372 53.9802C34.1 54.6042 32.576 54.9162 30.8 54.9162C28.208 54.9162 26.072 54.2562 24.392 52.9362C22.736 51.5922 21.848 49.6722 21.728 47.1762H25.688C25.784 48.4482 26.276 49.4922 27.164 50.3082C28.052 51.1002 29.252 51.4962 30.764 51.4962C32.228 51.4962 33.356 51.1002 34.148 50.3082C34.94 49.4922 35.336 48.4482 35.336 47.1762C35.336 45.4962 34.796 44.3082 33.716 43.6122C32.66 42.8922 31.028 42.5322 28.82 42.5322H27.884V39.1482H28.856C30.8 39.1242 32.276 38.8002 33.284 38.1762C34.316 37.5522 34.832 36.5682 34.832 35.2242C34.832 34.0722 34.46 33.1602 33.716 32.4882C32.972 31.7922 31.916 31.4442 30.548 31.4442C29.204 31.4442 28.16 31.7922 27.416 32.4882C26.672 33.1602 26.228 34.0002 26.084 35.0082H22.088ZM45.803 49.1922C48.107 47.2002 49.919 45.5682 51.239 44.2962C52.583 43.0002 53.699 41.6562 54.587 40.2642C55.475 38.8722 55.919 37.4802 55.919 36.0882C55.919 34.6482 55.571 33.5202 54.875 32.7042C54.203 31.8882 53.135 31.4802 51.671 31.4802C50.255 31.4802 49.151 31.9362 48.359 32.8482C47.591 33.7362 47.183 34.9362 47.135 36.4482H43.175C43.247 33.7122 44.063 31.6242 45.623 30.1842C47.207 28.7202 49.211 27.9882 51.635 27.9882C54.251 27.9882 56.291 28.7082 57.755 30.1482C59.243 31.5882 59.987 33.5082 59.987 35.9082C59.987 37.6362 59.543 39.3042 58.655 40.9122C57.791 42.4962 56.747 43.9242 55.523 45.1962C54.323 46.4442 52.787 47.8962 50.915 49.5522L49.295 50.9922H60.707V54.4122H43.211V51.4242L45.803 49.1922Z" fill="#0054A5"/>
</svg>
