<svg width="90" height="84" viewBox="0 0 90 84" fill="none" xmlns="http://www.w3.org/2000/svg">
<path d="M75.0022 27.7829C69.4689 14.8863 56.6738 5.81574 41.7706 5.81574C21.8193 5.81574 5.58654 22.0485 5.58654 41.9998C5.58654 61.9516 21.8194 78.1839 41.7706 78.1839C57.8842 78.1839 71.5379 67.5874 76.2065 53.013L76.4573 52.23H75.6351H69.3116L79.1704 32.5113L89.0295 52.2305H82.0834H81.6234L81.5039 52.6747C76.7867 70.2149 60.779 83.1726 41.7728 83.1726C19.0716 83.1726 0.6 64.7005 0.6 41.9998C0.6 19.2975 19.0716 0.826995 41.7734 0.827539C57.2773 0.827539 70.8065 9.44032 77.8256 22.1353L75.0022 27.7829Z" fill="#383530" stroke="#FBFBFB" stroke-width="1.2"/>
<path d="M22.088 35.236C22.232 33.004 23.084 31.264 24.644 30.016C26.228 28.768 28.244 28.144 30.692 28.144C32.372 28.144 33.824 28.444 35.048 29.044C36.272 29.644 37.196 30.46 37.82 31.492C38.444 32.524 38.756 33.688 38.756 34.984C38.756 36.472 38.36 37.744 37.568 38.8C36.776 39.856 35.828 40.564 34.724 40.924V41.068C36.14 41.5 37.244 42.292 38.036 43.444C38.828 44.572 39.224 46.024 39.224 47.8C39.224 49.216 38.9 50.476 38.252 51.58C37.604 52.684 36.644 53.56 35.372 54.208C34.1 54.832 32.576 55.144 30.8 55.144C28.208 55.144 26.072 54.484 24.392 53.164C22.736 51.82 21.848 49.9 21.728 47.404H25.688C25.784 48.676 26.276 49.72 27.164 50.536C28.052 51.328 29.252 51.724 30.764 51.724C32.228 51.724 33.356 51.328 34.148 50.536C34.94 49.72 35.336 48.676 35.336 47.404C35.336 45.724 34.796 44.536 33.716 43.84C32.66 43.12 31.028 42.76 28.82 42.76H27.884V39.376H28.856C30.8 39.352 32.276 39.028 33.284 38.404C34.316 37.78 34.832 36.796 34.832 35.452C34.832 34.3 34.46 33.388 33.716 32.716C32.972 32.02 31.916 31.672 30.548 31.672C29.204 31.672 28.16 32.02 27.416 32.716C26.672 33.388 26.228 34.228 26.084 35.236H22.088ZM45.803 49.42C48.107 47.428 49.919 45.796 51.239 44.524C52.583 43.228 53.699 41.884 54.587 40.492C55.475 39.1 55.919 37.708 55.919 36.316C55.919 34.876 55.571 33.748 54.875 32.932C54.203 32.116 53.135 31.708 51.671 31.708C50.255 31.708 49.151 32.164 48.359 33.076C47.591 33.964 47.183 35.164 47.135 36.676H43.175C43.247 33.94 44.063 31.852 45.623 30.412C47.207 28.948 49.211 28.216 51.635 28.216C54.251 28.216 56.291 28.936 57.755 30.376C59.243 31.816 59.987 33.736 59.987 36.136C59.987 37.864 59.543 39.532 58.655 41.14C57.791 42.724 56.747 44.152 55.523 45.424C54.323 46.672 52.787 48.124 50.915 49.78L49.295 51.22H60.707V54.64H43.211V51.652L45.803 49.42Z" fill="#383530"/>
</svg>
