<svg width="90" height="90" viewBox="0 0 90 90" fill="none" xmlns="http://www.w3.org/2000/svg">
<path d="M71.0629 55.4432C69.297 51.7614 62.9804 46.6514 56.8766 41.7135L56.873 41.7106C53.4679 38.958 50.2504 36.3556 48.1992 34.3044C47.6854 33.7869 46.9167 33.6218 46.238 33.8657C45.0306 34.3028 44.2647 34.6441 43.6625 34.9123C43.6344 34.9248 43.6067 34.9372 43.5794 34.9493L43.5701 34.9535C42.6398 35.3702 42.3228 35.5123 41.063 35.6393C40.5042 35.6955 40.0019 35.9956 39.6905 36.4605C37.0392 40.4242 34.2942 40.0867 32.4605 39.4718C31.8755 39.2769 31.7705 39.0255 31.7143 38.7856C31.3206 37.1394 33.2969 33.3068 35.858 30.7455C41.9518 24.648 45.0942 23.1217 51.7317 26.088C59.2617 29.4555 66.8067 32.0918 66.8818 32.118C67.8681 32.4592 68.9293 31.9417 69.2705 30.963C69.608 29.9842 69.0942 28.9155 68.1154 28.5743C68.0404 28.5481 60.6454 25.9643 53.2654 22.6605C44.6667 18.8167 39.9491 21.3479 33.2104 28.0905C30.6454 30.6555 27.1616 35.8455 28.0616 39.6518C28.4478 41.2718 29.5879 42.4719 31.2828 43.0305C35.5316 44.4331 39.4089 43.0905 42.2965 39.2581C43.489 39.0744 44.1378 38.8044 45.1127 38.3657C45.4651 38.2082 45.8777 38.0245 46.4253 37.8032C48.5703 39.8169 51.4653 42.1606 54.514 44.6243L54.5246 44.6329C60.0345 49.0895 66.2787 54.14 67.6841 57.0632C68.3779 58.5068 67.6315 59.4482 67.1253 59.8793C66.3828 60.5169 65.3666 60.7194 64.8153 60.333C64.2078 59.9168 63.4166 59.8906 62.7903 60.2655C62.1603 60.6405 61.8079 61.3492 61.8866 62.0768C62.0141 63.2693 60.9228 63.9518 60.4503 64.1881C59.2503 64.7956 57.9978 64.6907 57.529 64.2556C57.0039 63.7682 56.2502 63.6256 55.5828 63.8731C54.9153 64.1243 54.4502 64.7393 54.3827 65.4518C54.2702 66.6817 53.3589 67.863 52.1701 68.3242C51.5964 68.5417 50.7639 68.673 50.0177 67.9904C49.5528 67.5705 48.9076 67.4091 48.304 67.5554C47.6928 67.7053 47.2015 68.1479 46.9878 68.7366L46.9866 68.7396C46.9148 68.9289 46.7459 69.3742 45.0002 69.3742C43.7514 69.3742 41.5051 68.5304 40.4065 67.8029C39.0903 66.9366 30.8364 60.7792 23.7078 54.8091C22.7066 53.9654 20.9741 52.1578 19.4441 50.5603C18.0865 49.1428 16.8453 47.8566 16.2078 47.3166C15.409 46.6416 14.2278 46.7429 13.564 47.5379C12.8966 48.3291 12.9939 49.5142 13.7853 50.1817C14.3023 50.6186 15.2492 51.607 16.3255 52.7304C16.4595 52.8702 16.5954 53.0122 16.7328 53.1554L16.7646 53.1885C18.4272 54.9256 20.1414 56.7165 21.2966 57.6854C28.2792 63.5317 36.6717 69.843 38.3441 70.9416C39.7241 71.8492 42.6978 73.1241 45.0004 73.1241C46.8491 73.1241 48.2704 72.7003 49.2566 71.8717C50.5765 72.3855 52.0766 72.3892 53.5203 71.8267C55.2266 71.1666 56.629 69.8354 57.4241 68.223C58.9015 68.538 60.5929 68.3167 62.1303 67.5443C63.6341 66.7868 64.7214 65.6281 65.2614 64.2742C66.754 64.353 68.2914 63.8242 69.5626 62.733C71.7154 60.8918 72.3078 58.027 71.0629 55.4432Z" fill="#383530"/>
<path d="M71.0629 55.4432C69.297 51.7614 62.9804 46.6514 56.8766 41.7135L56.873 41.7106C53.4679 38.958 50.2504 36.3556 48.1992 34.3044C47.6854 33.7869 46.9167 33.6218 46.238 33.8657C45.0306 34.3028 44.2647 34.6441 43.6625 34.9123C43.6344 34.9248 43.6067 34.9372 43.5794 34.9493L43.5701 34.9535C42.6398 35.3702 42.3228 35.5123 41.063 35.6393C40.5042 35.6955 40.0019 35.9956 39.6905 36.4605C37.0392 40.4242 34.2942 40.0867 32.4605 39.4718C31.8755 39.2769 31.7705 39.0255 31.7143 38.7856C31.3206 37.1394 33.2969 33.3068 35.858 30.7455C41.9518 24.648 45.0942 23.1217 51.7317 26.088C59.2617 29.4555 66.8067 32.0918 66.8818 32.118C67.8681 32.4592 68.9293 31.9417 69.2705 30.963C69.608 29.9842 69.0942 28.9155 68.1154 28.5743C68.0404 28.5481 60.6454 25.9643 53.2654 22.6605C44.6667 18.8167 39.9491 21.3479 33.2104 28.0905C30.6454 30.6555 27.1616 35.8455 28.0616 39.6518C28.4478 41.2718 29.5879 42.4719 31.2828 43.0305C35.5316 44.4331 39.4089 43.0905 42.2965 39.2581C43.489 39.0744 44.1378 38.8044 45.1127 38.3657C45.4651 38.2082 45.8777 38.0245 46.4253 37.8032C48.5703 39.8169 51.4653 42.1606 54.514 44.6243L54.5246 44.6329C60.0345 49.0895 66.2787 54.14 67.6841 57.0632C68.3779 58.5068 67.6315 59.4482 67.1253 59.8793C66.3828 60.5169 65.3666 60.7194 64.8153 60.333C64.2078 59.9168 63.4166 59.8906 62.7903 60.2655C62.1603 60.6405 61.8079 61.3492 61.8866 62.0768C62.0141 63.2693 60.9228 63.9518 60.4503 64.1881C59.2503 64.7956 57.9978 64.6907 57.529 64.2556C57.0039 63.7682 56.2502 63.6256 55.5828 63.8731C54.9153 64.1243 54.4502 64.7393 54.3827 65.4518C54.2702 66.6817 53.3589 67.863 52.1701 68.3242C51.5964 68.5417 50.7639 68.673 50.0177 67.9904C49.5528 67.5705 48.9076 67.4091 48.304 67.5554C47.6928 67.7053 47.2015 68.1479 46.9878 68.7366L46.9866 68.7396C46.9148 68.9289 46.7459 69.3742 45.0002 69.3742C43.7514 69.3742 41.5051 68.5304 40.4065 67.8029C39.0903 66.9366 30.8364 60.7792 23.7078 54.8091C22.7066 53.9654 20.9741 52.1578 19.4441 50.5603C18.0865 49.1428 16.8453 47.8566 16.2078 47.3166C15.409 46.6416 14.2278 46.7429 13.564 47.5379C12.8966 48.3291 12.9939 49.5142 13.7853 50.1817C14.3023 50.6186 15.2492 51.607 16.3255 52.7304C16.4595 52.8702 16.5954 53.0122 16.7328 53.1554L16.7646 53.1885C18.4272 54.9256 20.1414 56.7165 21.2966 57.6854C28.2792 63.5317 36.6717 69.843 38.3441 70.9416C39.7241 71.8492 42.6978 73.1241 45.0004 73.1241C46.8491 73.1241 48.2704 72.7003 49.2566 71.8717C50.5765 72.3855 52.0766 72.3892 53.5203 71.8267C55.2266 71.1666 56.629 69.8354 57.4241 68.223C58.9015 68.538 60.5929 68.3167 62.1303 67.5443C63.6341 66.7868 64.7214 65.6281 65.2614 64.2742C66.754 64.353 68.2914 63.8242 69.5626 62.733C71.7154 60.8918 72.3078 58.027 71.0629 55.4432Z" stroke="#383530"/>
<path d="M37.5001 24.3745H20.6251C19.5901 24.3745 18.75 25.2146 18.75 26.2496C18.75 27.2846 19.5901 28.1246 20.6251 28.1246H37.5001C38.5351 28.1246 39.3751 27.2846 39.3751 26.2496C39.3751 25.2146 38.5351 24.3745 37.5001 24.3745Z" fill="#383530"/>
<path d="M37.5001 24.3745H20.6251C19.5901 24.3745 18.75 25.2146 18.75 26.2496C18.75 27.2846 19.5901 28.1246 20.6251 28.1246H37.5001C38.5351 28.1246 39.3751 27.2846 39.3751 26.2496C39.3751 25.2146 38.5351 24.3745 37.5001 24.3745Z" stroke="#383530"/>
<path d="M76.5563 51.4532C75.975 50.5945 74.8126 50.3582 73.9539 50.9432L68.4714 54.6257C67.6127 55.2031 67.3839 56.3694 67.9615 57.2281C68.3252 57.7644 68.9177 58.0569 69.5215 58.0569C69.8778 58.0569 70.2415 57.9557 70.5641 57.7382L76.0465 54.0558C76.9051 53.4782 77.1337 52.3121 76.5563 51.4532Z" fill="#383530"/>
<path d="M76.5563 51.4532C75.975 50.5945 74.8126 50.3582 73.9539 50.9432L68.4714 54.6257C67.6127 55.2031 67.3839 56.3694 67.9615 57.2281C68.3252 57.7644 68.9177 58.0569 69.5215 58.0569C69.8778 58.0569 70.2415 57.9557 70.5641 57.7382L76.0465 54.0558C76.9051 53.4782 77.1337 52.3121 76.5563 51.4532Z" stroke="#383530"/>
<path d="M64.9164 60.4006C63.574 59.3431 57.5701 53.1969 53.8576 49.3269C53.1413 48.5768 51.9527 48.5506 51.2063 49.2707C50.4563 49.987 50.4338 51.1756 51.1501 51.922C52.1139 52.9269 60.615 61.7882 62.5913 63.3483C62.9325 63.6183 63.3451 63.7496 63.7501 63.7496C64.3013 63.7496 64.8526 63.5021 65.2275 63.0333C65.869 62.2231 65.7303 61.0418 64.9164 60.4006Z" fill="#383530"/>
<path d="M64.9164 60.4006C63.574 59.3431 57.5701 53.1969 53.8576 49.3269C53.1413 48.5768 51.9527 48.5506 51.2063 49.2707C50.4563 49.987 50.4338 51.1756 51.1501 51.922C52.1139 52.9269 60.615 61.7882 62.5913 63.3483C62.9325 63.6183 63.3451 63.7496 63.7501 63.7496C64.3013 63.7496 64.8526 63.5021 65.2275 63.0333C65.869 62.2231 65.7303 61.0418 64.9164 60.4006Z" stroke="#383530"/>
<path d="M57.4238 64.1618C55.1775 62.3655 49.5338 56.3692 48.2587 54.9818C47.5537 54.2168 46.3724 54.1718 45.6074 54.8693C44.8461 55.5705 44.7937 56.7593 45.4949 57.5206C45.4976 57.5235 45.5113 57.5382 45.5352 57.5639C46.1016 58.1726 52.4102 64.9534 55.0799 67.0906C55.425 67.3643 55.8412 67.4993 56.2499 67.4993C56.7975 67.4993 57.3448 67.2555 57.7161 66.7981C58.3614 65.988 58.2301 64.8067 57.4238 64.1618Z" fill="#383530"/>
<path d="M57.4238 64.1618C55.1775 62.3655 49.5338 56.3692 48.2587 54.9818C47.5537 54.2168 46.3724 54.1718 45.6074 54.8693C44.8461 55.5705 44.7937 56.7593 45.4949 57.5206C45.4976 57.5235 45.5113 57.5382 45.5352 57.5639C46.1016 58.1726 52.4102 64.9534 55.0799 67.0906C55.425 67.3643 55.8412 67.4993 56.2499 67.4993C56.7975 67.4993 57.3448 67.2555 57.7161 66.7981C58.3614 65.988 58.2301 64.8067 57.4238 64.1618Z" stroke="#383530"/>
<path d="M49.9615 67.9383C47.2877 65.6846 41.8165 59.8608 40.7477 58.717C40.039 57.9596 38.8502 57.9183 38.0964 58.627C37.339 59.3358 37.3014 60.5207 38.0064 61.2783C39.544 62.9245 44.7789 68.4746 47.5428 70.8071C47.8952 71.1033 48.3227 71.2495 48.7502 71.2495C49.2826 71.2495 49.8153 71.0208 50.1865 70.5821C50.8539 69.787 50.7527 68.6058 49.9615 67.9383Z" fill="#383530"/>
<path d="M49.9615 67.9383C47.2877 65.6846 41.8165 59.8608 40.7477 58.717C40.039 57.9596 38.8502 57.9183 38.0964 58.627C37.339 59.3358 37.3014 60.5207 38.0064 61.2783C39.544 62.9245 44.7789 68.4746 47.5428 70.8071C47.8952 71.1033 48.3227 71.2495 48.7502 71.2495C49.2826 71.2495 49.8153 71.0208 50.1865 70.5821C50.8539 69.787 50.7527 68.6058 49.9615 67.9383Z" stroke="#383530"/>
<path d="M21.915 21.1381C18.7012 18.093 5.85 17.1067 1.98756 16.878C1.45512 16.8518 0.963809 17.028 0.588867 17.3843C0.21375 17.7367 0 18.2317 0 18.7492V52.4992C0 53.5342 0.840059 54.3743 1.87506 54.3743H13.1251C13.9351 54.3743 14.6551 53.8531 14.9063 53.0806L14.9065 53.0797C15.1844 52.2269 21.6416 32.4073 22.4924 22.6605C22.5413 22.0905 22.3312 21.528 21.915 21.1381ZM11.7562 50.6244H3.74994V20.7593C9.77625 21.2355 16.2787 22.2705 18.6412 23.418C17.6476 31.6305 13.1512 46.2217 11.7562 50.6244Z" fill="#383530"/>
<path d="M21.915 21.1381C18.7012 18.093 5.85 17.1067 1.98756 16.878C1.45512 16.8518 0.963809 17.028 0.588867 17.3843C0.21375 17.7367 0 18.2317 0 18.7492V52.4992C0 53.5342 0.840059 54.3743 1.87506 54.3743H13.1251C13.9351 54.3743 14.6551 53.8531 14.9063 53.0806L14.9065 53.0797C15.1844 52.2269 21.6416 32.4073 22.4924 22.6605C22.5413 22.0905 22.3312 21.528 21.915 21.1381ZM11.7562 50.6244H3.74994V20.7593C9.77625 21.2355 16.2787 22.2705 18.6412 23.418C17.6476 31.6305 13.1512 46.2217 11.7562 50.6244Z" stroke="#383530"/>
<path d="M88.1246 20.6245C73.402 20.6245 65.2345 24.3933 64.8934 24.5508C64.4059 24.7795 64.042 25.2033 63.8921 25.7171C63.7422 26.2309 63.817 26.7821 64.0983 27.2395C66.4158 30.9708 73.672 51.6933 75.067 56.7483C75.292 57.5619 76.0308 58.1244 76.8746 58.1244H88.1246C89.1596 58.1244 89.9996 57.2844 89.9996 56.2494V22.4994C89.9996 21.4607 89.1596 20.6245 88.1246 20.6245ZM86.2497 54.3745H78.2772C76.4997 48.5844 71.2496 33.4869 68.3209 27.2471C71.1821 26.2759 77.3285 24.607 86.2497 24.3971V54.3745Z" fill="#383530"/>
<path d="M88.1246 20.6245C73.402 20.6245 65.2345 24.3933 64.8934 24.5508C64.4059 24.7795 64.042 25.2033 63.8921 25.7171C63.7422 26.2309 63.817 26.7821 64.0983 27.2395C66.4158 30.9708 73.672 51.6933 75.067 56.7483C75.292 57.5619 76.0308 58.1244 76.8746 58.1244H88.1246C89.1596 58.1244 89.9996 57.2844 89.9996 56.2494V22.4994C89.9996 21.4607 89.1596 20.6245 88.1246 20.6245ZM86.2497 54.3745H78.2772C76.4997 48.5844 71.2496 33.4869 68.3209 27.2471C71.1821 26.2759 77.3285 24.607 86.2497 24.3971V54.3745Z" stroke="#383530"/>
</svg>
