<svg width="78" height="80" viewBox="0 0 78 80" fill="none" xmlns="http://www.w3.org/2000/svg">
<path d="M70.7192 8.67794C70.5557 8.6713 70.3921 8.67019 70.2285 8.6748H64.0597V3.37354C64.0599 1.25304 62.0357 0 59.9152 0H54.2286C52.1081 0 50.5659 1.25304 50.5659 3.37354V8.67462H27.4334V3.37354C27.4334 1.25304 25.8912 0 23.7707 0H18.0839C15.9636 0 13.9394 1.25304 13.9394 3.37354V8.67462H7.77085C3.83314 8.56485 0.552025 11.6681 0.442255 15.6056C0.437643 15.7691 0.43875 15.9329 0.445391 16.0964V71.8071C0.445391 76.0481 3.52966 79.9998 7.77066 79.9998H70.2286C74.4697 79.9998 77.5539 76.0481 77.5539 71.8071V16.0964C77.7152 12.1605 74.6551 8.83918 70.7192 8.67794ZM54.2286 3.85543H60.2045V14.4578H54.2286V3.85543ZM18.0841 3.85543H23.5781V14.4578H18.0841V3.85543ZM73.6985 71.8071C73.6985 73.9276 72.3492 76.1444 70.2286 76.1444H7.77085C5.65035 76.1444 4.301 73.9276 4.301 71.8071V30.8434H73.6985V71.8071ZM73.6985 16.0964V26.988H4.30082V16.0964C4.13755 14.2939 5.46641 12.7003 7.26886 12.5371C7.43563 12.5219 7.60352 12.5197 7.77066 12.5302H13.9394V14.6507C13.9394 16.7712 15.9634 18.3134 18.0839 18.3134H23.7707C25.7396 18.3674 27.3793 16.815 27.4334 14.8461C27.4352 14.781 27.4352 14.7159 27.4334 14.6507V12.53H50.5659V14.6505C50.5119 16.6194 52.0643 18.2591 54.0332 18.3132C54.0983 18.315 54.1635 18.315 54.2286 18.3132H59.9154C62.0359 18.3132 64.0599 16.771 64.0599 14.6505V12.53H70.2286C72.035 12.4162 73.5915 13.7883 73.7053 15.5946C73.7158 15.7617 73.7136 15.9296 73.6985 16.0964Z" fill="#383530"/>
<path d="M70.7192 8.67794C70.5557 8.6713 70.3921 8.67019 70.2285 8.6748H64.0597V3.37354C64.0599 1.25304 62.0357 0 59.9152 0H54.2286C52.1081 0 50.5659 1.25304 50.5659 3.37354V8.67462H27.4334V3.37354C27.4334 1.25304 25.8912 0 23.7707 0H18.0839C15.9636 0 13.9394 1.25304 13.9394 3.37354V8.67462H7.77085C3.83314 8.56485 0.552025 11.6681 0.442255 15.6056C0.437643 15.7691 0.43875 15.9329 0.445391 16.0964V71.8071C0.445391 76.0481 3.52966 79.9998 7.77066 79.9998H70.2286C74.4697 79.9998 77.5539 76.0481 77.5539 71.8071V16.0964C77.7152 12.1605 74.6551 8.83918 70.7192 8.67794ZM54.2286 3.85543H60.2045V14.4578H54.2286V3.85543ZM18.0841 3.85543H23.5781V14.4578H18.0841V3.85543ZM73.6985 71.8071C73.6985 73.9276 72.3492 76.1444 70.2286 76.1444H7.77085C5.65035 76.1444 4.301 73.9276 4.301 71.8071V30.8434H73.6985V71.8071ZM73.6985 16.0964V26.988H4.30082V16.0964C4.13755 14.2939 5.46641 12.7003 7.26886 12.5371C7.43563 12.5219 7.60352 12.5197 7.77066 12.5302H13.9394V14.6507C13.9394 16.7712 15.9634 18.3134 18.0839 18.3134H23.7707C25.7396 18.3674 27.3793 16.815 27.4334 14.8461C27.4352 14.781 27.4352 14.7159 27.4334 14.6507V12.53H50.5659V14.6505C50.5119 16.6194 52.0643 18.2591 54.0332 18.3132C54.0983 18.315 54.1635 18.315 54.2286 18.3132H59.9154C62.0359 18.3132 64.0599 16.771 64.0599 14.6505V12.53H70.2286C72.035 12.4162 73.5915 13.7883 73.7053 15.5946C73.7158 15.7617 73.7136 15.9296 73.6985 16.0964Z" stroke="#383530"/>
<path d="M28.3013 57.1565L26.5664 66.795C26.4978 67.2085 26.5657 67.6331 26.7599 68.0045C27.2534 68.9478 28.4183 69.3125 29.3616 68.819L38.0362 64.2889L46.7108 68.819L47.5783 69.0118C47.9965 69.0192 48.4048 68.883 48.7348 68.6262C49.311 68.2054 49.6074 67.5011 49.506 66.7948L47.7711 57.1563L54.8072 50.4094C55.3107 49.8653 55.4934 49.0979 55.2891 48.3854C55.0295 47.7267 54.4447 47.2517 53.747 47.1323L44.1084 45.6865L39.7711 36.9154C39.582 36.525 39.2669 36.2097 38.8765 36.0208C37.9183 35.5568 36.7654 35.9573 36.3013 36.9154L31.964 45.6865L22.3254 47.1323C21.6277 47.2515 21.0428 47.7267 20.7833 48.3854C20.579 49.0979 20.7619 49.8653 21.2651 50.4094L28.3013 57.1565ZM33.6026 49.3493C34.2079 49.2587 34.7208 48.8558 34.9519 48.2891L38.0362 42.1203L41.1205 48.2891C41.3518 48.8558 41.8645 49.2587 42.4698 49.3493L49.3132 50.3131L44.3975 55.036C43.9396 55.4892 43.7249 56.1335 43.8191 56.7709L44.9757 63.6143L38.9035 60.3372L38.036 60.1444L37.1685 60.3372L31.0963 63.6143L32.2529 56.7709C32.3473 56.1335 32.1324 55.4892 31.6745 55.036L26.7588 50.3131L33.6026 49.3493Z" fill="#383530"/>
<path d="M28.3013 57.1565L26.5664 66.795C26.4978 67.2085 26.5657 67.6331 26.7599 68.0045C27.2534 68.9478 28.4183 69.3125 29.3616 68.819L38.0362 64.2889L46.7108 68.819L47.5783 69.0118C47.9965 69.0192 48.4048 68.883 48.7348 68.6262C49.311 68.2054 49.6074 67.5011 49.506 66.7948L47.7711 57.1563L54.8072 50.4094C55.3107 49.8653 55.4934 49.0979 55.2891 48.3854C55.0295 47.7267 54.4447 47.2517 53.747 47.1323L44.1084 45.6865L39.7711 36.9154C39.582 36.525 39.2669 36.2097 38.8765 36.0208C37.9183 35.5568 36.7654 35.9573 36.3013 36.9154L31.964 45.6865L22.3254 47.1323C21.6277 47.2515 21.0428 47.7267 20.7833 48.3854C20.579 49.0979 20.7619 49.8653 21.2651 50.4094L28.3013 57.1565ZM33.6026 49.3493C34.2079 49.2587 34.7208 48.8558 34.9519 48.2891L38.0362 42.1203L41.1205 48.2891C41.3518 48.8558 41.8645 49.2587 42.4698 49.3493L49.3132 50.3131L44.3975 55.036C43.9396 55.4892 43.7249 56.1335 43.8191 56.7709L44.9757 63.6143L38.9035 60.3372L38.036 60.1444L37.1685 60.3372L31.0963 63.6143L32.2529 56.7709C32.3473 56.1335 32.1324 55.4892 31.6745 55.036L26.7588 50.3131L33.6026 49.3493Z" stroke="#383530"/>
</svg>
