<svg width="61" height="61" viewBox="0 0 61 61" fill="none" xmlns="http://www.w3.org/2000/svg">
<mask id="mask0" mask-type="alpha" maskUnits="userSpaceOnUse" x="0" y="0" width="61" height="61">
<path d="M23.1562 46.2039H26.1562V46.2008H26.7938H32.8719H35.8719V43.2008V31.9289C35.8719 31.7119 35.8803 31.5584 35.8921 31.4576C35.8926 31.4535 35.8931 31.4496 35.8935 31.446C35.9221 31.3838 35.9544 31.3267 35.9879 31.2776C36.0327 31.2121 36.0702 31.1749 36.0917 31.1569C36.1019 31.1484 36.1081 31.1445 36.1101 31.1434C36.1109 31.1429 36.1113 31.1427 36.1115 31.1426C36.1116 31.1426 36.1116 31.1425 36.1116 31.1426L36.1132 31.1421C36.1148 31.1417 36.118 31.1409 36.1231 31.1399C36.124 31.1398 36.125 31.1396 36.126 31.1395C36.1404 31.185 36.1559 31.2407 36.1712 31.3081C36.2274 31.5559 36.2687 31.9053 36.2687 32.3695V43.2039V46.2039H39.2687H45.3437H48.3437V43.2039V31.6445C48.3437 28.2684 47.4618 25.3599 45.5766 23.263C43.6608 21.1321 41.0408 20.2102 38.35 20.2102C36.9515 20.2102 35.7168 20.4591 34.6423 20.8597L34.6209 20.6508H31.9125H26.6344H25.8585C26.1899 19.8846 26.3562 19.0543 26.3562 18.2133V18.1805L26.3555 18.1477C26.3217 16.5998 25.7513 15.0713 24.5892 13.9208C23.4154 12.7587 21.837 12.1789 20.1594 12.1789C18.4912 12.1789 16.9077 12.7515 15.7238 13.8929C14.5394 15.0347 13.9219 16.5883 13.9219 18.2133C13.9219 19.082 14.0969 19.9077 14.4188 20.6539H14.0812V23.6539V43.2039V46.2039H17.0812H23.1562ZM36.307 31.1432C36.3071 31.1432 36.3064 31.1431 36.3049 31.1427L36.307 31.1432ZM3.5 30.7695C3.5 15.8576 15.5881 3.76953 30.5 3.76953C45.4119 3.76953 57.5 15.8576 57.5 30.7695C57.5 45.6814 45.4119 57.7695 30.5 57.7695C15.5881 57.7695 3.5 45.6814 3.5 30.7695Z" fill="black" stroke="#FBFBFB" stroke-width="6"/>
</mask>
<g mask="url(#mask0)">
<circle cx="31.5" cy="30.918" r="25" fill="#FBFBFB" stroke="#FBFBFB" stroke-width="6"/>
</g>
</svg>
