<svg width="1500" height="414" viewBox="0 0 1500 414" fill="none" xmlns="http://www.w3.org/2000/svg">
<mask id="mask0" mask-type="alpha" maskUnits="userSpaceOnUse" x="-346" y="-564" width="2258" height="951">
<path d="M1268.64 -94.3544C1230.94 -98.9681 1211.83 -73.1096 1206.99 -59.6037C1201.84 -69.6317 1187.39 -90.1952 1170.8 -92.2252C1113.87 -102.413 1095.2 -47.7678 1092.97 -19.1717C1075.54 -22.6476 1036.4 -19.6499 1019.28 20.1481C997.886 69.8955 1031.4 124.348 1083.76 118.671C1102.31 204.726 1174.12 208.948 1207.71 200.302C1214.32 219.238 1238.1 258.401 1280.33 263.568C1345.18 271.503 1383.27 219.771 1394.21 192.913C1398.41 205.511 1418.12 232.091 1463.37 237.628C1532.93 244.53 1561.22 188.509 1566.67 159.636C1586.59 168.788 1630.92 175.555 1648.81 129.407C1671.18 71.7221 1629.88 18.3308 1588.35 29.3612C1594.66 -22.2318 1551.66 -61.7327 1511.53 -46.5029C1520.94 -107.787 1468.03 -144.473 1427.17 -123.293C1361.42 -195.789 1273.98 -138.01 1268.64 -94.3544Z" fill="url(#paint0_linear)"/>
<path d="M281.899 141.052C325.197 122.524 324.125 84.6829 318.177 68.0781C341.15 55.5884 344.558 20.3214 326.036 3.24348C340.751 -13.1098 342.22 -46.2767 316.755 -64.8004C291.289 -83.3241 253.449 -67.9728 237.216 -39.3088C211.624 -47.114 193.752 -26.121 188.015 -14.6489C168.599 -23.932 145.692 0.00726328 146.364 16.3477C112.724 -3.99675 71.4945 37.2126 77.695 59.945C68.1045 63.0707 48.0118 86.5239 64.6615 117.149C89.906 159.808 128.976 144.832 139.563 126.547C149.472 140.999 163.107 137.762 169.109 126.147C192.972 154.938 218.031 140.619 227.577 129.861C236.532 137.522 259.933 150.486 281.899 141.052Z" fill="url(#paint1_linear)"/>
<path d="M207.775 48.0182C226.756 114.562 282.112 120.011 307.418 114.418C321.365 150.219 372.139 161.72 400.464 137.888C421.573 162.367 469.645 170.655 501.364 136.969C533.082 103.282 517.719 45.2827 478.946 16.3094C495.065 -19.546 467.778 -49.4864 452.12 -59.9747C469.248 -86.5546 438.6 -124.38 414.657 -126.428C450.545 -171.691 398.119 -239.424 363.835 -234.598C361.056 -249.157 330.595 -282.79 282.87 -264.196C216.012 -235.305 230.601 -175.582 255.292 -156.763C232.391 -144.997 234.582 -124.522 250.401 -113.622C204.012 -84.1743 220.24 -44.9959 234.153 -29.0878C221.326 -17.4551 198.094 14.2518 207.775 48.0182Z" fill="url(#paint2_linear)"/>
<path d="M217.68 180.575C169.296 221.229 123.756 195.505 107.034 177.562C78.1173 197.416 33.0522 178.797 23.2378 145.269C-5.47809 152.596 -46.8266 132.977 -54.2718 90.0794C-61.717 47.1817 -20.4583 11.1096 24.1841 9.88291C29.8936 -26.2501 66.1505 -34.4186 83.5653 -33.9862C83.7949 -63.5691 126.645 -75.9544 146.185 -64.5915C141.383 -118.597 216.215 -142.1 240.265 -119.896C249.788 -129.532 290.369 -138.811 317.83 -98.8153C354.86 -40.6105 313.326 -2.80121 284.711 -1.7382C296.448 19.6288 284.381 34.1087 266.634 33.9045C287.563 81.4822 255.172 102.689 236.361 107.346C240.379 123.171 242.269 159.972 217.68 180.575Z" fill="url(#paint3_linear)"/>
<path d="M1528.74 276.941C1432.06 323.363 1371.03 272.769 1352.59 241.669C1296.89 262.867 1233.3 222.874 1233.24 170.736C1183.73 173.531 1126.57 133.1 1134.7 67.8155C1142.84 2.53113 1225.94 -39.1243 1298.15 -28.4921C1324.23 -80.1432 1386.24 -82.0763 1413.98 -76.5865C1428.2 -120.113 1502.76 -126.423 1528.8 -104.235C1546.38 -185.149 1677.47 -198.93 1705.67 -159.509C1725.46 -171.055 1794.93 -173.419 1820.27 -106.834C1852.44 -10.7507 1768.08 33.388 1721.67 26.9807C1730.5 61.7353 1704.35 79.709 1675.97 74.4629C1687.28 150.401 1625.37 172.624 1593 174.243C1592.04 198.681 1577.84 253.434 1528.74 276.941Z" fill="url(#paint4_linear)"/>
<path d="M624.758 -63.0441C608.917 -53.7561 603.37 -36.8087 602.577 -29.496C590.912 -33.7178 560.429 -36.7031 531.818 -14.8705C496.053 12.4203 493.173 60.3298 511.973 100.663C530.774 140.996 589.291 152.115 609.092 140.505C612.544 164.554 639.634 181.064 663.08 183.514C686.525 185.964 712.158 176.465 726.28 154.753C755.212 177.294 784.952 157.882 791.092 144.01C798.728 154.15 821.788 176.578 868.833 173.487C922.156 169.717 951.835 133.116 960.009 115.286C973.592 121.544 1040.05 126.82 1049 69.035C1056.71 19.22 1013.43 -15.5886 978.204 -16.2669C960.019 -88.5646 895.323 -83.8148 881.47 -76.0918C879.821 -92.1119 851.813 -162.6 769.35 -150.198C686.887 -137.797 669.923 -70.1729 671.687 -60.1418C665.932 -66.2482 644.559 -74.654 624.758 -63.0441Z" fill="url(#paint5_linear)"/>
<path d="M77.0094 -20.8687C92.5037 -15.2817 100.033 -1.40822 101.861 4.83015C111.572 -0.680925 138.184 -8.08021 166.946 6.41133C202.9 24.5258 212.818 65.7618 202.319 103.82C191.82 141.878 141.562 160.771 122.194 153.787C122.823 175.258 101.302 193.892 80.8582 199.717C60.4139 205.542 36.1909 201.313 20.314 184.645C-1.91566 208.816 -31.3084 196.608 -38.8925 185.505C-44.1154 195.531 -61.1487 218.68 -103.402 223.4C-151.334 228.519 -183.314 201.344 -193.312 187.117C-204.414 194.702 -262.623 209.762 -279.444 160.887C-293.944 118.754 -260.86 81.6474 -229.682 75.5085C-224.64 9.73238 -166.457 3.67493 -152.968 8.21333C-153.965 -5.98674 -139.922 -71.7357 -64.7853 -73.9331C10.3513 -76.1305 35.8056 -19.958 35.7798 -10.9512C39.9528 -17.1715 57.6417 -27.8525 77.0094 -20.8687Z" fill="url(#paint6_linear)"/>
<path d="M10.2519 200.626C23.6086 195.039 28.8097 183.65 29.7406 178.654C39.1534 182.159 64.0586 185.775 88.3772 172.202C118.776 155.235 122.972 122.382 109.084 93.6389C95.1964 64.8956 47.5925 54.2411 30.8966 61.2244C28.983 44.4829 7.37988 31.7243 -11.7697 28.8366C-30.9192 25.9489 -52.3215 31.1797 -64.7431 45.4119C-87.627 28.4048 -112.779 40.2539 -118.349 49.4942C-124.228 42.1192 -142.298 25.4905 -181.029 25.2116C-224.939 25.0786 -250.698 48.7702 -258.09 60.6326C-268.999 55.6274 -323.346 48.5907 -332.897 87.9351C-341.131 121.853 -306.942 148.044 -278.056 150.314C-265.896 201.043 -212.614 201.083 -200.948 196.473C-200.208 207.592 -179.916 257.577 -111.758 253.256C-43.601 248.935 -27.0906 203.224 -28.1552 196.225C-23.6648 200.725 -6.44405 207.609 10.2519 200.626Z" fill="url(#paint7_linear)"/>
<rect x="-25.5771" y="-563.193" width="1572.55" height="611.441" transform="rotate(2.36331 -25.5771 -563.193)" fill="#C4C4C4"/>
</mask>
<g mask="url(#mask0)">
<rect x="1487.93" y="862.775" width="1573.12" height="1122.16" transform="rotate(-177.637 1487.93 862.775)" fill="url(#paint8_radial)"/>
</g>
<defs>
<linearGradient id="paint0_linear" x1="1377.23" y1="-218.761" x2="1246.52" y2="312.332" gradientUnits="userSpaceOnUse">
<stop stop-color="#0054A5"/>
<stop offset="1" stop-color="white"/>
</linearGradient>
<linearGradient id="paint1_linear" x1="262.022" y1="152.304" x2="158.636" y2="-38.5262" gradientUnits="userSpaceOnUse">
<stop stop-color="#0054A5"/>
<stop offset="1" stop-color="white"/>
</linearGradient>
<linearGradient id="paint2_linear" x1="195.056" y1="16.9597" x2="492.367" y2="-98.3722" gradientUnits="userSpaceOnUse">
<stop stop-color="#0054A5"/>
<stop offset="1" stop-color="white"/>
</linearGradient>
<linearGradient id="paint3_linear" x1="243.245" y1="163.684" x2="71.8895" y2="-85.0751" gradientUnits="userSpaceOnUse">
<stop stop-color="#0054A5"/>
<stop offset="1" stop-color="white"/>
</linearGradient>
<linearGradient id="paint4_linear" x1="1577.67" y1="259.176" x2="1419.35" y2="-155.19" gradientUnits="userSpaceOnUse">
<stop stop-color="#0054A5"/>
<stop offset="1" stop-color="white"/>
</linearGradient>
<linearGradient id="paint5_linear" x1="779.184" y1="-151.847" x2="769.653" y2="300.962" gradientUnits="userSpaceOnUse">
<stop stop-color="#0054A5"/>
<stop offset="1" stop-color="white"/>
</linearGradient>
<linearGradient id="paint6_linear" x1="-73.7723" y1="-73.8186" x2="19.1679" y2="291.816" gradientUnits="userSpaceOnUse">
<stop stop-color="#0054A5"/>
<stop offset="1" stop-color="white"/>
</linearGradient>
<linearGradient id="paint7_linear" x1="-119.893" y1="253.888" x2="-83.1284" y2="-38.4335" gradientUnits="userSpaceOnUse">
<stop stop-color="#0054A5"/>
<stop offset="1" stop-color="white"/>
</linearGradient>
<radialGradient id="paint8_radial" cx="0" cy="0" r="1" gradientUnits="userSpaceOnUse" gradientTransform="translate(2189.99 -628.045) rotate(87.6367) scale(2598.88 3245.08)">
<stop offset="0.731553" stop-color="#6E9EC9"/>
<stop offset="0.788525" stop-color="#A3C1DC"/>
<stop offset="0.873784" stop-color="#F1F4F7"/>
<stop offset="0.891714" stop-color="#FBFBFB"/>
<stop offset="1" stop-color="#FBFBFB"/>
</radialGradient>
</defs>
</svg>
