<svg width="57" height="56" viewBox="0 0 57 56" fill="none" xmlns="http://www.w3.org/2000/svg">
<path d="M53.5 28.1563C53.5 39.3246 46.2138 48.8134 36.1667 52.1527V38.777H39.3897H41.948L42.352 36.2507L43.5957 28.4737L44.1512 25H40.6333H36.1667V22.5563C36.1667 22.131 36.2107 21.9072 36.2392 21.8064C36.3777 21.7524 36.7062 21.6667 37.3667 21.6667H40.9437H43.9437V18.6667V11.5103V8.9359L41.3991 8.5451C39.3936 8.2371 37.0025 7.88967 34.723 7.88967C30.9293 7.88967 27.4044 9.05353 24.809 11.5435C22.1934 14.0529 20.8333 17.611 20.8333 21.777V25H16.8333H13.8333V28V35.777V38.777H16.8333H20.8333V52.1527C10.7863 48.813 3.5 39.3226 3.5 28.1563C3.5 14.3111 14.7726 3 28.5 3C42.2274 3 53.5 14.3111 53.5 28.1563ZM36.1546 21.8494C36.1539 21.8489 36.1606 21.8434 36.177 21.8345C36.1634 21.8456 36.1552 21.85 36.1546 21.8494Z" fill="#FBFBFB" stroke="#FBFBFB" stroke-width="6"/>
</svg>
