<svg width="61" height="60" viewBox="0 0 61 60" fill="none" xmlns="http://www.w3.org/2000/svg">
<mask id="mask0" mask-type="alpha" maskUnits="userSpaceOnUse" x="0" y="0" width="61" height="60">
<path d="M3.5 30C3.5 15.0881 15.5881 3 30.5 3C45.4119 3 57.5 15.0881 57.5 30C57.5 44.9119 45.4119 57 30.5 57C15.5881 57 3.5 44.9119 3.5 30ZM11.875 30C11.875 32.6296 11.884 35.0038 12.195 36.9381C12.519 38.9534 13.2334 40.9342 14.9808 42.4263C16.6325 43.8368 18.8004 44.4504 21.1739 44.7748C23.5816 45.1038 26.6605 45.1875 30.5 45.1875C34.3395 45.1875 37.4184 45.1038 39.8261 44.7748C42.1996 44.4504 44.3675 43.8368 46.0192 42.4263C47.7666 40.9342 48.481 38.9534 48.805 36.9381C49.116 35.0038 49.125 32.6296 49.125 30C49.125 27.3704 49.116 24.9962 48.805 23.0619C48.481 21.0466 47.7666 19.0658 46.0192 17.5737C44.3675 16.1632 42.1996 15.5496 39.8261 15.2252C37.4184 14.8962 34.3395 14.8125 30.5 14.8125C26.6605 14.8125 23.5816 14.8962 21.1739 15.2252C18.8004 15.5496 16.6325 16.1632 14.9808 17.5737C13.2334 19.0658 12.519 21.0466 12.195 23.0619C11.884 24.9962 11.875 27.3704 11.875 30Z" fill="black" stroke="#FBFBFB" stroke-width="6"/>
</mask>
<g mask="url(#mask0)">
<circle cx="30.5" cy="30" r="25" fill="#FBFBFB" stroke="#FBFBFB" stroke-width="6"/>
</g>
</svg>
