<svg width="60" height="60" viewBox="0 0 60 60" fill="none" xmlns="http://www.w3.org/2000/svg">
<circle cx="29.7694" cy="29.7694" r="26.7694" stroke="#FBFBFB" stroke-width="6"/>
<mask id="mask0" mask-type="alpha" maskUnits="userSpaceOnUse" x="4" y="4" width="52" height="52">
<mask id="path-2-inside-1" mask-type="luminance" fill="white">
<path d="M29.7688 23.7438C28.5772 23.7443 27.4125 24.098 26.4219 24.7604C25.4313 25.4228 24.6593 26.364 24.2036 27.465C23.7479 28.5661 23.6289 29.7775 23.8616 30.9462C24.0944 32.1149 24.6684 33.1884 25.5112 34.0308C26.354 34.8733 27.4276 35.4469 28.5964 35.6792C29.7652 35.9115 30.9766 35.7921 32.0775 35.336C33.1784 34.8798 34.1193 34.1075 34.7813 33.1167C35.4433 32.1259 35.7966 30.961 35.7966 29.7693C35.7954 28.1712 35.1599 26.639 34.0297 25.5092C32.8994 24.3794 31.3669 23.7444 29.7688 23.7438ZM43.8566 19.1123C43.5499 18.3349 43.0867 17.6289 42.4957 17.0379C41.9048 16.447 41.1987 15.9838 40.4214 15.677C38.0491 14.7406 32.4009 14.9507 29.7688 14.9507C27.1368 14.9507 21.4942 14.7327 19.1152 15.677C18.3378 15.9838 17.6318 16.447 17.0408 17.0379C16.4499 17.6289 15.9867 18.3349 15.6799 19.1123C14.7446 21.4845 14.9536 27.1384 14.9536 29.7682C14.9536 32.398 14.7446 38.0451 15.6845 40.4253C15.9912 41.2026 16.4544 41.9087 17.0453 42.4996C17.6363 43.0905 18.3423 43.5537 19.1197 43.8605C21.4919 44.797 27.1402 44.5869 29.7734 44.5869C32.4066 44.5869 38.0469 44.8049 40.4259 43.8605C41.2033 43.5537 41.9093 43.0905 42.5002 42.4996C43.0912 41.9087 43.5544 41.2026 43.8611 40.4253C44.8044 38.053 44.5875 32.3991 44.5875 29.7693C44.5875 27.1395 44.8044 21.4936 43.8611 19.1134L43.8566 19.1123ZM29.7688 39.0324C27.9368 39.0324 26.1459 38.4891 24.6226 37.4713C23.0993 36.4535 21.912 35.0068 21.2109 33.3142C20.5098 31.6215 20.3263 29.7591 20.6838 27.9622C21.0412 26.1653 21.9234 24.5148 23.2189 23.2194C24.5143 21.9239 26.1648 21.0417 27.9617 20.6842C29.7586 20.3268 31.6211 20.5103 33.3137 21.2114C35.0063 21.9125 36.453 23.0997 37.4708 24.623C38.4886 26.1463 39.0319 27.9373 39.0319 29.7693C39.0334 30.9862 38.7948 32.1914 38.3298 33.3159C37.8648 34.4404 37.1826 35.4622 36.3221 36.3226C35.4617 37.1831 34.4399 37.8653 33.3154 38.3303C32.1909 38.7953 30.9857 39.0339 29.7688 39.0324ZM39.4137 22.2798C38.9861 22.28 38.5679 22.1534 38.2122 21.916C37.8565 21.6785 37.5792 21.3409 37.4154 20.9459C37.2516 20.5508 37.2086 20.116 37.2919 19.6965C37.3752 19.2771 37.581 18.8917 37.8833 18.5892C38.1857 18.2867 38.5709 18.0807 38.9904 17.9972C39.4098 17.9136 39.8446 17.9564 40.2398 18.12C40.6349 18.2836 40.9726 18.5607 41.2103 18.9163C41.4479 19.2719 41.5747 19.69 41.5747 20.1177C41.5759 20.4017 41.521 20.6831 41.4132 20.9459C41.3054 21.2086 41.1467 21.4475 40.9464 21.6488C40.746 21.8501 40.5079 22.0098 40.2457 22.1189C39.9834 22.228 39.7023 22.2842 39.4183 22.2843L39.4137 22.2798ZM49.6506 4.46533H9.88713C8.44905 4.46533 7.06987 5.03661 6.05299 6.05348C5.03612 7.07036 4.46484 8.44954 4.46484 9.88762L4.46484 49.651C4.46484 51.0891 5.03612 52.4683 6.05299 53.4852C7.06987 54.5021 8.44905 55.0733 9.88713 55.0733H49.6506C51.0886 55.0733 52.4678 54.5021 53.4847 53.4852C54.5016 52.4683 55.0728 51.0891 55.0728 49.651V9.88762C55.0728 8.44954 54.5016 7.07036 53.4847 6.05348C52.4678 5.03661 51.0886 4.46533 49.6506 4.46533ZM47.7166 37.225C47.5709 40.1202 46.91 42.6857 44.7965 44.7936C42.6829 46.9015 40.1198 47.5759 37.2279 47.7137C34.2445 47.882 25.3 47.882 22.3166 47.7137C19.4213 47.568 16.8649 46.906 14.748 44.7936C12.631 42.6811 11.9657 40.1146 11.8279 37.225C11.6595 34.2405 11.6595 25.2948 11.8279 22.3137C11.9736 19.4184 12.6265 16.853 14.748 14.7451C16.8695 12.6372 19.4326 11.9707 22.3166 11.8329C25.3 11.6645 34.2445 11.6645 37.2279 11.8329C40.1231 11.9786 42.6874 12.6406 44.7965 14.753C46.9055 16.8654 47.5788 19.432 47.7166 22.3272C47.8849 25.3005 47.8849 34.2382 47.7166 37.225Z"/>
</mask>
<path d="M29.7688 23.7438C28.5772 23.7443 27.4125 24.098 26.4219 24.7604C25.4313 25.4228 24.6593 26.364 24.2036 27.465C23.7479 28.5661 23.6289 29.7775 23.8616 30.9462C24.0944 32.1149 24.6684 33.1884 25.5112 34.0308C26.354 34.8733 27.4276 35.4469 28.5964 35.6792C29.7652 35.9115 30.9766 35.7921 32.0775 35.336C33.1784 34.8798 34.1193 34.1075 34.7813 33.1167C35.4433 32.1259 35.7966 30.961 35.7966 29.7693C35.7954 28.1712 35.1599 26.639 34.0297 25.5092C32.8994 24.3794 31.3669 23.7444 29.7688 23.7438ZM43.8566 19.1123C43.5499 18.3349 43.0867 17.6289 42.4957 17.0379C41.9048 16.447 41.1987 15.9838 40.4214 15.677C38.0491 14.7406 32.4009 14.9507 29.7688 14.9507C27.1368 14.9507 21.4942 14.7327 19.1152 15.677C18.3378 15.9838 17.6318 16.447 17.0408 17.0379C16.4499 17.6289 15.9867 18.3349 15.6799 19.1123C14.7446 21.4845 14.9536 27.1384 14.9536 29.7682C14.9536 32.398 14.7446 38.0451 15.6845 40.4253C15.9912 41.2026 16.4544 41.9087 17.0453 42.4996C17.6363 43.0905 18.3423 43.5537 19.1197 43.8605C21.4919 44.797 27.1402 44.5869 29.7734 44.5869C32.4066 44.5869 38.0469 44.8049 40.4259 43.8605C41.2033 43.5537 41.9093 43.0905 42.5002 42.4996C43.0912 41.9087 43.5544 41.2026 43.8611 40.4253C44.8044 38.053 44.5875 32.3991 44.5875 29.7693C44.5875 27.1395 44.8044 21.4936 43.8611 19.1134L43.8566 19.1123ZM29.7688 39.0324C27.9368 39.0324 26.1459 38.4891 24.6226 37.4713C23.0993 36.4535 21.912 35.0068 21.2109 33.3142C20.5098 31.6215 20.3263 29.7591 20.6838 27.9622C21.0412 26.1653 21.9234 24.5148 23.2189 23.2194C24.5143 21.9239 26.1648 21.0417 27.9617 20.6842C29.7586 20.3268 31.6211 20.5103 33.3137 21.2114C35.0063 21.9125 36.453 23.0997 37.4708 24.623C38.4886 26.1463 39.0319 27.9373 39.0319 29.7693C39.0334 30.9862 38.7948 32.1914 38.3298 33.3159C37.8648 34.4404 37.1826 35.4622 36.3221 36.3226C35.4617 37.1831 34.4399 37.8653 33.3154 38.3303C32.1909 38.7953 30.9857 39.0339 29.7688 39.0324ZM39.4137 22.2798C38.9861 22.28 38.5679 22.1534 38.2122 21.916C37.8565 21.6785 37.5792 21.3409 37.4154 20.9459C37.2516 20.5508 37.2086 20.116 37.2919 19.6965C37.3752 19.2771 37.581 18.8917 37.8833 18.5892C38.1857 18.2867 38.5709 18.0807 38.9904 17.9972C39.4098 17.9136 39.8446 17.9564 40.2398 18.12C40.6349 18.2836 40.9726 18.5607 41.2103 18.9163C41.4479 19.2719 41.5747 19.69 41.5747 20.1177C41.5759 20.4017 41.521 20.6831 41.4132 20.9459C41.3054 21.2086 41.1467 21.4475 40.9464 21.6488C40.746 21.8501 40.5079 22.0098 40.2457 22.1189C39.9834 22.228 39.7023 22.2842 39.4183 22.2843L39.4137 22.2798ZM49.6506 4.46533H9.88713C8.44905 4.46533 7.06987 5.03661 6.05299 6.05348C5.03612 7.07036 4.46484 8.44954 4.46484 9.88762L4.46484 49.651C4.46484 51.0891 5.03612 52.4683 6.05299 53.4852C7.06987 54.5021 8.44905 55.0733 9.88713 55.0733H49.6506C51.0886 55.0733 52.4678 54.5021 53.4847 53.4852C54.5016 52.4683 55.0728 51.0891 55.0728 49.651V9.88762C55.0728 8.44954 54.5016 7.07036 53.4847 6.05348C52.4678 5.03661 51.0886 4.46533 49.6506 4.46533ZM47.7166 37.225C47.5709 40.1202 46.91 42.6857 44.7965 44.7936C42.6829 46.9015 40.1198 47.5759 37.2279 47.7137C34.2445 47.882 25.3 47.882 22.3166 47.7137C19.4213 47.568 16.8649 46.906 14.748 44.7936C12.631 42.6811 11.9657 40.1146 11.8279 37.225C11.6595 34.2405 11.6595 25.2948 11.8279 22.3137C11.9736 19.4184 12.6265 16.853 14.748 14.7451C16.8695 12.6372 19.4326 11.9707 22.3166 11.8329C25.3 11.6645 34.2445 11.6645 37.2279 11.8329C40.1231 11.9786 42.6874 12.6406 44.7965 14.753C46.9055 16.8654 47.5788 19.432 47.7166 22.3272C47.8849 25.3005 47.8849 34.2382 47.7166 37.225Z" fill="black"/>
<path d="M35.7966 29.7693H41.7966L41.7966 29.7648L35.7966 29.7693ZM43.8566 19.1123L38.2754 21.3146L39.4082 24.1854L42.4024 24.9334L43.8566 19.1123ZM40.4214 15.677L38.2183 21.2579L38.2191 21.2582L40.4214 15.677ZM19.1152 15.677L21.3175 21.2583L21.3289 21.2537L19.1152 15.677ZM15.6799 19.1123L10.0987 16.91L10.0981 16.9115L15.6799 19.1123ZM15.6845 40.4253L21.2657 38.2229L21.2651 38.2216L15.6845 40.4253ZM19.1197 43.8605L21.3228 38.2796L21.322 38.2793L19.1197 43.8605ZM40.4259 43.8605L38.2236 38.2793L38.2122 38.2838L40.4259 43.8605ZM43.8611 40.4253L38.2857 38.2084L38.2828 38.2156L38.2799 38.2229L43.8611 40.4253ZM43.8611 19.1134L49.4391 16.9029L48.3041 14.0389L45.3153 13.2923L43.8611 19.1134ZM39.0319 29.7693H33.0319L33.0319 29.7767L39.0319 29.7693ZM36.3221 36.3226L32.0795 32.08L36.3221 36.3226ZM39.4137 22.2798L43.6564 18.0372L41.8977 16.2785L39.4106 16.2798L39.4137 22.2798ZM41.5747 20.1177L35.5747 20.1177V20.1302L35.5748 20.1428L41.5747 20.1177ZM39.4183 22.2843L35.1756 26.527L36.9342 28.2856L39.4213 28.2843L39.4183 22.2843ZM9.88713 4.46533V-1.53467V4.46533ZM4.46484 9.88762H-1.53516H4.46484ZM4.46484 49.651H-1.53516H4.46484ZM9.88713 55.0733V61.0733V55.0733ZM49.6506 55.0733V61.0733V55.0733ZM55.0728 9.88762H61.0728H55.0728ZM47.7166 37.225L41.7261 36.8874L41.7251 36.9054L41.7242 36.9234L47.7166 37.225ZM37.2279 47.7137L36.9423 41.7205L36.9161 41.7218L36.8899 41.7232L37.2279 47.7137ZM22.3166 47.7137L22.6546 41.7232L22.6364 41.7222L22.6182 41.7213L22.3166 47.7137ZM11.8279 37.225L17.821 36.9391L17.8198 36.9131L17.8183 36.8871L11.8279 37.225ZM11.8279 22.3137L17.8183 22.6519L17.8193 22.6336L17.8203 22.6153L11.8279 22.3137ZM22.3166 11.8329L22.603 17.826L22.6288 17.8248L22.6546 17.8233L22.3166 11.8329ZM37.2279 11.8329L36.8899 17.8233L36.9081 17.8244L36.9263 17.8253L37.2279 11.8329ZM47.7166 22.3272L41.7234 22.6125L41.7247 22.6395L41.7262 22.6664L47.7166 22.3272ZM29.7666 17.7438C27.3884 17.7447 25.0638 18.4508 23.0868 19.7727L29.7569 29.7481C29.7611 29.7453 29.766 29.7438 29.7711 29.7438L29.7666 17.7438ZM23.0868 19.7727C21.1098 21.0946 19.5692 22.973 18.6597 25.1705L29.7475 29.7596C29.7495 29.7549 29.7527 29.7509 29.7569 29.7481L23.0868 19.7727ZM18.6597 25.1705C17.7502 27.3679 17.5127 29.7857 17.9772 32.1182L29.7461 29.7743C29.7451 29.7694 29.7456 29.7642 29.7475 29.7596L18.6597 25.1705ZM17.9772 32.1182C18.4417 34.4506 19.5874 36.5929 21.2694 38.2743L29.7531 29.7874C29.7495 29.7838 29.7471 29.7793 29.7461 29.7743L17.9772 32.1182ZM21.2694 38.2743C22.9513 39.9556 25.0941 41.1005 27.4267 41.5641L29.7661 29.7944C29.7612 29.7934 29.7566 29.7909 29.7531 29.7874L21.2694 38.2743ZM27.4267 41.5641C29.7593 42.0278 32.177 41.7893 34.3741 40.879L29.7809 29.7929C29.7762 29.7948 29.7711 29.7953 29.7661 29.7944L27.4267 41.5641ZM34.3741 40.879C36.5712 39.9687 38.4491 38.4274 39.7703 36.4499L29.7923 29.7835C29.7895 29.7877 29.7855 29.791 29.7809 29.7929L34.3741 40.879ZM39.7703 36.4499C41.0914 34.4724 41.7966 32.1476 41.7966 29.7693H29.7966C29.7966 29.7744 29.7951 29.7793 29.7923 29.7835L39.7703 36.4499ZM41.7966 29.7648C41.7942 26.5766 40.5263 23.5197 38.2715 21.2657L29.7878 29.7526C29.7934 29.7582 29.7966 29.7659 29.7966 29.7738L41.7966 29.7648ZM38.2715 21.2657C36.0167 19.0117 32.9593 17.745 29.7711 17.7438L29.7666 29.7438C29.7746 29.7438 29.7822 29.747 29.7878 29.7526L38.2715 21.2657ZM49.4378 16.91C48.8294 15.368 47.9105 13.9675 46.7384 12.7953L38.2531 21.2806C38.2628 21.2903 38.2704 21.3018 38.2754 21.3146L49.4378 16.91ZM46.7384 12.7953C45.5662 11.6231 44.1657 10.7043 42.6237 10.0958L38.2191 21.2582C38.2318 21.2633 38.2434 21.2709 38.2531 21.2806L46.7384 12.7953ZM42.6245 10.0962C40.3292 9.19005 37.3052 9.02658 35.3825 8.96569C33.2257 8.89738 30.8643 8.95068 29.7688 8.95068V20.9507C31.3054 20.9507 33.0842 20.8989 35.0026 20.9597C35.9249 20.9889 36.7357 21.0421 37.3888 21.123C38.1191 21.2134 38.3275 21.3011 38.2183 21.2579L42.6245 10.0962ZM29.7688 8.95068C28.6841 8.95068 26.3123 8.89549 24.1601 8.96263C22.2366 9.02263 19.2063 9.1854 16.9015 10.1004L21.3289 21.2537C21.2184 21.2976 21.4249 21.2098 22.1529 21.1194C22.8041 21.0385 23.613 20.9855 24.5342 20.9568C26.456 20.8968 28.2215 20.9507 29.7688 20.9507V8.95068ZM16.9129 10.0958C15.3709 10.7043 13.9704 11.6231 12.7982 12.7953L21.2835 21.2806C21.2932 21.2709 21.3047 21.2633 21.3175 21.2582L16.9129 10.0958ZM12.7982 12.7953C11.626 13.9675 10.7072 15.368 10.0987 16.91L21.2611 21.3146C21.2662 21.3018 21.2738 21.2903 21.2835 21.2806L12.7982 12.7953ZM10.0981 16.9115C9.19358 19.2057 9.03003 22.2301 8.96902 24.1534C8.90055 26.3118 8.95358 28.6723 8.95358 29.7682H20.9536C20.9536 28.2343 20.9021 26.4529 20.963 24.5339C20.9923 23.6108 21.0455 22.799 21.1264 22.145C21.2169 21.4135 21.3046 21.2043 21.2617 21.3131L10.0981 16.9115ZM8.95358 29.7682C8.95358 30.8644 8.90053 33.2232 8.96964 35.3823C9.03129 37.3082 9.19656 40.3314 10.1038 42.6289L21.2651 38.2216C21.3068 38.327 21.2187 38.1155 21.1279 37.3853C21.0466 36.7315 20.993 35.9205 20.9635 34.9984C20.9021 33.0814 20.9536 31.3018 20.9536 29.7682H8.95358ZM10.1033 42.6276C10.7117 44.1695 11.6305 45.5701 12.8027 46.7423L21.288 38.257C21.2783 38.2473 21.2707 38.2357 21.2657 38.2229L10.1033 42.6276ZM12.8027 46.7423C13.9749 47.9144 15.3754 48.8332 16.9174 49.4417L21.322 38.2793C21.3092 38.2743 21.2977 38.2667 21.288 38.257L12.8027 46.7423ZM16.9166 49.4414C19.2119 50.3475 22.2359 50.511 24.1588 50.5718C26.3157 50.6402 28.6773 50.5869 29.7734 50.5869V38.5869C28.2362 38.5869 26.4571 38.6386 24.5386 38.5779C23.6162 38.5486 22.8054 38.4954 22.1523 38.4146C21.4219 38.3241 21.2135 38.2365 21.3228 38.2796L16.9166 49.4414ZM29.7734 50.5869C30.8586 50.5869 33.2302 50.642 35.3821 50.5749C37.3054 50.5149 40.3348 50.3521 42.6396 49.4372L38.2122 38.2838C38.3225 38.24 38.1161 38.3278 37.3884 38.4182C36.7374 38.499 35.9288 38.552 35.0078 38.5807C33.0865 38.6407 31.3213 38.5869 29.7734 38.5869V50.5869ZM42.6282 49.4417C44.1702 48.8332 45.5707 47.9144 46.7429 46.7423L38.2576 38.257C38.2479 38.2667 38.2363 38.2743 38.2236 38.2793L42.6282 49.4417ZM46.7429 46.7423C47.9151 45.5701 48.8339 44.1695 49.4423 42.6276L38.2799 38.2229C38.2749 38.2357 38.2673 38.2473 38.2576 38.257L46.7429 46.7423ZM49.4366 42.6421C50.3527 40.3382 50.5151 37.3032 50.5751 35.3812C50.6424 33.2268 50.5875 30.8546 50.5875 29.7693H38.5875C38.5875 31.3138 38.641 33.0835 38.581 35.0065C38.5522 35.9289 38.4991 36.7386 38.4183 37.3901C38.3277 38.1195 38.2401 38.3231 38.2857 38.2084L49.4366 42.6421ZM50.5875 29.7693C50.5875 28.6842 50.6424 26.3138 50.5751 24.1603C50.515 22.236 50.352 19.2066 49.4391 16.9029L38.2832 21.3239C38.2399 21.2147 38.3278 21.4226 38.4182 22.1516C38.4992 22.8037 38.5522 23.6135 38.581 24.5352C38.641 26.4571 38.5875 28.2247 38.5875 29.7693H50.5875ZM45.3153 13.2923L45.3108 13.2912L42.4024 24.9334L42.407 24.9345L45.3153 13.2923ZM29.7688 33.0324C29.1235 33.0324 28.4926 32.841 27.956 32.4825L21.2891 42.4601C23.7991 44.1372 26.7501 45.0324 29.7688 45.0324V33.0324ZM27.956 32.4825C27.4194 32.1239 27.0011 31.6143 26.7542 31.0181L15.6676 35.6103C16.8228 38.3992 18.7791 40.783 21.2891 42.4601L27.956 32.4825ZM26.7542 31.0181C26.5072 30.4218 26.4426 29.7657 26.5685 29.1327L14.799 26.7917C14.2101 29.7524 14.5124 32.8213 15.6676 35.6103L26.7542 31.0181ZM26.5685 29.1327C26.6944 28.4998 27.0052 27.9183 27.4615 27.462L18.9762 18.9767C16.8416 21.1113 15.388 23.8309 14.799 26.7917L26.5685 29.1327ZM27.4615 27.462C27.9179 27.0056 28.4993 26.6949 29.1322 26.569L26.7912 14.7995C23.8304 15.3885 21.1108 16.8421 18.9762 18.9767L27.4615 27.462ZM29.1322 26.569C29.7652 26.4431 30.4213 26.5077 31.0176 26.7546L35.6098 15.6681C32.8208 14.5129 29.7519 14.2106 26.7912 14.7995L29.1322 26.569ZM31.0176 26.7546C31.6138 27.0016 32.1234 27.4199 32.482 27.9565L42.4596 21.2896C40.7825 18.7796 38.3987 16.8233 35.6098 15.6681L31.0176 26.7546ZM32.482 27.9565C32.8405 28.4931 33.0319 29.124 33.0319 29.7693H45.0319C45.0319 26.7506 44.1367 23.7996 42.4596 21.2896L32.482 27.9565ZM33.0319 29.7767C33.0324 30.2044 32.9486 30.628 32.7852 31.0232L43.8745 35.6086C44.641 33.7548 45.0344 31.768 45.0319 29.762L33.0319 29.7767ZM32.7852 31.0232C32.6217 31.4184 32.3819 31.7776 32.0795 32.08L40.5648 40.5653C41.9833 39.1468 43.108 37.4624 43.8745 35.6086L32.7852 31.0232ZM32.0795 32.08C31.7771 32.3824 31.418 32.6222 31.0227 32.7856L35.6081 43.875C37.4619 43.1085 39.1463 41.9838 40.5648 40.5653L32.0795 32.08ZM31.0227 32.7856C30.6275 32.9491 30.2039 33.0329 29.7762 33.0324L29.7615 45.0324C31.7675 45.0348 33.7543 44.6415 35.6081 43.875L31.0227 32.7856ZM39.4106 16.2798C40.1697 16.2794 40.9119 16.5042 41.5433 16.9256L34.8811 26.9063C36.2239 27.8027 37.8024 28.2806 39.4169 28.2798L39.4106 16.2798ZM41.5433 16.9256C42.1747 17.3471 42.667 17.9464 42.9578 18.6476L31.873 23.2441C32.4914 24.7355 33.5382 26.0099 34.8811 26.9063L41.5433 16.9256ZM42.9578 18.6476C43.2485 19.3488 43.3248 20.1206 43.177 20.8652L31.4068 18.5279C31.0923 20.1115 31.2546 21.7528 31.873 23.2441L42.9578 18.6476ZM43.177 20.8652C43.0291 21.6097 42.6638 22.2938 42.1271 22.8307L33.6396 14.3477C32.4983 15.4896 31.7212 16.9444 31.4068 18.5279L43.177 20.8652ZM42.1271 22.8307C41.5904 23.3677 40.9066 23.7334 40.1621 23.8816L37.8187 12.1127C36.2353 12.428 34.7809 13.2057 33.6396 14.3477L42.1271 22.8307ZM40.1621 23.8816C39.4175 24.0299 38.6458 23.954 37.9444 23.6636L42.5351 12.5764C41.0435 11.9588 39.4021 11.7974 37.8187 12.1127L40.1621 23.8816ZM37.9444 23.6636C37.243 23.3732 36.6435 22.8812 36.2217 22.2501L46.1989 15.5826C45.3018 14.2402 44.0268 13.1941 42.5351 12.5764L37.9444 23.6636ZM36.2217 22.2501C35.7999 21.6189 35.5747 20.8768 35.5747 20.1177L47.5747 20.1177C47.5747 18.5031 47.0959 16.9249 46.1989 15.5826L36.2217 22.2501ZM35.5748 20.1428C35.5727 19.637 35.6704 19.1358 35.8625 18.6679L46.964 23.2238C47.3716 22.2304 47.5792 21.1663 47.5747 20.0925L35.5748 20.1428ZM35.8625 18.6679C36.0545 18.2 36.337 17.7746 36.6938 17.4161L45.199 25.8814C45.9565 25.1204 46.5563 24.2172 46.964 23.2238L35.8625 18.6679ZM36.6938 17.4161C37.0506 17.0576 37.4746 16.7731 37.9416 16.5789L42.5497 27.6589C43.5412 27.2465 44.4415 26.6425 45.199 25.8814L36.6938 17.4161ZM37.9416 16.5789C38.4086 16.3847 38.9094 16.2846 39.4152 16.2843L39.4213 28.2843C40.4952 28.2838 41.5583 28.0712 42.5497 27.6589L37.9416 16.5789ZM43.6609 18.0417L43.6564 18.0372L35.1711 26.5224L35.1756 26.527L43.6609 18.0417ZM49.6506 -1.53467H9.88713V10.4653H49.6506V-1.53467ZM9.88713 -1.53467C6.85775 -1.53467 3.95245 -0.331252 1.81035 1.81084L10.2956 10.2961C10.1873 10.4045 10.0403 10.4653 9.88713 10.4653V-1.53467ZM1.81035 1.81084C-0.33174 3.95294 -1.53516 6.85824 -1.53516 9.88762H10.4648C10.4648 10.0408 10.404 10.1878 10.2956 10.2961L1.81035 1.81084ZM-1.53516 9.88762V49.651H10.4648V9.88762H-1.53516ZM-1.53516 49.651C-1.53516 52.6804 -0.331741 55.5857 1.81035 57.7278L10.2956 49.2425C10.404 49.3509 10.4648 49.4978 10.4648 49.651H-1.53516ZM1.81035 57.7278C3.95245 59.8699 6.85775 61.0733 9.88713 61.0733V49.0733C10.0403 49.0733 10.1873 49.1342 10.2956 49.2425L1.81035 57.7278ZM9.88713 61.0733H49.6506V49.0733H9.88713V61.0733ZM49.6506 61.0733C52.6799 61.0733 55.5852 59.8699 57.7273 57.7278L49.2421 49.2425C49.3504 49.1342 49.4973 49.0733 49.6506 49.0733V61.0733ZM57.7273 57.7278C59.8694 55.5857 61.0728 52.6804 61.0728 49.651H49.0728C49.0728 49.4978 49.1337 49.3509 49.2421 49.2425L57.7273 57.7278ZM61.0728 49.651V9.88762H49.0728V49.651H61.0728ZM61.0728 9.88762C61.0728 6.85824 59.8694 3.95294 57.7273 1.81084L49.2421 10.2961C49.1337 10.1878 49.0728 10.0408 49.0728 9.88762H61.0728ZM57.7273 1.81084C55.5852 -0.331252 52.6799 -1.53467 49.6506 -1.53467V10.4653C49.4973 10.4653 49.3504 10.4045 49.2421 10.2961L57.7273 1.81084ZM41.7242 36.9234C41.6159 39.0743 41.1889 39.9175 40.5595 40.5453L49.0334 49.0419C52.6312 45.4538 53.5258 41.1662 53.709 37.5266L41.7242 36.9234ZM40.5595 40.5453C39.9111 41.192 39.0494 41.6201 36.9423 41.7205L37.5135 53.7069C41.1901 53.5317 45.4548 52.611 49.0334 49.0419L40.5595 40.5453ZM36.8899 41.7232C34.1317 41.8788 25.4128 41.8788 22.6546 41.7232L21.9786 53.7042C25.1871 53.8852 34.3573 53.8852 37.5658 53.7042L36.8899 41.7232ZM22.6182 41.7213C20.4787 41.6136 19.6308 41.1898 18.9861 40.5464L10.5099 49.0408C14.0991 52.6223 18.3639 53.5224 22.015 53.7061L22.6182 41.7213ZM18.9861 40.5464C18.348 39.9096 17.9222 39.0609 17.821 36.9391L5.83467 37.5108C6.00911 41.1683 6.9141 45.4526 10.5099 49.0408L18.9861 40.5464ZM17.8183 36.8871C17.6627 34.1275 17.6627 25.4076 17.8183 22.6519L5.8374 21.9755C5.65635 25.182 5.65637 34.3534 5.83737 37.5628L17.8183 36.8871ZM17.8203 22.6153C17.9292 20.4514 18.3533 19.621 18.977 19.0013L10.519 10.4889C6.89971 14.085 6.01798 18.3854 5.83544 22.0121L17.8203 22.6153ZM18.977 19.0013C19.6313 18.3511 20.4944 17.9268 22.603 17.826L22.0302 5.8397C18.3708 6.01457 14.1076 6.92319 10.519 10.4889L18.977 19.0013ZM22.6546 17.8233C25.4128 17.6677 34.1317 17.6677 36.8899 17.8233L37.5658 5.84239C34.3573 5.66137 25.1871 5.66137 21.9786 5.84239L22.6546 17.8233ZM36.9263 17.8253C39.0741 17.9334 39.9196 18.3604 40.5504 18.9922L49.0425 10.5138C45.4553 6.92076 41.1722 6.02379 37.5295 5.84045L36.9263 17.8253ZM40.5504 18.9922C41.1936 19.6364 41.6227 20.4969 41.7234 22.6125L53.7098 22.042C53.5349 18.3671 52.6175 14.0945 49.0425 10.5138L40.5504 18.9922ZM41.7262 22.6664C41.8817 25.4132 41.8818 34.125 41.7261 36.8874L53.7071 37.5626C53.8881 34.3514 53.8881 25.1878 53.707 21.9881L41.7262 22.6664Z" fill="#FBFBFB" mask="url(#path-2-inside-1)"/>
</mask>
<g mask="url(#mask0)">
<circle cx="29.7684" cy="29.7694" r="26.7694" fill="#FBFBFB" stroke="#FBFBFB" stroke-width="6"/>
</g>
</svg>
