<svg width="1500" height="537" viewBox="0 0 1500 537" fill="none" xmlns="http://www.w3.org/2000/svg">
<mask id="mask0" mask-type="alpha" maskUnits="userSpaceOnUse" x="-347" y="-405" width="2133" height="917">
<path d="M1186.81 234.671C1222.02 239.369 1281 211.265 1274.26 138.556L814.602 115.841C824.946 169.527 860.877 185.581 877.55 186.897C874.682 195.125 870.259 214.896 875.511 228.154C888.081 260.68 918.919 266.242 932.767 264.957C937.495 288.823 957.838 337.389 1001.39 340.723C1055.83 344.89 1093.75 324.608 1109.56 273.693C1157.08 298.198 1185.42 262.672 1186.81 234.671Z" fill="url(#paint0_linear)"/>
<path d="M911.16 213.444C872.494 263.593 762.56 302.076 679.815 201.587L1233.05 -404.221C1287.35 -323.291 1262.03 -257.864 1242.58 -235.267C1256.54 -228.454 1286.96 -208.984 1296.96 -185.611C1321.88 -128.665 1289.84 -82.9111 1270.7 -67.1526C1294.68 -31.0114 1329.9 55.9944 1278.97 114.888C1215.3 188.504 1141.84 210.445 1057.92 165.852C1028.53 256.529 948.063 247.144 911.16 213.444Z" fill="url(#paint1_linear)"/>
<path d="M346.376 181.892C293.253 182.286 268.817 138.815 263.24 117.031C246.507 51.6695 306.856 14.8282 335.39 16.5398L755.643 33.8839C784.737 35.0847 827.646 54.638 827.398 99.892C827.149 145.146 787.557 162.911 774.627 162.377C780.759 170.713 782.859 198.282 772.628 210.792C755.466 234.333 721.456 234.546 704.275 219.288C691.828 246.256 644.488 255.618 617.742 236.732C607.906 286.763 572.675 308.702 556.289 313.418C507.133 327.555 455.809 315.727 423.73 269.146C385.698 280.509 359.837 261.121 351.66 250.006C342.856 241.021 329.473 214.819 346.376 181.892Z" fill="url(#paint2_linear)"/>
<path d="M315.268 275.466C374.521 248.282 376.877 179.828 370.647 148.999C405.075 117.647 390.707 70.0264 383.801 53.017C376.895 36.0077 360.341 18.4657 334.049 20.9523C315.581 -28.2012 260.992 -34.278 234.363 -2.0544C192.435 -85.7593 128.206 -43.9687 108.419 -26.6827C104.565 -37.3974 91.7097 -55.6103 60.2699 -49.9072C29.8413 -40.7351 19.4055 -21.6523 16.5602 -12.7661C3.89041 -26.4471 -32.9154 -51.7293 -78.7806 -43.4094C-124.646 -35.0895 -146.528 0.83855 -151.735 17.7626C-160.819 13.3229 -190.594 14.1587 -204.165 34.1216C-236.736 82.0327 -218.099 136.33 -204.71 157.49C-208.223 162.692 -213.147 180.478 -204.736 209.998C-186.237 261.429 -149.66 260.881 -133.683 254.178C-131.976 270.609 -124.191 308.613 -106.705 329.184C-72.3764 366.788 -29.3152 348.627 -12.0758 334.846C23.8378 385.397 69.8135 407.173 122.321 401.771C215.334 392.204 238.951 307.57 239.133 266.449C253.333 274.526 288.44 287.637 315.268 275.466Z" fill="url(#paint3_linear)"/>
<path d="M-11.4742 410.951C31.1546 408.016 45.0829 375.11 46.7185 359.024C74.3116 349.747 73.8193 324.075 72.5148 314.597C71.2104 305.119 63.8654 293.705 46.6886 290.347C43.8663 263.216 10.2441 250.774 -12.5466 261.83C-24.0182 213.808 -72.4642 222.987 -88.1903 227.962C-88.6963 222.077 -93.5665 210.98 -114.602 208.293C-135.624 207.47 -145.727 214.944 -149.151 218.774C-154.726 209.915 -173.548 191.215 -204.235 187.296C-234.922 183.376 -255.365 197.06 -261.751 204.391C-266.723 200.652 -285.816 195.886 -298.074 203.243C-327.492 220.902 -325.497 250.565 -320.822 263.19C-324.001 265.111 -330.363 272.912 -330.373 288.74C-327.945 316.984 -304.577 323.073 -293.197 322.587C-295.095 330.88 -297.043 350.728 -289.656 363.778C-274.647 388.044 -243.957 386.687 -230.488 382.975C-216.822 413.818 -191.529 432.403 -157.147 438.898C-96.2421 450.402 -65.8507 413.316 -58.2682 393.335C-50.7018 399.733 -30.7499 412.213 -11.4742 410.951Z" fill="url(#paint4_linear)"/>
<path d="M1027.5 238.528C1066.06 221.024 1067.57 185.348 1063.5 169.698C1085.9 151.451 1076.53 127.548 1072.03 119.112C1067.53 110.676 1056.75 102.515 1039.64 105.31C1027.61 80.8461 992.082 80.8139 974.763 99.0677C947.45 58.0068 905.665 83.3788 892.793 93.4856C890.282 88.143 881.91 79.4223 861.451 84.1819C841.652 90.6848 834.867 101.19 833.018 105.966C824.768 99.5876 800.807 88.5667 770.962 95.5102C741.116 102.454 726.888 122.359 723.504 131.444C717.591 129.659 698.214 131.796 689.389 142.937C668.208 169.676 680.354 196.8 689.075 207.021C686.79 209.923 683.591 219.439 689.074 234.284C701.13 259.929 724.934 257.552 735.329 253.158C736.445 261.591 741.524 280.877 752.91 290.558C775.263 308.118 803.28 296.225 814.495 288.084C837.883 312.275 867.81 320.951 901.98 315.143C962.508 304.854 977.85 259.562 977.955 238.201C987.199 241.583 1010.05 246.382 1027.5 238.528Z" fill="url(#paint5_linear)"/>
<path d="M1218.69 302.358C1161.75 272.254 1162.91 215.739 1170.6 191.245C1138.31 160.98 1154.86 123.767 1162.52 110.709C1170.18 97.6498 1187.36 85.4211 1213.11 90.9167C1233.78 52.9841 1287.81 55.1656 1312.38 85.1215C1357.89 21.9015 1418.98 64.6518 1437.57 81.4442C1441.91 73.1529 1455.48 59.8874 1486.14 68.7001C1515.62 80.2283 1524.92 97.2674 1527.27 104.937C1540.43 95.3686 1577.93 79.4451 1622.65 92.3013C1667.36 105.157 1687.08 137.531 1691.34 152.111C1700.51 149.659 1729.77 154.257 1742.11 172.431C1771.74 216.048 1750.64 258.181 1736.39 273.796C1739.59 278.529 1743.53 293.78 1733.76 316.912C1712.95 356.711 1676.98 351.456 1661.59 343.854C1659.08 357.12 1649.49 387.302 1631.24 401.895C1595.55 428.261 1554.09 407.693 1537.83 394.113C1499.92 430.902 1453.57 442.742 1402.17 431.409C1311.12 411.335 1292.17 338.743 1294.07 304.956C1279.69 309.722 1244.47 315.875 1218.69 302.358Z" fill="url(#paint6_linear)"/>
<rect width="1762.86" height="554.277" transform="matrix(-0.999149 -0.0412358 -0.0412358 0.999149 1633.76 -311.739)" fill="#C4C4C4"/>
</mask>
<g mask="url(#mask0)">
<rect width="1573.12" height="1245.91" transform="matrix(0.999149 0.0412357 0.0412357 -0.999149 -77.9658 663.398)" fill="url(#paint7_radial)"/>
</g>
<defs>
<linearGradient id="paint0_linear" x1="1071.96" y1="299.989" x2="1011.76" y2="-178.217" gradientUnits="userSpaceOnUse">
<stop stop-color="#0054A5"/>
<stop offset="1" stop-color="#FBFBFB"/>
</linearGradient>
<linearGradient id="paint1_linear" x1="1138.51" y1="151.932" x2="614.355" y2="-528.872" gradientUnits="userSpaceOnUse">
<stop stop-color="#0054A5"/>
<stop offset="1" stop-color="#FBFBFB"/>
</linearGradient>
<linearGradient id="paint2_linear" x1="553.506" y1="258.229" x2="466.464" y2="-195.561" gradientUnits="userSpaceOnUse">
<stop stop-color="#0054A5"/>
<stop offset="1" stop-color="#FBFBFB"/>
</linearGradient>
<linearGradient id="paint3_linear" x1="276.545" y1="344.824" x2="-140.55" y2="-484.235" gradientUnits="userSpaceOnUse">
<stop stop-color="#0054A5"/>
<stop offset="1" stop-color="white"/>
</linearGradient>
<linearGradient id="paint4_linear" x1="-48.7008" y1="437.978" x2="-95.8646" y2="-44.5864" gradientUnits="userSpaceOnUse">
<stop stop-color="#0054A5"/>
<stop offset="1" stop-color="white"/>
</linearGradient>
<linearGradient id="paint5_linear" x1="1002.33" y1="276.753" x2="789.292" y2="-158.546" gradientUnits="userSpaceOnUse">
<stop stop-color="#0054A5"/>
<stop offset="1" stop-color="white"/>
</linearGradient>
<linearGradient id="paint6_linear" x1="1387.22" y1="401.38" x2="1542.3" y2="-341.512" gradientUnits="userSpaceOnUse">
<stop stop-color="#0054A5"/>
<stop offset="1" stop-color="white"/>
</linearGradient>
<radialGradient id="paint7_radial" cx="0" cy="0" r="1" gradientUnits="userSpaceOnUse" gradientTransform="translate(786.56 -1663.41) rotate(90) scale(2832.67 3294.19)">
<stop offset="0.491789" stop-color="#0054A5"/>
<stop offset="0.688519" stop-color="#4A85BC"/>
<stop offset="0.80694" stop-color="#CDDDEB"/>
<stop offset="1" stop-color="white"/>
</radialGradient>
</defs>
</svg>
