<svg width="57" height="57" viewBox="0 0 57 57" fill="none" xmlns="http://www.w3.org/2000/svg">
<circle cx="28.5" cy="28.7695" r="25" stroke="#FBFBFB" stroke-width="6"/>
<path d="M25.5294 21.0081C26.4238 16.4561 30.4581 13.1677 35.1034 13.1677C37.2285 13.1677 39.199 13.8454 40.8039 14.9996C41.4964 14.7662 42.1667 14.4574 42.7958 14.087L45.8084 12.3132C41.4312 7.98334 35.4124 5.30957 28.77 5.30957C15.3896 5.30957 4.54004 16.1591 4.54004 29.5396C4.54004 42.92 15.3896 53.7696 28.77 53.7696C42.1505 53.7696 53 42.92 53 29.5396C53 25.2617 51.8911 21.2426 49.9449 17.7539L47.7223 21.0216C46.914 22.21 45.9541 23.3055 44.8669 24.2642C44.5915 34.3539 36.8184 45.9114 22.6615 45.9114C18.2411 45.9114 14.1327 44.6251 10.6746 42.4111L12.6235 36.9029C13.0433 36.9495 13.4538 36.9696 13.9212 36.9696C14.3544 36.9696 14.7811 36.944 15.1999 36.8942C14.2746 35.8769 13.5627 34.6622 13.135 33.3181L12.5484 31.4744C11.3051 29.795 10.632 27.7564 10.6355 25.6588M25.5294 21.0081L16.8246 19.7351C16.909 19.4513 17.0264 19.1869 17.1719 18.941L14.5898 17.4137L12.2612 19.3052C12.688 19.8306 13.1378 20.3351 13.6089 20.8175C13.6089 20.8175 13.6089 20.8175 13.6089 20.8175C13.63 20.8391 13.6512 20.8606 13.6723 20.8821C13.677 21.3396 13.7281 21.7937 13.824 22.2379L11.3111 20.8191L11.3083 20.8175L10.6782 20.4617M25.5294 21.0081C24.3643 20.7157 23.2322 20.2935 22.1549 19.7473C20.1323 18.7219 18.3481 17.2823 16.9183 15.5222L14.2013 12.1775L12.0076 15.8865C11.2019 17.2486 10.7364 18.8002 10.6782 20.4617M25.5294 21.0081L12.8537 26.9613M10.6355 25.6588C10.6355 25.6578 10.6355 25.6568 10.6355 25.6557L11.9605 25.6584C11.945 25.6312 11.9296 25.604 11.9143 25.5766C11.8851 25.5245 11.8564 25.472 11.8281 25.4192C11.0702 24.0045 10.6731 22.4245 10.672 20.8195L10.672 20.8175C10.672 20.6983 10.6741 20.5797 10.6782 20.4617M10.6355 25.6588V25.6617H11.9625C12.2247 26.1195 12.5229 26.554 12.8537 26.9613M10.6355 25.6588V25.5766V20.4376L10.6782 20.4617M12.8537 26.9613L12.1605 28.189C12.9132 28.614 13.7364 28.9417 14.6019 29.1547M12.8537 26.9613L14.6019 29.1547M14.6019 29.1547C14.606 29.1614 14.61 29.1681 14.6141 29.1748L14.6019 29.1547Z" fill="#FBFBFB" stroke="#FBFBFB" stroke-width="6"/>
</svg>
