<svg width="1500" height="449" viewBox="0 0 1500 449" fill="none" xmlns="http://www.w3.org/2000/svg">
<mask id="mask0" mask-type="alpha" maskUnits="userSpaceOnUse" x="-267" y="0" width="2022" height="876">
<path d="M1188.1 265.179C1221.83 262.088 1276.92 291.182 1267.64 360.188L828.829 363.755C840.794 313.015 875.658 299.133 891.594 298.535C889.185 290.583 885.748 271.573 891.273 259.149C904.528 228.655 934.126 224.569 947.268 226.337C952.711 203.786 974.002 158.316 1015.62 156.852C1067.65 155.023 1102.98 175.837 1116.04 224.965C1162.28 203.488 1187.89 238.449 1188.1 265.179Z" fill="url(#paint0_linear)"/>
<path d="M924.658 274.565C889.792 225.267 786.57 184.281 703.787 276.764L1207.03 875.675C1261.96 800.708 1240.4 737.379 1222.76 715.086C1236.33 709.144 1266.08 691.791 1276.52 669.917C1302.5 616.643 1273.77 571.794 1256.16 556.028C1280.42 522.539 1317.4 441.032 1271.2 382.922C1213.43 310.284 1144.31 286.492 1062.6 325.676C1038.17 238.132 961.141 243.909 924.658 274.565Z" fill="url(#paint1_linear)"/>
<path d="M385.344 282.418C334.748 279.954 309.759 320.408 303.589 340.943C285.077 402.555 341.124 440.027 368.376 439.518L769.436 439.518C797.202 439.518 838.851 422.577 840.393 379.453C841.936 336.33 804.915 317.848 792.574 317.848C798.745 310.147 801.83 283.965 792.574 271.644C777.149 248.542 744.756 247.002 727.788 260.863C716.99 234.681 672.256 223.9 646.033 240.842C638.629 192.789 605.927 170.503 590.502 165.366C544.225 149.965 494.864 159.215 462.471 202.332C426.684 190.011 401.283 207.465 393.056 217.733C384.315 225.947 370.535 250.384 385.344 282.418Z" fill="url(#paint2_linear)"/>
<path d="M359.386 192.046C414.768 220.274 414.321 285.583 407.174 314.709C438.74 345.933 423.18 390.736 415.932 406.67C408.684 422.603 392.223 438.665 367.271 435.262C347.744 481.365 295.497 485.008 271.395 453.261C228.159 531.359 168.611 489.019 150.439 471.772C146.346 481.829 133.382 498.675 103.654 492.005C75.0248 482.071 65.8329 463.48 63.4715 454.902C50.863 467.438 14.8037 490.077 -28.5654 480.348C-71.9344 470.618 -91.3688 435.528 -95.6648 419.2C-104.493 423.073 -132.828 421.106 -144.972 401.553C-174.118 354.627 -154.228 303.631 -140.64 283.998C-143.783 278.903 -147.775 261.765 -138.6 233.972C-118.954 185.701 -84.1281 187.661 -69.1707 194.675C-66.8985 179.088 -57.987 143.188 -40.5196 124.277C-6.33543 89.8007 33.9752 108.796 49.8575 122.603C86.0604 75.8547 130.718 56.9169 180.53 64.1271C268.768 76.8995 287.94 158.459 286.497 197.643C300.343 190.506 334.306 179.395 359.386 192.046Z" fill="url(#paint3_linear)"/>
<path d="M53.4224 50.1195C93.9199 54.5919 105.896 86.4892 106.821 101.879C132.745 111.802 131.266 136.241 129.651 145.22C128.036 154.198 120.589 164.783 104.093 167.307C100.337 193.044 67.8157 203.575 46.5375 192.146C33.7202 237.447 -12.0738 226.797 -26.8606 221.439C-27.5739 227.025 -32.6502 237.406 -52.7963 239.139C-72.8563 239.096 -82.1883 231.578 -85.2993 227.794C-90.9593 236.016 -109.627 253.091 -139.016 255.619C-168.406 258.146 -187.345 244.306 -193.14 237.07C-198.024 240.437 -216.401 244.227 -227.79 236.735C-255.123 218.755 -252.056 190.573 -247.105 178.73C-250.059 176.774 -255.813 169.092 -255.2 154.012C-251.776 127.199 -229.275 122.317 -218.452 123.228C-219.934 115.252 -221.009 96.2657 -213.458 84.1236C-198.205 61.5955 -169.019 64.095 -156.333 68.1608C-142.101 39.3144 -117.274 22.6021 -84.2627 17.7667C-25.7854 9.2012 1.71052 45.7286 8.14881 65.063C15.609 59.2649 35.108 48.1589 53.4224 50.1195Z" fill="url(#paint4_linear)"/>
<path d="M1036.49 255.241C1072.53 273.433 1072.56 307.481 1068.08 322.231C1088.7 340.496 1078.83 362.9 1074.21 370.76C1069.6 378.621 1059.01 385.972 1042.81 382.636C1030.39 405.47 996.538 404.103 980.756 386.032C953.12 424.077 914.309 398.262 902.443 388.127C899.84 393.118 891.521 401.097 872.217 395.758C853.61 388.785 847.559 378.51 845.985 373.886C837.875 379.639 814.614 389.196 786.453 381.408C758.292 373.619 745.519 354.096 742.652 345.307C736.949 346.776 718.572 343.978 710.602 333.017C691.474 306.71 704.113 281.345 712.823 271.951C710.76 269.096 708.087 259.905 713.895 245.977C726.388 222.019 748.973 225.22 758.703 229.815C760.098 221.824 765.695 203.65 776.923 194.875C798.91 179.024 825.135 191.456 835.499 199.653C858.732 177.525 887.585 170.437 919.91 177.313C977.172 189.495 990.007 233.249 989.267 253.603C998.207 250.746 1020.17 247.072 1036.49 255.241Z" fill="url(#paint5_linear)"/>
<path d="M1221.14 201.946C1165.71 228.388 1164.59 282.275 1170.96 305.914C1139 333.478 1153.31 369.581 1160.09 382.324C1166.88 395.066 1182.76 407.392 1207.51 403.168C1225.71 440.12 1277.27 440.166 1301.86 412.593C1342.73 474.612 1402.61 436.286 1420.99 421.019C1424.79 429.088 1437.2 442.26 1466.75 435.07C1495.29 425.246 1504.82 409.378 1507.36 402.163C1519.53 411.797 1554.63 428.442 1597.74 417.952C1640.84 407.462 1660.9 377.394 1665.53 363.672C1674.17 366.368 1702.23 363.138 1714.7 346.309C1744.64 305.92 1726.2 264.95 1713.24 249.513C1716.47 245.129 1720.82 230.755 1712.42 208.332C1694.16 169.597 1659.68 173.189 1644.73 179.827C1642.86 167.089 1634.91 137.958 1618.09 123.337C1585.13 96.8145 1544.82 114.78 1528.79 127.078C1494.12 90.5388 1450.43 77.4366 1401.02 86.2119C1313.48 101.757 1292.57 170.171 1293.06 202.435C1279.54 197.329 1246.24 190.082 1221.14 201.946Z" fill="url(#paint6_linear)"/>
<rect x="1592.44" y="803.323" width="1680.92" height="528.514" transform="rotate(-180 1592.44 803.323)" fill="#C4C4C4"/>
</mask>
<g mask="url(#mask0)">
<rect y="-193" width="1504" height="1188" fill="url(#paint7_radial)"/>
</g>
<mask id="mask1" mask-type="alpha" maskUnits="userSpaceOnUse" x="-271" y="115" width="2146" height="856">
<path d="M1253.45 574.242C1217.35 577.155 1200.16 551.768 1196.08 538.71C1190.77 548.061 1176.2 567.084 1160.31 568.366C1105.68 575.834 1090.04 523.039 1089.05 495.707C1072.3 498.334 1035.12 493.939 1020.38 455.35C1001.96 407.114 1036.03 356.554 1085.69 364.021C1106.75 282.766 1175.33 281.567 1206.98 291.124C1214.03 273.344 1238.23 236.968 1278.66 233.706C1340.75 228.695 1375.01 279.479 1384.38 305.497C1388.87 293.66 1408.69 269.111 1452.02 265.616C1518.57 261.776 1543.31 316.259 1547.37 343.981C1566.71 336.045 1609.21 331.341 1624.44 376.01C1643.48 431.847 1602.03 481.089 1562.9 468.947C1566.89 518.349 1524.36 554.291 1486.73 538.203C1493.29 596.959 1441.43 629.829 1403.34 608.045C1337.85 674.527 1256.82 616.043 1253.45 574.242Z" fill="url(#paint8_linear)"/>
<path d="M322.627 311.17C363.148 330.523 360.639 366.533 354.319 382.119C375.715 394.921 377.575 428.654 359.257 444.196C372.634 460.355 372.729 492.011 347.739 508.657C322.75 525.303 287.303 509.19 272.964 481.244C248.276 487.673 232.075 466.971 227.06 455.815C208.197 463.896 187.315 440.188 188.598 424.647C155.749 442.707 118.089 401.825 124.89 380.411C115.876 377.057 97.6559 353.922 114.722 325.4C140.45 285.751 177.084 301.555 186.451 319.391C196.46 306.013 209.323 309.633 214.584 320.935C238.451 294.443 261.761 309.07 270.433 319.696C279.266 312.749 302.07 301.318 322.627 311.17Z" fill="url(#paint9_linear)"/>
<path d="M248.35 396.89C269.051 334.24 322.003 331.224 345.892 337.548C360.587 303.989 409.412 295.027 435.46 318.847C456.534 296.355 502.658 290.35 531.552 323.69C560.447 357.03 543.529 411.683 505.451 437.761C519.398 472.555 492.224 500.006 476.893 509.383C492.167 535.379 461.48 570.211 438.59 571.22C471.001 615.754 418.391 678.222 385.918 672.277C382.698 686.038 352.355 716.882 307.618 697.292C245.058 667.138 261.306 610.813 285.568 593.855C264.213 581.745 267.105 562.325 282.605 552.562C239.568 522.683 256.569 485.995 270.449 471.386C258.687 459.8 237.799 428.679 248.35 396.89Z" fill="url(#paint10_linear)"/>
<path d="M262.997 270.993C218.5 230.359 174.102 253.075 157.466 269.513C130.697 249.46 87.0307 265.427 76.3622 296.983C49.2924 288.874 9.12788 305.939 0.348057 346.516C-8.43176 387.092 29.4575 423.08 71.9405 426.004C75.9592 460.653 110.18 469.861 126.789 470.133C125.844 498.326 166.18 511.811 185.243 501.754C178.546 553.016 248.914 578.35 272.699 558.141C281.394 567.696 319.69 578.132 347.426 541.108C384.992 487.112 346.91 449.457 319.69 447.319C331.711 427.424 320.785 413.155 303.869 412.652C325.679 368.147 295.654 346.669 277.915 341.493C282.366 326.574 285.613 291.588 262.997 270.993Z" fill="url(#paint11_linear)"/>
<path d="M1515.84 230.732C1425.56 182.704 1365.43 228.506 1346.64 257.41C1294.41 235.024 1232.25 270.626 1230.15 320.296C1183.09 315.686 1127.04 351.958 1132.22 414.474C1137.41 476.991 1214.94 519.944 1284.15 512.654C1306.97 562.888 1365.97 567.168 1392.62 563.028C1404.45 605.056 1475.24 613.999 1500.91 593.883C1514.48 671.663 1638.83 689.946 1667.24 653.499C1685.65 665.276 1751.73 670.26 1778.5 607.82C1812.92 517.546 1734.29 472.178 1689.82 476.457C1699.6 443.693 1675.4 425.541 1648.15 429.423C1661.91 357.522 1603.8 333.915 1573.03 331.1C1573.08 307.779 1561.7 255.058 1515.84 230.732Z" fill="url(#paint12_linear)"/>
<path d="M641.246 519.095C626.52 509.623 621.902 493.259 621.433 486.261C610.154 489.825 580.995 491.47 554.595 469.545C521.595 442.139 520.735 396.382 540.232 358.695C559.729 321.009 615.917 312.716 634.324 324.556C638.559 301.78 665.017 287.116 687.45 285.703C709.883 284.291 733.931 294.349 746.531 315.589C774.981 295.252 802.551 314.916 807.855 328.373C815.528 319.013 838.38 298.552 883.079 303.347C933.731 309.035 960.568 345.072 967.654 362.38C980.842 356.952 1044.37 354.538 1050.62 409.943C1056 457.705 1013.4 489.166 979.816 488.427C959.649 556.59 898.199 549.522 885.305 541.619C883.104 556.817 853.649 622.87 775.573 607.813C697.498 592.755 683.995 527.662 686.07 518.175C680.347 523.766 659.654 530.934 641.246 519.095Z" fill="url(#paint13_linear)"/>
<path d="M121.06 457.377C136.041 452.664 143.76 439.742 145.747 433.871C154.782 439.503 179.844 447.599 207.816 434.924C242.782 419.08 253.852 380.184 245.346 343.513C236.84 306.841 189.702 286.866 170.975 292.758C172.419 272.327 152.648 253.728 133.4 247.375C114.151 241.022 90.9076 244.098 75.1262 259.354C54.8982 235.451 26.4155 245.926 18.7535 256.206C14.1718 246.449 -1.14579 223.725 -41.2149 217.567C-86.6791 210.805 -118.215 235.437 -128.3 248.599C-138.578 240.936 -193.443 224.299 -211.39 270.202C-226.861 309.772 -196.8 346.425 -167.338 353.499C-165.121 416.363 -109.928 424.421 -96.8985 420.628C-98.4064 434.117 -87.6125 497.309 -16.1157 502.357C55.3812 507.405 81.8404 454.89 82.1699 446.308C85.901 452.398 102.333 463.269 121.06 457.377Z" fill="url(#paint14_linear)"/>
<path d="M66.1692 243.733C78.6746 249.581 83.1819 260.636 83.8723 265.433C92.9777 262.463 116.847 259.997 139.482 273.885C167.776 291.245 170.482 322.709 156.121 349.547C141.76 376.385 95.9882 384.663 80.3564 377.354C77.8751 393.228 56.7919 404.534 38.4345 406.532C20.077 408.531 -0.107514 402.706 -11.382 388.658C-33.8524 403.961 -57.349 391.683 -62.2926 382.661C-68.1837 389.456 -86.0526 404.588 -122.963 403.331C-164.801 401.731 -188.411 378.147 -194.986 366.555C-205.577 370.895 -257.63 375.462 -265.183 337.602C-271.694 304.965 -238.092 281.357 -210.482 280.329C-196.903 232.478 -146.139 234.535 -135.206 239.386C-134.063 228.822 -112.766 181.998 -48.0016 188.795C16.7626 195.591 30.6948 239.789 29.4054 246.416C33.8604 242.305 50.5374 236.424 66.1692 243.733Z" fill="url(#paint15_linear)"/>
<rect width="1499.46" height="583.021" transform="matrix(1 0 0 -1 2.00195 970.021)" fill="#C4C4C4"/>
</mask>
<g mask="url(#mask1)">
<rect width="1505" height="1070" transform="matrix(-1 8.74228e-08 8.74228e-08 1 1505 -329)" fill="url(#paint16_radial)"/>
</g>
<defs>
<linearGradient id="paint0_linear" x1="1081.26" y1="198.435" x2="1005.1" y2="651.659" gradientUnits="userSpaceOnUse">
<stop stop-color="#0054A5"/>
<stop offset="1" stop-color="#FBFBFB"/>
</linearGradient>
<linearGradient id="paint1_linear" x1="1138.84" y1="342.107" x2="612.702" y2="970.105" gradientUnits="userSpaceOnUse">
<stop stop-color="#0054A5"/>
<stop offset="1" stop-color="#FBFBFB"/>
</linearGradient>
<linearGradient id="paint2_linear" x1="585.68" y1="217.835" x2="484.912" y2="646.743" gradientUnits="userSpaceOnUse">
<stop stop-color="#0054A5"/>
<stop offset="1" stop-color="#FBFBFB"/>
</linearGradient>
<linearGradient id="paint3_linear" x1="325.222" y1="124.445" x2="-104.746" y2="897.897" gradientUnits="userSpaceOnUse">
<stop stop-color="#0054A5"/>
<stop offset="1" stop-color="white"/>
</linearGradient>
<linearGradient id="paint4_linear" x1="19.0191" y1="22.9066" x2="-44.8883" y2="480.796" gradientUnits="userSpaceOnUse">
<stop stop-color="#0054A5"/>
<stop offset="1" stop-color="white"/>
</linearGradient>
<linearGradient id="paint5_linear" x1="1014" y1="217.833" x2="793.927" y2="624.17" gradientUnits="userSpaceOnUse">
<stop stop-color="#0054A5"/>
<stop offset="1" stop-color="white"/>
</linearGradient>
<linearGradient id="paint6_linear" x1="1385.59" y1="114.233" x2="1504.13" y2="828.091" gradientUnits="userSpaceOnUse">
<stop stop-color="#0054A5"/>
<stop offset="1" stop-color="white"/>
</linearGradient>
<radialGradient id="paint7_radial" cx="0" cy="0" r="1" gradientUnits="userSpaceOnUse" gradientTransform="translate(752 -1779.1) rotate(90) scale(2701.01 3149.45)">
<stop offset="0.491789" stop-color="#0054A5"/>
<stop offset="0.688519" stop-color="#4A85BC"/>
<stop offset="0.80694" stop-color="#CDDDEB"/>
<stop offset="1" stop-color="white"/>
</radialGradient>
<linearGradient id="paint8_linear" x1="1352.01" y1="697.035" x2="1248.36" y2="185.918" gradientUnits="userSpaceOnUse">
<stop stop-color="#0054A5"/>
<stop offset="1" stop-color="white"/>
</linearGradient>
<linearGradient id="paint9_linear" x1="304.131" y1="299.667" x2="198.132" y2="477.408" gradientUnits="userSpaceOnUse">
<stop stop-color="#0054A5"/>
<stop offset="1" stop-color="white"/>
</linearGradient>
<linearGradient id="paint10_linear" x1="235.012" y1="425.979" x2="513.728" y2="547.547" gradientUnits="userSpaceOnUse">
<stop stop-color="#0054A5"/>
<stop offset="1" stop-color="white"/>
</linearGradient>
<linearGradient id="paint11_linear" x1="286.689" y1="288.09" x2="113.656" y2="518.347" gradientUnits="userSpaceOnUse">
<stop stop-color="#0054A5"/>
<stop offset="1" stop-color="white"/>
</linearGradient>
<linearGradient id="paint12_linear" x1="1561.76" y1="249.581" x2="1394.64" y2="638.125" gradientUnits="userSpaceOnUse">
<stop stop-color="#0054A5"/>
<stop offset="1" stop-color="white"/>
</linearGradient>
<linearGradient id="paint13_linear" x1="784.878" y1="609.77" x2="793.601" y2="178" gradientUnits="userSpaceOnUse">
<stop stop-color="#0054A5"/>
<stop offset="1" stop-color="white"/>
</linearGradient>
<linearGradient id="paint14_linear" x1="-24.6732" y1="501.894" x2="78.2481" y2="157.206" gradientUnits="userSpaceOnUse">
<stop stop-color="#0054A5"/>
<stop offset="1" stop-color="white"/>
</linearGradient>
<linearGradient id="paint15_linear" x1="-55.7272" y1="187.872" x2="-32.1947" y2="467.815" gradientUnits="userSpaceOnUse">
<stop stop-color="#0054A5"/>
<stop offset="1" stop-color="white"/>
</linearGradient>
<radialGradient id="paint16_radial" cx="0" cy="0" r="1" gradientUnits="userSpaceOnUse" gradientTransform="translate(752.5 -1428.55) rotate(90) scale(2476.14 3102.13)">
<stop offset="0.731553" stop-color="#6E9EC9"/>
<stop offset="0.788525" stop-color="#A3C1DC"/>
<stop offset="0.873784" stop-color="#F1F4F7"/>
<stop offset="0.891714" stop-color="#FBFBFB"/>
</radialGradient>
</defs>
</svg>
