<svg fill="#2B2B2B" id="Capa_1" enable-background="new 0 0 511.992 511.992" height="512" viewBox="0 0 511.992 511.992" width="512" xmlns="http://www.w3.org/2000/svg"><g><g><path d="m99.561 128.935c-4-3.808-10.331-3.651-14.138.351l-28.425 29.87c-3.674 3.861-3.674 9.926 0 13.787l28.425 29.87c3.756 3.946 10.191 4.107 14.138.351 4.001-3.808 4.158-10.137.351-14.138l-21.865-22.977 21.865-22.977c3.807-4.001 3.65-10.33-.351-14.137z"/><path d="m198.109 203.163c3.946 3.756 10.382 3.596 14.138-.351l28.425-29.87c3.674-3.861 3.674-9.926 0-13.787l-28.425-29.87c-3.808-4.001-10.137-4.157-14.138-.351-4.001 3.808-4.158 10.137-.351 14.138l21.865 22.977-21.865 22.977c-3.806 4-3.65 10.33.351 14.137z"/><path d="m125.778 204.434c4.643 2.859 10.902 1.368 13.759-3.27l36.799-59.74c2.896-4.703 1.433-10.863-3.27-13.76-4.703-2.896-10.862-1.433-13.759 3.27l-36.799 59.74c-2.896 4.703-1.432 10.863 3.27 13.76z"/><path d="m235.302 231.017h-171.06c-5.523 0-10 4.478-10 10s4.477 10 10 10h171.06c5.523 0 10-4.478 10-10s-4.477-10-10-10z"/><path d="m64.242 281.762c-5.523 0-10 4.478-10 10s4.477 10 10 10h122.348c5.523 0 10-4.478 10-10s-4.477-10-10-10z"/><path d="m230.243 291.762c0 5.522 4.477 10 10 10h85.426c5.522 0 10-4.478 10-10s-4.478-10-10-10h-85.426c-5.523 0-10 4.477-10 10z"/><path d="m166.82 95.726c3.528 8.476 16.118 7.885 18.8-.92 2.561-8.407-6.694-15.87-14.374-11.671-4.408 2.411-6.362 7.948-4.426 12.591z"/><path d="m271.78 246.566c3.031 4.522 9.326 5.788 13.869 2.771 4.545-3.019 5.763-9.344 2.761-13.87-3.017-4.548-9.342-5.759-13.87-2.76-4.54 3.006-5.774 9.341-2.76 13.859z"/><path d="m500.143 148.702-8.451-4.882c-2.723-1.574-2.73-6.542-.002-8.114l8.453-4.883c11.319-6.537 15.214-21.062 8.681-32.378l-15.772-27.316c-6.444-11.16-21.202-15.126-32.375-8.674l-8.464 4.884c-2.816 1.629-7.021-.746-7.021-4.052v-9.774c0-13.07-10.634-23.704-23.704-23.704h-31.538c-13.07 0-23.704 10.634-23.704 23.704v9.774c0 3.309-4.205 5.678-7.023 4.05l-8.459-4.88c-11.176-6.457-25.935-2.486-32.378 8.672l-6.22 10.772h-91.343c-5.523 0-10 4.478-10 10s4.477 10 10 10h80.142c-4.073 10.684.385 23.178 10.328 28.925l8.454 4.881c2.721 1.569 2.72 6.539.002 8.11l-8.476 4.887c-11.31 6.547-15.195 21.071-8.661 32.376l15.768 27.301c6.443 11.168 21.206 15.143 32.387 8.686l8.458-4.889c2.813-1.625 7.021.748 7.021 4.052v9.774c0 12.843 10.608 23.519 23.355 23.703l7.023.431v82.657h-376.624v-221.51c0-5.438 3.517-9.384 8.362-9.384h102.665c5.523 0 10-4.478 10-10s-4.477-10-10-10h-102.665c-15.904 0-28.362 12.908-28.362 29.384v265.057.003c0 14.82 12.987 27.341 28.36 27.341h133.759l-4.874 41.831c-1.082 9.489-9.094 16.638-18.642 16.638-.007 0-.015 0-.022 0-.129-.011-.273.003-.411.008-.082.003-11.432.021-11.432.021-5.523 0-10 4.478-10 10s4.477 10 10 10h173.356c5.522 0 10-4.478 10-10s-4.478-10-10-10c0 0-11.35-.018-11.433-.021-.132-.005-.265-.008-.397-.008-.013-.001-.022-.001-.035 0-9.547-.001-17.56-7.149-18.642-16.638-.001-.008-.002-.017-.003-.024l-4.871-41.807h123.547c15.378 0 28.37-12.521 28.37-27.341l-.005-126.637h4.861c13.07 0 23.704-10.634 23.704-23.704v-9.774c0-3.3 4.202-5.68 7.018-4.054l8.465 4.893c11.178 6.453 25.936 2.479 32.377-8.68l15.773-27.31c6.533-11.316 2.639-25.841-8.68-32.377zm-103.518 204.093v23.547c0 3.466-3.576 7.342-8.362 7.342h-359.9c-4.786 0-8.362-3.876-8.362-7.342v-23.547zm-146.907 94.997c.594 5.198 2.196 10.059 4.596 14.392h-81.791c2.399-4.33 3.999-9.185 4.59-14.377l5.141-44.121h62.325zm241.786-276.714-15.773 27.31c-1.013 1.753-3.295 2.378-5.053 1.362l-8.466-4.893c-15.973-9.223-37.021 2.92-37.021 21.372v9.774c0 2.042-1.662 3.704-3.704 3.704h-31.537c-2.021 0-3.701-1.687-3.701-3.706v-9.769c0-18.456-21.045-30.603-37.029-21.376l-8.463 4.89c-1.739 1.004-4.042.386-5.052-1.36l-15.771-27.309c-1.021-1.767-.411-4.037 1.351-5.056l8.468-4.886c15.819-9.142 15.848-33.615-.002-42.749l-8.454-4.884c-1.693-1.057-2.393-3.277-1.362-5.059l15.771-27.315c1.017-1.76 3.302-2.367 5.061-1.352l8.46 4.881c15.974 9.226 37.021-2.918 37.021-21.372v-9.774c0-2.042 1.662-3.704 3.704-3.704h31.536c2.042 0 3.704 1.662 3.704 3.704v9.774c0 18.451 21.039 30.598 37.02 21.373l8.465-4.884c1.755-1.017 4.042-.403 5.056 1.353l15.772 27.316c1.02 1.767.408 4.035-1.363 5.059l-8.444 4.879c-15.819 9.114-15.839 33.607-.009 42.755l8.454 4.884c1.768 1.024 2.379 3.293 1.361 5.058z"/><path d="m405.715 98.108c-22.967 0-41.651 18.685-41.651 41.65s18.685 41.65 41.651 41.65c22.971 0 41.658-18.685 41.658-41.65 0-22.708-18.947-41.652-41.658-41.65zm0 63.301c-11.938 0-21.651-9.712-21.651-21.65s9.713-21.65 21.651-21.65c11.777.198 21.658 9.73 21.658 21.65 0 11.938-9.716 21.65-21.658 21.65z"/></g></g></svg>
