<?xml version="1.0" standalone="no"?>
<!DOCTYPE svg PUBLIC "-//W3C//DTD SVG 20010904//EN"
 "http://www.w3.org/TR/2001/REC-SVG-20010904/DTD/svg10.dtd">
<svg version="1.0" xmlns="http://www.w3.org/2000/svg"
 width="75.000000pt" height="75.000000pt" viewBox="0 0 75.000000 75.000000"
 preserveAspectRatio="xMidYMid meet" fill="#2B2B2B">

<g transform="translate(0.000000,75.000000) scale(0.100000,-0.100000)" stroke="none">
<path d="M60 671 c0 -65 -2 -70 -22 -73 l-23 -3 0 -290 0 -290 338 -3 337 -2
0 69 c0 65 2 70 23 73 l22 3 0 290 0 290 -337 3 -338 2 0 -69z m655 9 l0 -35
-315 0 -315 0 -3 23 c-8 54 -17 52 320 50 l313 -3 0 -35z m3 -282 c-2 -164 -6
-222 -15 -225 -10 -4 -13 45 -15 209 l-3 213 -302 3 c-191 1 -303 6 -303 12 0
6 117 10 320 10 l320 0 -2 -222z m-50 139 l3 -37 -318 2 -318 3 -3 23 c-8 54
-17 52 320 50 l313 -3 3 -38z m0 -279 l-3 -223 -315 0 -315 0 -3 223 -2 222
320 0 320 0 -2 -222z"/>
<path d="M580 680 c0 -5 5 -10 10 -10 6 0 10 5 10 10 0 6 -4 10 -10 10 -5 0
-10 -4 -10 -10z"/>
<path d="M620 680 c0 -5 5 -10 10 -10 6 0 10 5 10 10 0 6 -4 10 -10 10 -5 0
-10 -4 -10 -10z"/>
<path d="M670 680 c0 -5 5 -10 10 -10 6 0 10 5 10 10 0 6 -4 10 -10 10 -5 0
-10 -4 -10 -10z"/>
<path d="M530 540 c0 -5 5 -10 10 -10 6 0 10 5 10 10 0 6 -4 10 -10 10 -5 0
-10 -4 -10 -10z"/>
<path d="M580 540 c0 -5 5 -10 10 -10 6 0 10 5 10 10 0 6 -4 10 -10 10 -5 0
-10 -4 -10 -10z"/>
<path d="M620 540 c0 -5 5 -10 10 -10 6 0 10 5 10 10 0 6 -4 10 -10 10 -5 0
-10 -4 -10 -10z"/>
<path d="M60 305 l0 -125 175 0 175 0 0 125 0 125 -175 0 -175 0 0 -125z m330
0 l0 -105 -155 0 -155 0 0 105 0 105 155 0 155 0 0 -105z"/>
<path d="M196 354 c-9 -8 -16 -32 -16 -53 0 -62 55 -94 84 -49 15 24 0 34 -20
13 -17 -16 -18 -16 -31 1 -29 39 -2 102 32 74 20 -17 32 -5 15 15 -16 19 -44
19 -64 -1z"/>
<path d="M430 420 c0 -6 42 -10 105 -10 63 0 105 4 105 10 0 6 -42 10 -105 10
-63 0 -105 -4 -105 -10z"/>
<path d="M437 384 c-17 -17 13 -24 104 -24 81 0 99 3 99 15 0 12 -18 15 -98
15 -54 0 -102 -3 -105 -6z"/>
<path d="M430 330 c0 -6 42 -10 105 -10 63 0 105 4 105 10 0 6 -42 10 -105 10
-63 0 -105 -4 -105 -10z"/>
<path d="M430 280 c0 -6 42 -10 105 -10 63 0 105 4 105 10 0 6 -42 10 -105 10
-63 0 -105 -4 -105 -10z"/>
<path d="M437 244 c-17 -17 13 -24 104 -24 81 0 99 3 99 15 0 12 -18 15 -98
15 -54 0 -102 -3 -105 -6z"/>
<path d="M430 190 c0 -6 42 -10 105 -10 63 0 105 4 105 10 0 6 -42 10 -105 10
-63 0 -105 -4 -105 -10z"/>
<path d="M60 140 c0 -6 103 -10 290 -10 187 0 290 4 290 10 0 6 -103 10 -290
10 -187 0 -290 -4 -290 -10z"/>
<path d="M60 90 c0 -14 527 -14 535 0 4 7 -87 10 -264 10 -174 0 -271 -4 -271
-10z"/>
<path d="M620 90 c0 -5 5 -10 10 -10 6 0 10 5 10 10 0 6 -4 10 -10 10 -5 0
-10 -4 -10 -10z"/>
</g>
</svg>
