<svg fill="#2B2B2B" id="Capa_1" enable-background="new 0 0 512 512" height="512" viewBox="0 0 512 512" width="512" xmlns="http://www.w3.org/2000/svg"><g><path d="m130.119 46.588h63.019c4.142 0 7.5-3.358 7.5-7.5s-3.357-7.5-7.5-7.5h-63.019c-4.142 0-7.5 3.358-7.5 7.5s3.358 7.5 7.5 7.5z"/><path d="m503.164 437.688-7.67-38.329c-.813-4.061-4.756-6.696-8.826-5.882-4.061.813-6.695 4.764-5.883 8.826l7.67 38.329c2.471 12.337-.012 24.897-6.988 35.367s-17.613 17.596-29.948 20.065c-3.067.613-6.188.924-9.279.924-19.35 0-37.016-12.159-43.955-30.253l-37.489-97.848c-5.91-15.422-4.729-32.562 3.24-47.023 7.967-14.457 21.82-24.608 38.008-27.848 30.243-6.055 59.784 13.622 65.842 43.868l7.03 35.099c.813 4.061 4.765 6.696 8.826 5.881 4.061-.813 6.694-4.765 5.881-8.827l-7.03-35.099c-6.741-33.659-36.418-56.992-69.502-57.012l.007-.009h-97.451v-222.258c0-30.69-24.964-55.659-55.649-55.659h-196.741c-30.684 0-55.649 24.969-55.649 55.659v296.133c0 30.685 24.964 55.649 55.649 55.649h79.492l-6.056 30.245c-3.257 16.266.016 32.826 9.215 46.63 9.198 13.804 23.222 23.2 39.487 26.457 4.13.827 8.25 1.227 12.32 1.227 25.294-.002 48.499-15.458 57.865-39.901l16.053-41.896h96.592l16.054 41.902c9.15 23.855 32.444 39.883 57.962 39.883 4.076 0 8.187-.409 12.222-1.216 16.265-3.256 30.288-12.652 39.486-26.456 9.199-13.803 12.471-30.363 9.215-46.628zm-439.907-45.246c-22.415 0-40.649-18.235-40.649-40.65v-296.133c0-22.42 18.235-40.66 40.649-40.66h196.741c22.415 0 40.649 18.24 40.649 40.66v222.259h-16.583v-211.369c0-19.276-15.682-34.959-34.959-34.959h-26.82c-4.142 0-7.5 3.358-7.5 7.5v1.29c0 11.524-9.376 20.9-20.9 20.9h-64.508c-11.524 0-20.899-9.376-20.899-20.9v-1.29c0-4.142-3.357-7.5-7.5-7.5h-26.828c-19.277 0-34.959 15.683-34.959 34.959v25.059c0 4.142 3.357 7.5 7.5 7.5s7.5-3.358 7.5-7.5v-25.059c0-11.006 8.954-19.96 19.96-19.96h19.867c2.949 16.847 17.683 29.689 35.361 29.689h64.508c17.678 0 32.413-12.843 35.362-29.689h19.857c11.006 0 19.959 8.954 19.959 19.96v211.37h-41.846c-14.039-.107-27.789 3.959-39.732 11.917-15.768 10.508-26.501 26.527-30.222 45.107l-5.19 25.92h-77.925c-11.006 0-19.96-8.958-19.96-19.97v-219.286c0-4.142-3.357-7.5-7.5-7.5s-7.5 3.358-7.5 7.5v219.285c0 19.282 15.682 34.969 34.959 34.969h74.922l-3.32 16.581zm178.316 74.29c-8.246 21.522-30.634 33.859-53.232 29.333-12.337-2.47-22.974-9.597-29.95-20.067-6.977-10.47-9.459-23.031-6.988-35.368l20.572-102.744c2.934-14.652 11.397-27.284 23.831-35.57 9.298-6.195 19.981-9.406 30.906-9.406 3.686 0 7.401.366 11.098 1.106 16.189 3.242 30.044 13.394 38.013 27.855 7.968 14.46 9.15 31.596 3.242 47.013zm35.807-51.529 15.691-40.951c7.491-19.551 5.992-41.282-4.113-59.619-4.706-8.542-11.048-15.878-18.539-21.715h99.013c-7.488 5.836-13.828 13.169-18.533 21.708-10.105 18.339-11.604 40.073-4.11 59.629l15.689 40.949h-85.098z"/><path d="m244.366 331.19c-.924-11.454-10.54-20.492-22.228-20.492s-21.304 9.038-22.228 20.491c-11.453.924-20.491 10.54-20.491 22.228s9.038 21.304 20.491 22.228c.924 11.454 10.54 20.491 22.228 20.491s21.304-9.038 22.228-20.492c11.454-.923 20.491-10.54 20.491-22.228s-9.038-21.303-20.491-22.226zm-1.81 29.528h-5.618c-4.142 0-7.5 3.358-7.5 7.5v5.619c0 4.026-3.275 7.3-7.301 7.3s-7.301-3.275-7.301-7.3v-5.619c0-4.142-3.357-7.5-7.5-7.5h-5.619c-4.025 0-7.3-3.275-7.3-7.301s3.274-7.3 7.3-7.3h5.619c4.142 0 7.5-3.358 7.5-7.5v-5.619c0-4.026 3.275-7.3 7.301-7.3s7.301 3.275 7.301 7.3v5.619c0 4.142 3.357 7.5 7.5 7.5h5.618c4.025 0 7.301 3.275 7.301 7.301s-3.276 7.3-7.301 7.3z"/><path d="m431.696 355.299c12.296 0 22.299-10.004 22.299-22.3s-10.004-22.3-22.299-22.3c-12.297 0-22.3 10.004-22.3 22.3s10.004 22.3 22.3 22.3zm0-29.601c4.025 0 7.3 3.275 7.3 7.3s-3.274 7.301-7.3 7.301-7.301-3.275-7.301-7.301 3.276-7.3 7.301-7.3z"/><path d="m391.67 340.299c-12.297 0-22.3 10.004-22.3 22.3s10.004 22.3 22.3 22.3c12.297 0 22.3-10.004 22.3-22.3s-10.004-22.3-22.3-22.3zm0 29.601c-4.025 0-7.301-3.275-7.301-7.301s3.275-7.3 7.301-7.3 7.301 3.275 7.301 7.3-3.276 7.301-7.301 7.301z"/><path d="m328.79 369.9h-17.733c-10.053 0-18.231 8.178-18.231 18.231 0 10.052 8.179 18.231 18.231 18.231h17.733c10.053 0 18.231-8.178 18.231-18.231s-8.178-18.231-18.231-18.231zm0 21.462h-17.733c-1.782 0-3.231-1.45-3.231-3.231s1.449-3.231 3.231-3.231h17.733c1.782 0 3.231 1.45 3.231 3.231s-1.448 3.231-3.231 3.231z"/><path d="m116.9 242.616c1.465 1.465 3.385 2.197 5.304 2.197s3.839-.732 5.304-2.197c2.929-2.929 2.929-7.678 0-10.606l-27.004-27.003 27.004-27.004c2.929-2.929 2.929-7.677 0-10.606-2.93-2.928-7.678-2.929-10.607 0l-32.307 32.307c-1.406 1.406-2.196 3.314-2.196 5.303s.79 3.897 2.196 5.303z"/><path d="m195.751 242.616c1.465 1.465 3.384 2.197 5.304 2.197 1.919 0 3.839-.732 5.304-2.197l32.307-32.306c1.406-1.406 2.196-3.314 2.196-5.303s-.79-3.897-2.196-5.303l-32.307-32.307c-2.93-2.929-7.678-2.929-10.607 0s-2.929 7.678 0 10.606l27.004 27.004-27.004 27.003c-2.93 2.929-2.93 7.677-.001 10.606z"/><path d="m144.507 268.772c.595.144 1.189.213 1.775.213 3.381 0 6.45-2.302 7.282-5.733l27.416-112.954c.978-4.025-1.494-8.08-5.518-9.057s-8.082 1.494-9.057 5.519l-27.416 112.954c-.978 4.026 1.493 8.081 5.518 9.058z"/></g></svg>
