<svg width="122" height="122" viewBox="0 0 122 122" fill="none" xmlns="http://www.w3.org/2000/svg">
<path d="M79.4409 36.5625C76.5247 32.7321 72.6098 29.9799 68.1911 28.5473C70.7146 26.4682 72.3282 23.3222 72.3282 19.8044C72.3282 13.5579 67.2465 8.47617 61 8.47617C54.7535 8.47617 49.6718 13.5579 49.6718 19.8044C49.6718 23.3222 51.2854 26.4682 53.8088 28.5473C49.3902 29.9799 45.4752 32.7321 42.559 36.5625C42.1305 37.1253 42.0586 37.8828 42.3742 38.516C45.9243 45.6444 53.0614 50.0729 61 50.0729C68.9386 50.0729 76.0757 45.6441 79.6257 38.516C79.9411 37.8828 79.8695 37.1254 79.4409 36.5625ZM53.3874 19.8044C53.3874 15.6069 56.8025 12.1918 61 12.1918C65.1975 12.1918 68.6126 15.6069 68.6126 19.8044C68.6126 24.0019 65.1975 27.4167 61 27.4167C56.8025 27.4167 53.3874 24.0016 53.3874 19.8044ZM61 31.1323C66.7292 31.1323 72.0372 33.5819 75.741 37.8937C72.6735 43.1434 67.1271 46.3573 61 46.3573C54.8728 46.3573 49.3265 43.1434 46.259 37.8937C49.9627 33.5819 55.2708 31.1323 61 31.1323Z" fill="#383530" stroke="#383530" stroke-width="0.2"/>
<path d="M116.652 77.4675C116.099 76.6027 114.951 76.3503 114.086 76.9027C113.222 77.4551 112.969 78.604 113.521 79.4685C116.048 83.4224 117.384 88.0063 117.384 92.725C117.384 106.322 106.322 117.384 92.725 117.384C79.1279 117.384 68.0656 106.322 68.0656 92.725C68.0656 79.1279 79.1279 68.0656 92.725 68.0656C98.4776 68.0656 104.074 70.0879 108.484 73.7598C109.272 74.4162 110.444 74.3095 111.1 73.521C111.757 72.7326 111.65 71.5609 110.862 70.9045C105.785 66.6778 99.3446 64.3502 92.7252 64.3502C84.7694 64.3502 77.5691 67.6428 72.412 72.9348L62.8578 67.2802V57.5876C77.641 56.6274 89.375 44.2969 89.375 29.275C89.375 27.194 89.1488 25.1245 88.7023 23.1236C88.4789 22.1225 87.4862 21.4905 86.4845 21.7149C85.4833 21.9383 84.8524 22.9311 85.0758 23.9326C85.4631 25.6682 85.6594 27.4656 85.6594 29.275C85.6594 42.8721 74.5971 53.9344 61 53.9344C47.4029 53.9344 36.3406 42.8721 36.3406 29.275C36.3406 15.6779 47.4029 4.61562 61 4.61562C69.7284 4.61562 77.8919 9.3032 82.3041 16.8488C82.8221 17.7346 83.9601 18.0326 84.8456 17.5146C85.7314 16.9966 86.0294 15.8589 85.5115 14.9731C80.4355 6.29241 71.0434 0.9 61 0.9C45.3539 0.9 32.625 13.6289 32.625 29.275C32.625 44.2969 44.359 56.6272 59.1422 57.5876V67.2802L49.5882 72.9345C44.4311 67.6426 37.2308 64.35 29.275 64.35C18.8703 64.35 9.31465 70.0328 4.33685 79.1807C3.84638 80.0819 4.17957 81.21 5.08071 81.7004C5.98213 82.1909 7.10996 81.8577 7.60041 80.9566C11.9271 73.0052 20.2322 68.0656 29.2748 68.0656C42.8719 68.0656 53.9341 79.1279 53.9341 92.725C53.9341 106.322 42.8721 117.384 29.275 117.384C15.6779 117.384 4.61562 106.322 4.61562 92.725C4.61562 91.1775 4.76083 89.6278 5.04723 88.119C5.23847 87.111 4.57633 86.1388 3.56819 85.9473C2.56122 85.7566 1.58801 86.4181 1.39652 87.4263L1.49477 87.445L1.39652 87.4264C1.06698 89.1629 0.9 90.9457 0.9 92.725C0.9 108.371 13.6289 121.1 29.275 121.1C44.9211 121.1 57.65 108.371 57.65 92.725C57.65 86.3884 55.5616 80.5303 52.0376 75.8024L61 70.4982L69.9624 75.8027C66.4384 80.5305 64.35 86.3884 64.35 92.7252C64.35 108.371 77.0789 121.1 92.725 121.1C108.371 121.1 121.1 108.371 121.1 92.725C121.1 87.2962 119.562 82.0202 116.652 77.4675Z" fill="#383530" stroke="#383530" stroke-width="0.2"/>
<path d="M111.167 100.013C108.25 96.1825 104.335 93.4303 99.9167 91.9977C102.44 89.9187 104.054 86.7727 104.054 83.2548C104.054 77.0083 98.972 71.9269 92.7258 71.9269C86.4793 71.9269 81.3976 77.0086 81.3976 83.2548C81.3976 86.7727 83.0112 89.9189 85.5346 91.9978C81.1158 93.4303 77.2008 96.1825 74.2846 100.013C73.8561 100.576 73.7842 101.333 74.0998 101.966C77.6499 109.095 84.7869 113.523 92.7256 113.523C100.664 113.523 107.801 109.095 111.351 101.966C111.667 101.333 111.595 100.576 111.167 100.013ZM85.113 83.2548C85.113 79.0573 88.5281 75.6425 92.7256 75.6425C96.9231 75.6425 100.338 79.0575 100.338 83.2548C100.338 87.4523 96.9228 90.8674 92.7256 90.8674C88.5281 90.8674 85.113 87.4523 85.113 83.2548ZM92.7256 94.583C98.4547 94.583 103.763 97.0325 107.467 101.344C104.399 106.594 98.8527 109.808 92.7256 109.808C86.5984 109.808 81.052 106.594 77.9846 101.344C81.6881 97.0325 86.9961 94.583 92.7256 94.583Z" fill="#383530" stroke="#383530" stroke-width="0.2"/>
<path d="M47.7154 100.013C44.7991 96.1825 40.8842 93.4303 36.4656 91.9978C38.989 89.9187 40.6026 86.7727 40.6026 83.2548C40.6026 77.0083 35.5209 71.9269 29.2744 71.9269C23.0279 71.9269 17.9464 77.0086 17.9464 83.2548C17.9464 86.7727 19.56 89.9189 22.0835 91.9978C17.6648 93.4303 13.7499 96.1825 10.8334 100.013C10.4049 100.576 10.333 101.333 10.6486 101.966C14.1987 109.095 21.3358 113.523 29.2744 113.523C37.213 113.523 44.3501 109.095 47.9002 101.966C48.2155 101.333 48.1439 100.576 47.7154 100.013ZM21.6621 83.2548C21.6621 79.0573 25.0771 75.6425 29.2744 75.6425C33.4719 75.6425 36.887 79.0575 36.887 83.2548C36.887 87.4523 33.4719 90.8674 29.2744 90.8674C25.0771 90.8674 21.6621 87.4523 21.6621 83.2548ZM29.2744 94.583C35.0036 94.583 40.3117 97.0325 44.0154 101.344C40.9479 106.594 35.4015 109.808 29.2744 109.808C23.1473 109.808 17.6009 106.594 14.5334 101.344C18.2371 97.0325 23.5452 94.583 29.2744 94.583Z" fill="#383530" stroke="#383530" stroke-width="0.2"/>
</svg>
