<svg width="120" height="122" viewBox="0 0 120 122" fill="none" xmlns="http://www.w3.org/2000/svg">
<g clip-path="url(#clip0)">
<mask id="path-1-inside-1" fill="white">
<path d="M89.4589 64.5964C87.3999 63.002 84.4583 63.4059 82.89 65.5002C80.2954 68.9636 77.2311 71.8872 74.2676 74.714C69.7009 79.071 65.3329 83.241 63.6072 88.6405H42.1143C40.3885 83.241 36.0205 79.071 31.4548 74.714C24.0564 67.6559 16.4072 60.3567 16.4072 46.0514C16.4072 36.3601 20.1782 27.216 27.0255 20.3059C33.9166 13.351 43.017 9.53108 52.6767 9.53108C52.7682 9.53108 52.8607 9.53108 52.9523 9.53201H52.988C55.5606 9.53201 57.6553 7.42192 57.6746 4.80176C57.6938 2.16949 55.61 0.0203072 53.0219 0.000760666C40.7547 -0.0895256 29.1641 4.71798 20.4199 13.5418C11.7865 22.2549 7.03125 33.8004 7.03125 46.0523C7.03125 64.4838 17.439 74.4134 25.0388 81.6642C30.2948 86.6793 33.5156 89.9408 33.5156 93.6444V107.703C33.5156 115.587 39.8245 122 47.5781 122H58.125C65.8795 122 72.1875 115.587 72.1875 107.703V94.0083C72.1967 93.8882 72.2058 93.7672 72.2058 93.6444C72.2058 89.9408 75.4266 86.6793 80.6827 81.6642C83.7744 78.7146 87.28 75.3702 90.347 71.2757C91.9162 69.1814 91.5179 66.1918 89.4589 64.5964ZM58.125 112.469H47.5781C44.9936 112.469 42.8906 110.331 42.8906 107.703V98.1717H62.8125V107.703C62.8125 110.331 60.7104 112.469 58.125 112.469ZM47.3309 28.8747C39.9097 31.224 34.9228 38.1016 34.9228 45.9881C34.9228 48.6204 32.8244 50.7537 30.2353 50.7537C27.6462 50.7537 25.5478 48.6204 25.5478 45.9881C25.5478 33.9056 33.1824 23.3709 44.545 19.7744C47.0169 18.9925 49.6445 20.3952 50.4135 22.9083C51.1826 25.4215 49.8029 28.0928 47.3309 28.8747ZM111.022 30.9466L106.512 27.6414C106.521 27.4031 106.525 27.1639 106.525 26.9256C106.525 26.6371 106.516 26.3476 106.503 26.059C106.499 25.9641 106.493 25.8701 106.488 25.7752C106.482 25.6849 106.479 25.5946 106.473 25.5052L111.127 21.891C112.961 20.4678 113.503 17.8998 112.405 15.8362L110.295 11.872C109.192 9.79729 106.762 8.85626 104.582 9.65674L99.0399 11.6896C98.3432 11.1562 97.6089 10.6797 96.8481 10.2506C96.7786 10.2124 96.7108 10.1724 96.6412 10.1342C96.4517 10.0309 96.2604 9.93225 96.0681 9.83545C95.9647 9.78332 95.8621 9.73213 95.7578 9.68187C95.6699 9.63998 95.5829 9.59251 95.4941 9.55156L94.4971 3.92123C94.0952 1.65104 92.1524 -0.00017012 89.8837 -0.00017012H85.4306C83.0933 -0.00017012 81.113 1.75064 80.7889 4.1046L80.0381 9.55621C78.6575 10.1919 77.3602 10.9952 76.1682 11.9511L70.7291 10.2245C68.5382 9.52922 66.1743 10.5484 65.1434 12.6334L63.078 16.8117C62.0242 18.9423 62.6825 21.5373 64.6179 22.8841L69.0482 25.9678C69.0335 26.2852 69.0244 26.6045 69.0244 26.9256C69.0244 27.2169 69.0335 27.5083 69.0463 27.7996C69.0509 27.8964 69.0573 27.9932 69.0628 28.09C69.0692 28.1915 69.0729 28.2929 69.0802 28.3944L64.5895 32.0114C62.7493 33.4942 62.2714 36.132 63.4717 38.1835L65.6689 41.9392C66.817 43.9004 69.1718 44.7595 71.2839 43.9869L76.4337 42.1049C77.5571 42.9733 78.7711 43.7095 80.0546 44.2997L81.0516 49.93C81.4536 52.1992 83.3963 53.8514 85.665 53.8514H89.8837C92.1872 53.8514 94.1483 52.1499 94.5126 49.8388L95.376 44.3555C96.9434 43.65 98.4055 42.7285 99.7284 41.6116L105.057 43.2144C107.232 43.8687 109.556 42.8448 110.575 40.785L112.47 36.953C113.503 34.8606 112.89 32.3149 111.022 30.9466ZM78.4149 26.3979C78.4158 26.3755 78.4186 26.3541 78.4195 26.3318C78.4296 26.1735 78.4424 26.0153 78.4607 25.8571C78.4616 25.8431 78.4634 25.8291 78.4653 25.8152C78.4845 25.6486 78.5083 25.482 78.5367 25.3154C78.5376 25.306 78.5394 25.2958 78.5413 25.2865C78.5696 25.1217 78.6026 24.957 78.6392 24.7932C79.0311 23.0563 79.8907 21.4991 81.0764 20.2668C81.1084 20.2333 81.1404 20.1988 81.1734 20.1662C81.2668 20.0713 81.362 19.9792 81.459 19.8889C81.481 19.8684 81.5039 19.8479 81.5268 19.8284C81.7218 19.6506 81.9232 19.4803 82.1329 19.3202C82.1503 19.3062 82.1667 19.2932 82.1841 19.2801C82.2995 19.1926 82.4167 19.107 82.5366 19.0251V19.0242C82.7682 18.8659 83.0072 18.7179 83.2526 18.5802C83.2809 18.5644 83.3093 18.5476 83.3377 18.5318C83.4549 18.4676 83.5739 18.4052 83.6938 18.3466C83.7332 18.327 83.7735 18.3093 83.8129 18.2898C84.0033 18.1995 84.1965 18.1167 84.3924 18.0394C84.473 18.0068 84.5535 17.9752 84.635 17.9463C84.7284 17.9128 84.8218 17.8802 84.917 17.8495C85.047 17.8067 85.1788 17.7676 85.3107 17.7313C86.0962 17.5135 86.922 17.3953 87.7744 17.3953C88.6441 17.3953 89.4846 17.5182 90.2838 17.7443C90.4166 17.7816 90.5475 17.8216 90.6784 17.8653C90.7526 17.8895 90.8267 17.9147 90.9009 17.9417C91.0172 17.9835 91.1316 18.0282 91.246 18.0748C91.3458 18.1157 91.4447 18.1576 91.5417 18.2014C91.6599 18.2535 91.7761 18.3084 91.8915 18.3652C91.972 18.4052 92.0508 18.4471 92.1295 18.489C92.222 18.5383 92.3126 18.5904 92.4042 18.6435C92.4765 18.6854 92.5497 18.7263 92.6212 18.7701C92.764 18.8585 92.905 18.9506 93.0432 19.0465C93.1082 19.0921 93.1714 19.1387 93.2346 19.1852C93.3316 19.2559 93.4268 19.3285 93.5211 19.403C93.5779 19.4486 93.6356 19.4924 93.6914 19.5389C93.8297 19.6543 93.9651 19.7725 94.0979 19.8963C94.1373 19.9317 94.1739 19.9698 94.2123 20.0071C94.3195 20.1095 94.4238 20.2146 94.5255 20.3235C95.6625 21.5243 96.4929 23.0256 96.8884 24.6973C96.9205 24.8341 96.9507 24.9719 96.9763 25.1096C96.9873 25.1627 96.9955 25.2167 97.0056 25.2707C97.0276 25.4001 97.0468 25.5285 97.0642 25.6579C97.0715 25.7137 97.0789 25.7696 97.0853 25.8264C97.1008 25.9595 97.1118 26.0926 97.1219 26.2266C97.1255 26.2769 97.1301 26.3271 97.1329 26.3783C97.1429 26.5607 97.1494 26.7432 97.1494 26.9265C97.1494 27.2551 97.1329 27.5855 97.0999 27.9132C97.0981 27.9271 97.0953 27.9411 97.0944 27.9551C97.0789 28.1021 97.0605 28.2492 97.0377 28.3953C97.0294 28.4502 97.0184 28.5052 97.0093 28.5601C96.9919 28.6625 96.9745 28.7639 96.9543 28.8654C96.6193 30.5054 95.8676 31.991 94.8184 33.2056C94.6829 33.3629 94.5438 33.5165 94.4 33.6626C94.3689 33.6952 94.335 33.7259 94.303 33.7576C94.1904 33.8693 94.0741 33.9772 93.9569 34.0824C93.8937 34.1383 93.8324 34.1941 93.7683 34.2481C93.6383 34.3589 93.5046 34.4659 93.3691 34.5692C93.2858 34.6325 93.1998 34.693 93.1146 34.7535C93.0386 34.8066 92.9626 34.8587 92.8867 34.9099C92.7484 35.0011 92.6074 35.0895 92.4646 35.1733C92.3767 35.2254 92.2888 35.2776 92.1991 35.326C92.1057 35.3772 92.0105 35.4265 91.9153 35.4749C91.8109 35.5261 91.7065 35.5763 91.6003 35.6238C91.4923 35.6741 91.3824 35.7215 91.2717 35.7662C91.1362 35.8221 90.9988 35.8751 90.8606 35.9245C90.7947 35.9477 90.7278 35.971 90.661 35.9933C90.4697 36.0557 90.2756 36.1143 90.0787 36.1646C89.3417 36.3554 88.5699 36.4569 87.7753 36.4569C86.9019 36.4569 86.0587 36.3331 85.2567 36.105C85.1266 36.0687 84.9985 36.0296 84.8712 35.9868C84.7934 35.9608 84.7156 35.9347 84.6378 35.9068C84.527 35.8658 84.4171 35.823 84.3073 35.7783C84.1846 35.7281 84.0628 35.6759 83.9429 35.621C83.8477 35.5773 83.7524 35.5335 83.6581 35.487C83.5684 35.4423 83.4796 35.3948 83.3917 35.3474C83.313 35.3055 83.2361 35.2608 83.1592 35.2171C83.0292 35.1417 82.901 35.0635 82.7756 34.9825C82.6849 34.9248 82.5943 34.8661 82.5064 34.8047C82.4258 34.7489 82.3462 34.6912 82.2675 34.6325C82.1896 34.5748 82.1127 34.5152 82.0358 34.4547C81.9653 34.3989 81.893 34.343 81.8234 34.2853C81.6953 34.1774 81.5698 34.0666 81.4471 33.9521C81.3867 33.8963 81.329 33.8376 81.2704 33.7809C81.1853 33.6971 81.1029 33.6124 81.0205 33.5258C79.8798 32.3195 79.0485 30.8107 78.6557 29.1297C78.6255 29.0013 78.5971 28.8728 78.5724 28.7425C78.5614 28.6857 78.5522 28.629 78.5422 28.5722C78.5211 28.4465 78.5019 28.3199 78.4854 28.1933C78.4781 28.1366 78.4698 28.0798 78.4634 28.0221C78.4488 27.8899 78.4378 27.7577 78.4277 27.6246C78.4241 27.5744 78.4195 27.5241 78.4158 27.4729C78.4058 27.2914 78.4003 27.108 78.4003 26.9256C78.3994 26.7497 78.4048 26.5738 78.4149 26.3979ZM38.6719 56.4725C41.261 56.4725 43.3594 58.6059 43.3594 61.2381C43.3594 63.8704 41.261 66.0037 38.6719 66.0037C36.0837 66.0037 33.9844 63.8704 33.9844 61.2381C33.9844 58.6059 36.0837 56.4725 38.6719 56.4725Z"/>
</mask>
<path d="M89.4589 64.5964C87.3999 63.002 84.4583 63.4059 82.89 65.5002C80.2954 68.9636 77.2311 71.8872 74.2676 74.714C69.7009 79.071 65.3329 83.241 63.6072 88.6405H42.1143C40.3885 83.241 36.0205 79.071 31.4548 74.714C24.0564 67.6559 16.4072 60.3567 16.4072 46.0514C16.4072 36.3601 20.1782 27.216 27.0255 20.3059C33.9166 13.351 43.017 9.53108 52.6767 9.53108C52.7682 9.53108 52.8607 9.53108 52.9523 9.53201H52.988C55.5606 9.53201 57.6553 7.42192 57.6746 4.80176C57.6938 2.16949 55.61 0.0203072 53.0219 0.000760666C40.7547 -0.0895256 29.1641 4.71798 20.4199 13.5418C11.7865 22.2549 7.03125 33.8004 7.03125 46.0523C7.03125 64.4838 17.439 74.4134 25.0388 81.6642C30.2948 86.6793 33.5156 89.9408 33.5156 93.6444V107.703C33.5156 115.587 39.8245 122 47.5781 122H58.125C65.8795 122 72.1875 115.587 72.1875 107.703V94.0083C72.1967 93.8882 72.2058 93.7672 72.2058 93.6444C72.2058 89.9408 75.4266 86.6793 80.6827 81.6642C83.7744 78.7146 87.28 75.3702 90.347 71.2757C91.9162 69.1814 91.5179 66.1918 89.4589 64.5964ZM58.125 112.469H47.5781C44.9936 112.469 42.8906 110.331 42.8906 107.703V98.1717H62.8125V107.703C62.8125 110.331 60.7104 112.469 58.125 112.469ZM47.3309 28.8747C39.9097 31.224 34.9228 38.1016 34.9228 45.9881C34.9228 48.6204 32.8244 50.7537 30.2353 50.7537C27.6462 50.7537 25.5478 48.6204 25.5478 45.9881C25.5478 33.9056 33.1824 23.3709 44.545 19.7744C47.0169 18.9925 49.6445 20.3952 50.4135 22.9083C51.1826 25.4215 49.8029 28.0928 47.3309 28.8747ZM111.022 30.9466L106.512 27.6414C106.521 27.4031 106.525 27.1639 106.525 26.9256C106.525 26.6371 106.516 26.3476 106.503 26.059C106.499 25.9641 106.493 25.8701 106.488 25.7752C106.482 25.6849 106.479 25.5946 106.473 25.5052L111.127 21.891C112.961 20.4678 113.503 17.8998 112.405 15.8362L110.295 11.872C109.192 9.79729 106.762 8.85626 104.582 9.65674L99.0399 11.6896C98.3432 11.1562 97.6089 10.6797 96.8481 10.2506C96.7786 10.2124 96.7108 10.1724 96.6412 10.1342C96.4517 10.0309 96.2604 9.93225 96.0681 9.83545C95.9647 9.78332 95.8621 9.73213 95.7578 9.68187C95.6699 9.63998 95.5829 9.59251 95.4941 9.55156L94.4971 3.92123C94.0952 1.65104 92.1524 -0.00017012 89.8837 -0.00017012H85.4306C83.0933 -0.00017012 81.113 1.75064 80.7889 4.1046L80.0381 9.55621C78.6575 10.1919 77.3602 10.9952 76.1682 11.9511L70.7291 10.2245C68.5382 9.52922 66.1743 10.5484 65.1434 12.6334L63.078 16.8117C62.0242 18.9423 62.6825 21.5373 64.6179 22.8841L69.0482 25.9678C69.0335 26.2852 69.0244 26.6045 69.0244 26.9256C69.0244 27.2169 69.0335 27.5083 69.0463 27.7996C69.0509 27.8964 69.0573 27.9932 69.0628 28.09C69.0692 28.1915 69.0729 28.2929 69.0802 28.3944L64.5895 32.0114C62.7493 33.4942 62.2714 36.132 63.4717 38.1835L65.6689 41.9392C66.817 43.9004 69.1718 44.7595 71.2839 43.9869L76.4337 42.1049C77.5571 42.9733 78.7711 43.7095 80.0546 44.2997L81.0516 49.93C81.4536 52.1992 83.3963 53.8514 85.665 53.8514H89.8837C92.1872 53.8514 94.1483 52.1499 94.5126 49.8388L95.376 44.3555C96.9434 43.65 98.4055 42.7285 99.7284 41.6116L105.057 43.2144C107.232 43.8687 109.556 42.8448 110.575 40.785L112.47 36.953C113.503 34.8606 112.89 32.3149 111.022 30.9466ZM78.4149 26.3979C78.4158 26.3755 78.4186 26.3541 78.4195 26.3318C78.4296 26.1735 78.4424 26.0153 78.4607 25.8571C78.4616 25.8431 78.4634 25.8291 78.4653 25.8152C78.4845 25.6486 78.5083 25.482 78.5367 25.3154C78.5376 25.306 78.5394 25.2958 78.5413 25.2865C78.5696 25.1217 78.6026 24.957 78.6392 24.7932C79.0311 23.0563 79.8907 21.4991 81.0764 20.2668C81.1084 20.2333 81.1404 20.1988 81.1734 20.1662C81.2668 20.0713 81.362 19.9792 81.459 19.8889C81.481 19.8684 81.5039 19.8479 81.5268 19.8284C81.7218 19.6506 81.9232 19.4803 82.1329 19.3202C82.1503 19.3062 82.1667 19.2932 82.1841 19.2801C82.2995 19.1926 82.4167 19.107 82.5366 19.0251V19.0242C82.7682 18.8659 83.0072 18.7179 83.2526 18.5802C83.2809 18.5644 83.3093 18.5476 83.3377 18.5318C83.4549 18.4676 83.5739 18.4052 83.6938 18.3466C83.7332 18.327 83.7735 18.3093 83.8129 18.2898C84.0033 18.1995 84.1965 18.1167 84.3924 18.0394C84.473 18.0068 84.5535 17.9752 84.635 17.9463C84.7284 17.9128 84.8218 17.8802 84.917 17.8495C85.047 17.8067 85.1788 17.7676 85.3107 17.7313C86.0962 17.5135 86.922 17.3953 87.7744 17.3953C88.6441 17.3953 89.4846 17.5182 90.2838 17.7443C90.4166 17.7816 90.5475 17.8216 90.6784 17.8653C90.7526 17.8895 90.8267 17.9147 90.9009 17.9417C91.0172 17.9835 91.1316 18.0282 91.246 18.0748C91.3458 18.1157 91.4447 18.1576 91.5417 18.2014C91.6599 18.2535 91.7761 18.3084 91.8915 18.3652C91.972 18.4052 92.0508 18.4471 92.1295 18.489C92.222 18.5383 92.3126 18.5904 92.4042 18.6435C92.4765 18.6854 92.5497 18.7263 92.6212 18.7701C92.764 18.8585 92.905 18.9506 93.0432 19.0465C93.1082 19.0921 93.1714 19.1387 93.2346 19.1852C93.3316 19.2559 93.4268 19.3285 93.5211 19.403C93.5779 19.4486 93.6356 19.4924 93.6914 19.5389C93.8297 19.6543 93.9651 19.7725 94.0979 19.8963C94.1373 19.9317 94.1739 19.9698 94.2123 20.0071C94.3195 20.1095 94.4238 20.2146 94.5255 20.3235C95.6625 21.5243 96.4929 23.0256 96.8884 24.6973C96.9205 24.8341 96.9507 24.9719 96.9763 25.1096C96.9873 25.1627 96.9955 25.2167 97.0056 25.2707C97.0276 25.4001 97.0468 25.5285 97.0642 25.6579C97.0715 25.7137 97.0789 25.7696 97.0853 25.8264C97.1008 25.9595 97.1118 26.0926 97.1219 26.2266C97.1255 26.2769 97.1301 26.3271 97.1329 26.3783C97.1429 26.5607 97.1494 26.7432 97.1494 26.9265C97.1494 27.2551 97.1329 27.5855 97.0999 27.9132C97.0981 27.9271 97.0953 27.9411 97.0944 27.9551C97.0789 28.1021 97.0605 28.2492 97.0377 28.3953C97.0294 28.4502 97.0184 28.5052 97.0093 28.5601C96.9919 28.6625 96.9745 28.7639 96.9543 28.8654C96.6193 30.5054 95.8676 31.991 94.8184 33.2056C94.6829 33.3629 94.5438 33.5165 94.4 33.6626C94.3689 33.6952 94.335 33.7259 94.303 33.7576C94.1904 33.8693 94.0741 33.9772 93.9569 34.0824C93.8937 34.1383 93.8324 34.1941 93.7683 34.2481C93.6383 34.3589 93.5046 34.4659 93.3691 34.5692C93.2858 34.6325 93.1998 34.693 93.1146 34.7535C93.0386 34.8066 92.9626 34.8587 92.8867 34.9099C92.7484 35.0011 92.6074 35.0895 92.4646 35.1733C92.3767 35.2254 92.2888 35.2776 92.1991 35.326C92.1057 35.3772 92.0105 35.4265 91.9153 35.4749C91.8109 35.5261 91.7065 35.5763 91.6003 35.6238C91.4923 35.6741 91.3824 35.7215 91.2717 35.7662C91.1362 35.8221 90.9988 35.8751 90.8606 35.9245C90.7947 35.9477 90.7278 35.971 90.661 35.9933C90.4697 36.0557 90.2756 36.1143 90.0787 36.1646C89.3417 36.3554 88.5699 36.4569 87.7753 36.4569C86.9019 36.4569 86.0587 36.3331 85.2567 36.105C85.1266 36.0687 84.9985 36.0296 84.8712 35.9868C84.7934 35.9608 84.7156 35.9347 84.6378 35.9068C84.527 35.8658 84.4171 35.823 84.3073 35.7783C84.1846 35.7281 84.0628 35.6759 83.9429 35.621C83.8477 35.5773 83.7524 35.5335 83.6581 35.487C83.5684 35.4423 83.4796 35.3948 83.3917 35.3474C83.313 35.3055 83.2361 35.2608 83.1592 35.2171C83.0292 35.1417 82.901 35.0635 82.7756 34.9825C82.6849 34.9248 82.5943 34.8661 82.5064 34.8047C82.4258 34.7489 82.3462 34.6912 82.2675 34.6325C82.1896 34.5748 82.1127 34.5152 82.0358 34.4547C81.9653 34.3989 81.893 34.343 81.8234 34.2853C81.6953 34.1774 81.5698 34.0666 81.4471 33.9521C81.3867 33.8963 81.329 33.8376 81.2704 33.7809C81.1853 33.6971 81.1029 33.6124 81.0205 33.5258C79.8798 32.3195 79.0485 30.8107 78.6557 29.1297C78.6255 29.0013 78.5971 28.8728 78.5724 28.7425C78.5614 28.6857 78.5522 28.629 78.5422 28.5722C78.5211 28.4465 78.5019 28.3199 78.4854 28.1933C78.4781 28.1366 78.4698 28.0798 78.4634 28.0221C78.4488 27.8899 78.4378 27.7577 78.4277 27.6246C78.4241 27.5744 78.4195 27.5241 78.4158 27.4729C78.4058 27.2914 78.4003 27.108 78.4003 26.9256C78.3994 26.7497 78.4048 26.5738 78.4149 26.3979ZM38.6719 56.4725C41.261 56.4725 43.3594 58.6059 43.3594 61.2381C43.3594 63.8704 41.261 66.0037 38.6719 66.0037C36.0837 66.0037 33.9844 63.8704 33.9844 61.2381C33.9844 58.6059 36.0837 56.4725 38.6719 56.4725Z" fill="#383530" stroke="#FBFBFB" stroke-width="3.6" mask="url(#path-1-inside-1)"/>
</g>
<defs>
<clipPath id="clip0">
<rect width="120" height="122" fill="white"/>
</clipPath>
</defs>
</svg>
