<svg width="122" height="122" viewBox="0 0 122 122" fill="none" xmlns="http://www.w3.org/2000/svg">
<path d="M59.916 43.038L59.916 43.038C59.5257 40.9772 57.9864 39.2497 55.8939 38.5336L54.4678 38.0457C54.4283 38.0851 54.3867 38.1236 54.3421 38.1602M59.916 43.038L54.2786 38.083M59.916 43.038L60.5965 46.6279L60.5965 46.628C60.7331 47.3469 60.5267 48.0814 60.0278 48.6439L60.1027 48.7103L60.0278 48.6439C59.528 49.2076 58.7931 49.5325 58.0107 49.5325H39.3695C38.5813 49.5325 37.8432 49.2038 37.3434 48.6327L37.2681 48.6985L37.3434 48.6327C36.8448 48.0631 36.6446 47.3224 36.7922 46.5974L36.7922 46.5973L37.5218 42.989M59.916 43.038L37.5218 42.989M54.3421 38.1602L54.2786 38.083M54.3421 38.1602C54.3421 38.1602 54.3421 38.1602 54.3422 38.1602L54.2786 38.083M54.3421 38.1602C52.7176 39.4978 50.6818 40.1658 48.648 40.1658C46.6117 40.166 44.5753 39.4966 42.951 38.1564L42.9509 38.1563C42.9262 38.1358 42.9026 38.1144 42.8803 38.0933M54.2786 38.083C52.6732 39.4049 50.6602 40.0658 48.648 40.0658C46.6333 40.066 44.6198 39.4037 43.0147 38.0792C42.9764 38.0476 42.9409 38.0131 42.9057 37.9789M42.8803 38.0933L42.938 38.0735L42.9057 37.9789M42.8803 38.0933C42.8654 38.0792 42.851 38.0652 42.8372 38.0518L42.836 38.0507L42.9057 37.9789M42.8803 38.0933L41.5293 38.5552M42.9057 37.9789L41.497 38.4606M41.497 38.4606L41.5293 38.5552M41.497 38.4606C39.4055 39.1761 37.8443 40.9037 37.4238 42.969L37.5219 42.9888M41.497 38.4606L41.5293 38.5552L41.5293 38.5552M41.5293 38.5552C39.4695 39.2599 37.9349 40.9604 37.5219 42.9888M37.5219 42.9888L37.5218 42.989M37.5219 42.9888L37.5218 42.989M40.1957 35.0606L40.1957 35.0606C36.8451 36.2071 34.3423 38.974 33.6675 42.2876L33.6675 42.2878L32.9378 45.8961C32.5673 47.7148 33.0722 49.5769 34.3213 51.0034C35.5707 52.431 37.4116 53.2484 39.37 53.2484H58.0112C59.9546 53.2484 61.786 52.4417 63.0351 51.0329C64.2835 49.625 64.804 47.78 64.4608 45.9715L63.7803 42.382C63.1426 39.0162 60.6314 36.2042 57.2302 35.0395L57.2302 35.0395L55.0179 34.2828V31.1832C55.0179 31.1059 55.0114 31.0309 55.0015 30.9581C56.6605 29.3454 57.611 27.1567 57.611 24.9156V20.1908C57.611 15.5182 53.5844 11.7267 48.6473 11.7267C43.7101 11.7267 39.6828 15.5181 39.6828 20.1908V25.0628C39.6828 27.367 40.6821 29.4704 42.289 31.0041C42.2826 31.0623 42.2786 31.1218 42.2786 31.183V34.3482L40.1957 35.0606ZM52.8455 19.2005L52.8455 19.2005C51.7097 19.6296 50.685 19.8149 49.8812 19.8502C49.4793 19.8678 49.1339 19.8479 48.8583 19.8028C48.5805 19.7573 48.3818 19.6875 48.2668 19.6115C47.3815 19.0258 46.1603 19.226 45.5368 20.0651L45.5367 20.0651C44.9107 20.9077 45.129 22.0685 46.0173 22.6566L46.0173 22.6566C46.9484 23.2728 48.2044 23.5763 49.6263 23.5763C50.8802 23.5763 52.268 23.3379 53.6851 22.8678V24.9151C53.6851 26.2296 53.1088 27.5192 52.1013 28.4515L52.1013 28.4516C51.6355 28.8829 51.1018 29.2172 50.5287 29.448C50.4873 29.4629 50.4464 29.4791 50.4061 29.4968C49.8176 29.7161 49.1895 29.8262 48.5477 29.8104L48.547 29.8103C45.8185 29.7609 43.6082 27.6255 43.6082 25.0625V20.1908C43.6082 17.5781 45.8629 15.4423 48.6465 15.4423C50.9634 15.4423 52.9103 16.9253 53.4979 18.9292C53.285 19.0256 53.0675 19.1168 52.8455 19.2005ZM48.4718 33.5257L48.472 33.5257C48.5294 33.5267 48.5864 33.5271 48.6438 33.5271C49.4818 33.5271 50.3039 33.4144 51.0922 33.1975V35.8196C49.5949 36.6668 47.6999 36.6663 46.2045 35.8183V33.202C46.928 33.398 47.6875 33.5114 48.4718 33.5257Z" fill="#383530" stroke="#383530" stroke-width="0.2"/>
<path d="M19.3412 83.3432H77.3509C78.4295 83.3432 79.3136 82.517 79.3136 81.4854C79.3136 80.4537 78.4295 79.6275 77.3509 79.6275H19.3412C18.2626 79.6275 17.3785 80.4537 17.3785 81.4854C17.3785 82.517 18.2626 83.3432 19.3412 83.3432Z" fill="#383530" stroke="#383530" stroke-width="0.2"/>
<path d="M19.3412 92.8217H77.3509C78.4295 92.8217 79.3136 91.9955 79.3136 90.9639C79.3136 89.9322 78.4295 89.1061 77.3509 89.1061H19.3412C18.2626 89.1061 17.3785 89.9322 17.3785 90.9639C17.3785 91.9955 18.2626 92.8217 19.3412 92.8217Z" fill="#383530" stroke="#383530" stroke-width="0.2"/>
<path d="M19.3412 102.299H77.3509C78.4295 102.299 79.3136 101.473 79.3136 100.441C79.3136 99.4098 78.4295 98.5836 77.3509 98.5836H19.3412C18.2626 98.5836 17.3785 99.4098 17.3785 100.441C17.3785 101.473 18.2626 102.299 19.3412 102.299Z" fill="#383530" stroke="#383530" stroke-width="0.2"/>
<path d="M19.3412 111.778H77.3509C78.4295 111.778 79.3136 110.952 79.3136 109.92C79.3136 108.888 78.4295 108.062 77.3509 108.062H19.3412C18.2626 108.062 17.3785 108.888 17.3785 109.92C17.3785 110.952 18.2626 111.778 19.3412 111.778Z" fill="#383530" stroke="#383530" stroke-width="0.2"/>
<path d="M17.3785 62.5293C17.3785 63.5609 18.2626 64.3871 19.3412 64.3871H77.3509C78.4295 64.3871 79.3136 63.5609 79.3136 62.5293C79.3136 61.4977 78.4295 60.6715 77.3509 60.6715H19.3412C18.2626 60.6715 17.3785 61.4979 17.3785 62.5293Z" fill="#383530" stroke="#383530" stroke-width="0.2"/>
<path d="M19.3412 73.8651H77.3509C78.4295 73.8651 79.3136 73.0389 79.3136 72.0073C79.3136 70.9757 78.4295 70.1495 77.3509 70.1495H19.3412C18.2626 70.1495 17.3785 70.9757 17.3785 72.0073C17.3785 73.0389 18.2626 73.8651 19.3412 73.8651Z" fill="#383530" stroke="#383530" stroke-width="0.2"/>
<path d="M12.4624 83.3495C13.5448 83.3495 14.4323 82.5202 14.4323 81.4851C14.4323 80.4502 13.5448 79.6207 12.4624 79.6207C11.3801 79.6207 10.4928 80.4499 10.4928 81.4851C10.4928 82.5202 11.3803 83.3495 12.4624 83.3495Z" fill="#383530" stroke="#383530" stroke-width="0.2"/>
<path d="M12.4624 64.3934C13.5448 64.3934 14.4323 63.5642 14.4323 62.529C14.4323 61.4939 13.5448 60.6646 12.4624 60.6646C11.3801 60.6646 10.4928 61.4939 10.4928 62.529C10.4928 63.5642 11.3803 64.3934 12.4624 64.3934Z" fill="#383530" stroke="#383530" stroke-width="0.2"/>
<path d="M12.4624 73.8714C13.5448 73.8714 14.4323 73.0422 14.4323 72.007C14.4323 70.9719 13.5448 70.1427 12.4624 70.1427C11.3801 70.1427 10.4928 70.9719 10.4928 72.007C10.4928 73.0422 11.3803 73.8714 12.4624 73.8714Z" fill="#383530" stroke="#383530" stroke-width="0.2"/>
<path d="M12.4624 92.828C13.5448 92.828 14.4323 91.9987 14.4323 90.9636C14.4323 89.9284 13.5448 89.0992 12.4624 89.0992C11.3801 89.0992 10.4928 89.9284 10.4928 90.9636C10.4928 91.9987 11.3803 92.828 12.4624 92.828Z" fill="#383530" stroke="#383530" stroke-width="0.2"/>
<path d="M12.4624 102.306C13.5448 102.306 14.4323 101.477 14.4323 100.442C14.4323 99.407 13.5448 98.5777 12.4624 98.5777C11.3801 98.5777 10.4928 99.407 10.4928 100.442C10.4928 101.477 11.3803 102.306 12.4624 102.306Z" fill="#383530" stroke="#383530" stroke-width="0.2"/>
<path d="M12.4624 111.784C13.5448 111.784 14.4323 110.955 14.4323 109.92C14.4323 108.885 13.5448 108.055 12.4624 108.055C11.3801 108.055 10.4928 108.885 10.4928 109.92C10.4928 110.955 11.3803 111.784 12.4624 111.784Z" fill="#383530" stroke="#383530" stroke-width="0.2"/>
<mask id="path-14-outside-1" maskUnits="userSpaceOnUse" x="0" y="0" width="122" height="122" fill="black">
<rect fill="white" width="122" height="122"/>
<path d="M118.031 28.6846C117.28 27.787 116.569 26.9387 116.226 26.1573C115.855 25.3138 115.709 24.1994 115.555 23.0191C115.284 20.9514 114.977 18.6079 113.244 16.9727C111.511 15.3374 109.027 15.0477 106.836 14.792C105.585 14.6462 104.404 14.5084 103.51 14.1588C102.681 13.8346 101.783 13.1648 100.831 12.4553C99.5222 11.4791 98.0825 10.4073 96.3802 9.92102V9.38922C96.3805 4.76359 92.3921 1 87.4897 1H9.89082C4.98843 1 1 4.76359 1 9.38945V16.1744C1 17.1454 1.83375 17.9322 2.86271 17.9322C3.89166 17.9322 4.72541 17.1454 4.72541 16.1744V9.38945C4.72541 6.70187 7.04262 4.51562 9.89082 4.51562H87.4897C90.3379 4.51562 92.6551 6.70187 92.6551 9.38945V9.92148C90.9533 10.408 89.5141 11.4794 88.2049 12.4555C87.2535 13.1648 86.3549 13.8348 85.5269 14.159C84.633 14.5084 83.4516 14.6462 82.2006 14.7923C80.0095 15.0477 77.5262 15.3374 75.7929 16.9727C74.0595 18.6081 73.7526 20.9516 73.4816 23.0193C73.3271 24.1994 73.1811 25.3141 72.8105 26.1576C72.4671 26.939 71.757 27.7872 71.0052 28.6848C69.6134 30.3468 68.0363 32.2305 68.0363 34.642C68.0363 37.0534 69.6136 38.9371 71.0052 40.5991C71.7568 41.4967 72.4671 42.3449 72.8105 43.1263C73.1811 43.9698 73.3271 45.0843 73.4816 46.2648C73.7526 48.3323 74.0596 50.6758 75.7926 52.311C77.5257 53.9465 80.0093 54.2359 82.2003 54.4916C82.8535 54.5678 83.4866 54.6426 84.071 54.7457V81.3161C84.071 82.3574 84.6869 83.2874 85.6786 83.743C86.6701 84.1994 87.8257 84.0836 88.6952 83.4412L92.6548 80.5155V112.611C92.6548 115.298 90.3376 117.485 87.4894 117.485H9.89082C7.04262 117.485 4.72541 115.298 4.72541 112.611V23.9151C4.72541 22.9441 3.89166 22.1573 2.86271 22.1573C1.83375 22.1573 1 22.9441 1 23.9151V112.611C1 117.236 4.98843 121 9.89082 121H87.4897C92.3921 121 96.3805 117.236 96.3805 112.611V80.5152L100.34 83.4407C100.857 83.8227 101.475 84.0187 102.101 84.0187C102.527 84.0187 102.956 83.9275 103.358 83.7426C104.35 83.287 104.967 82.357 104.967 81.3159V61.6994C104.967 60.7284 104.133 59.9416 103.104 59.9416C102.075 59.9416 101.241 60.7284 101.241 61.6994V79.642L96.2898 75.9836C95.7894 75.6098 95.16 75.4037 94.5175 75.4037C93.875 75.4037 93.2457 75.6098 92.7532 75.9775L87.7961 79.6401V56.5248C87.9313 56.6247 88.0671 56.7257 88.2047 56.8281C89.9661 58.1416 91.9624 59.6296 94.518 59.6296C97.0734 59.6296 99.0697 58.1413 100.831 56.8284C101.783 56.1191 102.681 55.4488 103.509 55.1247C104.403 54.7752 105.585 54.6374 106.836 54.4914C109.027 54.2359 111.51 53.9463 113.244 52.311C114.976 50.6755 115.283 48.332 115.554 46.2646C115.709 45.0843 115.855 43.9696 116.226 43.1261C116.569 42.3447 117.279 41.4965 118.031 40.5988C119.423 38.9369 121 37.0532 121 34.6417C121 32.2302 119.423 30.3466 118.031 28.6846ZM115.108 38.4191C114.232 39.4656 113.326 40.5475 112.785 41.7794C112.22 43.0638 112.036 44.4716 111.857 45.8331C111.641 47.4845 111.437 49.0443 110.61 49.8248C109.783 50.6052 108.129 50.7979 106.379 51.002C104.936 51.1703 103.445 51.3442 102.083 51.877C100.778 52.3877 99.6313 53.2424 98.5223 54.0693C97.1119 55.1205 95.78 56.1137 94.5185 56.1137C93.2571 56.1137 91.9251 55.1207 90.5147 54.0693C89.4058 53.2427 88.2593 52.3877 86.9539 51.877C86.864 51.8418 86.5521 51.7298 86.4848 51.7101C85.2537 51.306 83.9366 51.1511 82.6576 51.002C80.9074 50.7979 79.2543 50.605 78.427 49.8245C77.6002 49.0443 77.3958 47.4845 77.1795 45.8334C77.0011 44.4716 76.8168 43.0642 76.2523 41.7794C75.7109 40.5475 74.8051 39.4656 73.9289 38.4191C72.815 37.0884 71.7625 35.8316 71.7625 34.6417C71.7625 33.4518 72.8148 32.1951 73.9289 30.8643C74.8051 29.8178 75.7111 28.7359 76.2523 27.5041C76.8168 26.2197 77.0014 24.8118 77.1795 23.4503C77.3958 21.7989 77.6002 20.2391 78.4272 19.4587C79.2545 18.6782 80.9076 18.4855 82.6578 18.2814C84.1008 18.1131 85.5924 17.9392 86.9539 17.4065C88.2593 16.8958 89.4058 16.041 90.5147 15.2141C91.9222 14.1648 93.2519 13.1739 94.5111 13.1702C94.5133 13.1702 94.5158 13.1704 94.518 13.1704C94.5205 13.1704 94.523 13.1702 94.5255 13.1702C95.7849 13.1737 97.1146 14.1648 98.5223 15.2141C99.6313 16.0408 100.778 16.8958 102.083 17.4065C103.444 17.9392 104.937 18.1134 106.379 18.2814C108.13 18.4855 109.783 18.6784 110.61 19.4589C111.437 20.2394 111.641 21.7989 111.858 23.4503C112.036 24.8118 112.22 26.2195 112.785 27.5041C113.326 28.7359 114.232 29.8178 115.108 30.8643C116.222 32.1951 117.275 33.4518 117.275 34.6417C117.275 35.8316 116.222 37.0886 115.108 38.4191Z"/>
</mask>
<path d="M118.031 28.6846C117.28 27.787 116.569 26.9387 116.226 26.1573C115.855 25.3138 115.709 24.1994 115.555 23.0191C115.284 20.9514 114.977 18.6079 113.244 16.9727C111.511 15.3374 109.027 15.0477 106.836 14.792C105.585 14.6462 104.404 14.5084 103.51 14.1588C102.681 13.8346 101.783 13.1648 100.831 12.4553C99.5222 11.4791 98.0825 10.4073 96.3802 9.92102V9.38922C96.3805 4.76359 92.3921 1 87.4897 1H9.89082C4.98843 1 1 4.76359 1 9.38945V16.1744C1 17.1454 1.83375 17.9322 2.86271 17.9322C3.89166 17.9322 4.72541 17.1454 4.72541 16.1744V9.38945C4.72541 6.70187 7.04262 4.51562 9.89082 4.51562H87.4897C90.3379 4.51562 92.6551 6.70187 92.6551 9.38945V9.92148C90.9533 10.408 89.5141 11.4794 88.2049 12.4555C87.2535 13.1648 86.3549 13.8348 85.5269 14.159C84.633 14.5084 83.4516 14.6462 82.2006 14.7923C80.0095 15.0477 77.5262 15.3374 75.7929 16.9727C74.0595 18.6081 73.7526 20.9516 73.4816 23.0193C73.3271 24.1994 73.1811 25.3141 72.8105 26.1576C72.4671 26.939 71.757 27.7872 71.0052 28.6848C69.6134 30.3468 68.0363 32.2305 68.0363 34.642C68.0363 37.0534 69.6136 38.9371 71.0052 40.5991C71.7568 41.4967 72.4671 42.3449 72.8105 43.1263C73.1811 43.9698 73.3271 45.0843 73.4816 46.2648C73.7526 48.3323 74.0596 50.6758 75.7926 52.311C77.5257 53.9465 80.0093 54.2359 82.2003 54.4916C82.8535 54.5678 83.4866 54.6426 84.071 54.7457V81.3161C84.071 82.3574 84.6869 83.2874 85.6786 83.743C86.6701 84.1994 87.8257 84.0836 88.6952 83.4412L92.6548 80.5155V112.611C92.6548 115.298 90.3376 117.485 87.4894 117.485H9.89082C7.04262 117.485 4.72541 115.298 4.72541 112.611V23.9151C4.72541 22.9441 3.89166 22.1573 2.86271 22.1573C1.83375 22.1573 1 22.9441 1 23.9151V112.611C1 117.236 4.98843 121 9.89082 121H87.4897C92.3921 121 96.3805 117.236 96.3805 112.611V80.5152L100.34 83.4407C100.857 83.8227 101.475 84.0187 102.101 84.0187C102.527 84.0187 102.956 83.9275 103.358 83.7426C104.35 83.287 104.967 82.357 104.967 81.3159V61.6994C104.967 60.7284 104.133 59.9416 103.104 59.9416C102.075 59.9416 101.241 60.7284 101.241 61.6994V79.642L96.2898 75.9836C95.7894 75.6098 95.16 75.4037 94.5175 75.4037C93.875 75.4037 93.2457 75.6098 92.7532 75.9775L87.7961 79.6401V56.5248C87.9313 56.6247 88.0671 56.7257 88.2047 56.8281C89.9661 58.1416 91.9624 59.6296 94.518 59.6296C97.0734 59.6296 99.0697 58.1413 100.831 56.8284C101.783 56.1191 102.681 55.4488 103.509 55.1247C104.403 54.7752 105.585 54.6374 106.836 54.4914C109.027 54.2359 111.51 53.9463 113.244 52.311C114.976 50.6755 115.283 48.332 115.554 46.2646C115.709 45.0843 115.855 43.9696 116.226 43.1261C116.569 42.3447 117.279 41.4965 118.031 40.5988C119.423 38.9369 121 37.0532 121 34.6417C121 32.2302 119.423 30.3466 118.031 28.6846ZM115.108 38.4191C114.232 39.4656 113.326 40.5475 112.785 41.7794C112.22 43.0638 112.036 44.4716 111.857 45.8331C111.641 47.4845 111.437 49.0443 110.61 49.8248C109.783 50.6052 108.129 50.7979 106.379 51.002C104.936 51.1703 103.445 51.3442 102.083 51.877C100.778 52.3877 99.6313 53.2424 98.5223 54.0693C97.1119 55.1205 95.78 56.1137 94.5185 56.1137C93.2571 56.1137 91.9251 55.1207 90.5147 54.0693C89.4058 53.2427 88.2593 52.3877 86.9539 51.877C86.864 51.8418 86.5521 51.7298 86.4848 51.7101C85.2537 51.306 83.9366 51.1511 82.6576 51.002C80.9074 50.7979 79.2543 50.605 78.427 49.8245C77.6002 49.0443 77.3958 47.4845 77.1795 45.8334C77.0011 44.4716 76.8168 43.0642 76.2523 41.7794C75.7109 40.5475 74.8051 39.4656 73.9289 38.4191C72.815 37.0884 71.7625 35.8316 71.7625 34.6417C71.7625 33.4518 72.8148 32.1951 73.9289 30.8643C74.8051 29.8178 75.7111 28.7359 76.2523 27.5041C76.8168 26.2197 77.0014 24.8118 77.1795 23.4503C77.3958 21.7989 77.6002 20.2391 78.4272 19.4587C79.2545 18.6782 80.9076 18.4855 82.6578 18.2814C84.1008 18.1131 85.5924 17.9392 86.9539 17.4065C88.2593 16.8958 89.4058 16.041 90.5147 15.2141C91.9222 14.1648 93.2519 13.1739 94.5111 13.1702C94.5133 13.1702 94.5158 13.1704 94.518 13.1704C94.5205 13.1704 94.523 13.1702 94.5255 13.1702C95.7849 13.1737 97.1146 14.1648 98.5223 15.2141C99.6313 16.0408 100.778 16.8958 102.083 17.4065C103.444 17.9392 104.937 18.1134 106.379 18.2814C108.13 18.4855 109.783 18.6784 110.61 19.4589C111.437 20.2394 111.641 21.7989 111.858 23.4503C112.036 24.8118 112.22 26.2195 112.785 27.5041C113.326 28.7359 114.232 29.8178 115.108 30.8643C116.222 32.1951 117.275 33.4518 117.275 34.6417C117.275 35.8316 116.222 37.0886 115.108 38.4191Z" fill="#383530"/>
<path d="M118.031 28.6846C117.28 27.787 116.569 26.9387 116.226 26.1573C115.855 25.3138 115.709 24.1994 115.555 23.0191C115.284 20.9514 114.977 18.6079 113.244 16.9727C111.511 15.3374 109.027 15.0477 106.836 14.792C105.585 14.6462 104.404 14.5084 103.51 14.1588C102.681 13.8346 101.783 13.1648 100.831 12.4553C99.5222 11.4791 98.0825 10.4073 96.3802 9.92102V9.38922C96.3805 4.76359 92.3921 1 87.4897 1H9.89082C4.98843 1 1 4.76359 1 9.38945V16.1744C1 17.1454 1.83375 17.9322 2.86271 17.9322C3.89166 17.9322 4.72541 17.1454 4.72541 16.1744V9.38945C4.72541 6.70187 7.04262 4.51562 9.89082 4.51562H87.4897C90.3379 4.51562 92.6551 6.70187 92.6551 9.38945V9.92148C90.9533 10.408 89.5141 11.4794 88.2049 12.4555C87.2535 13.1648 86.3549 13.8348 85.5269 14.159C84.633 14.5084 83.4516 14.6462 82.2006 14.7923C80.0095 15.0477 77.5262 15.3374 75.7929 16.9727C74.0595 18.6081 73.7526 20.9516 73.4816 23.0193C73.3271 24.1994 73.1811 25.3141 72.8105 26.1576C72.4671 26.939 71.757 27.7872 71.0052 28.6848C69.6134 30.3468 68.0363 32.2305 68.0363 34.642C68.0363 37.0534 69.6136 38.9371 71.0052 40.5991C71.7568 41.4967 72.4671 42.3449 72.8105 43.1263C73.1811 43.9698 73.3271 45.0843 73.4816 46.2648C73.7526 48.3323 74.0596 50.6758 75.7926 52.311C77.5257 53.9465 80.0093 54.2359 82.2003 54.4916C82.8535 54.5678 83.4866 54.6426 84.071 54.7457V81.3161C84.071 82.3574 84.6869 83.2874 85.6786 83.743C86.6701 84.1994 87.8257 84.0836 88.6952 83.4412L92.6548 80.5155V112.611C92.6548 115.298 90.3376 117.485 87.4894 117.485H9.89082C7.04262 117.485 4.72541 115.298 4.72541 112.611V23.9151C4.72541 22.9441 3.89166 22.1573 2.86271 22.1573C1.83375 22.1573 1 22.9441 1 23.9151V112.611C1 117.236 4.98843 121 9.89082 121H87.4897C92.3921 121 96.3805 117.236 96.3805 112.611V80.5152L100.34 83.4407C100.857 83.8227 101.475 84.0187 102.101 84.0187C102.527 84.0187 102.956 83.9275 103.358 83.7426C104.35 83.287 104.967 82.357 104.967 81.3159V61.6994C104.967 60.7284 104.133 59.9416 103.104 59.9416C102.075 59.9416 101.241 60.7284 101.241 61.6994V79.642L96.2898 75.9836C95.7894 75.6098 95.16 75.4037 94.5175 75.4037C93.875 75.4037 93.2457 75.6098 92.7532 75.9775L87.7961 79.6401V56.5248C87.9313 56.6247 88.0671 56.7257 88.2047 56.8281C89.9661 58.1416 91.9624 59.6296 94.518 59.6296C97.0734 59.6296 99.0697 58.1413 100.831 56.8284C101.783 56.1191 102.681 55.4488 103.509 55.1247C104.403 54.7752 105.585 54.6374 106.836 54.4914C109.027 54.2359 111.51 53.9463 113.244 52.311C114.976 50.6755 115.283 48.332 115.554 46.2646C115.709 45.0843 115.855 43.9696 116.226 43.1261C116.569 42.3447 117.279 41.4965 118.031 40.5988C119.423 38.9369 121 37.0532 121 34.6417C121 32.2302 119.423 30.3466 118.031 28.6846ZM115.108 38.4191C114.232 39.4656 113.326 40.5475 112.785 41.7794C112.22 43.0638 112.036 44.4716 111.857 45.8331C111.641 47.4845 111.437 49.0443 110.61 49.8248C109.783 50.6052 108.129 50.7979 106.379 51.002C104.936 51.1703 103.445 51.3442 102.083 51.877C100.778 52.3877 99.6313 53.2424 98.5223 54.0693C97.1119 55.1205 95.78 56.1137 94.5185 56.1137C93.2571 56.1137 91.9251 55.1207 90.5147 54.0693C89.4058 53.2427 88.2593 52.3877 86.9539 51.877C86.864 51.8418 86.5521 51.7298 86.4848 51.7101C85.2537 51.306 83.9366 51.1511 82.6576 51.002C80.9074 50.7979 79.2543 50.605 78.427 49.8245C77.6002 49.0443 77.3958 47.4845 77.1795 45.8334C77.0011 44.4716 76.8168 43.0642 76.2523 41.7794C75.7109 40.5475 74.8051 39.4656 73.9289 38.4191C72.815 37.0884 71.7625 35.8316 71.7625 34.6417C71.7625 33.4518 72.8148 32.1951 73.9289 30.8643C74.8051 29.8178 75.7111 28.7359 76.2523 27.5041C76.8168 26.2197 77.0014 24.8118 77.1795 23.4503C77.3958 21.7989 77.6002 20.2391 78.4272 19.4587C79.2545 18.6782 80.9076 18.4855 82.6578 18.2814C84.1008 18.1131 85.5924 17.9392 86.9539 17.4065C88.2593 16.8958 89.4058 16.041 90.5147 15.2141C91.9222 14.1648 93.2519 13.1739 94.5111 13.1702C94.5133 13.1702 94.5158 13.1704 94.518 13.1704C94.5205 13.1704 94.523 13.1702 94.5255 13.1702C95.7849 13.1737 97.1146 14.1648 98.5223 15.2141C99.6313 16.0408 100.778 16.8958 102.083 17.4065C103.444 17.9392 104.937 18.1134 106.379 18.2814C108.13 18.4855 109.783 18.6784 110.61 19.4589C111.437 20.2394 111.641 21.7989 111.858 23.4503C112.036 24.8118 112.22 26.2195 112.785 27.5041C113.326 28.7359 114.232 29.8178 115.108 30.8643C116.222 32.1951 117.275 33.4518 117.275 34.6417C117.275 35.8316 116.222 37.0886 115.108 38.4191Z" stroke="#383530" stroke-width="0.4" mask="url(#path-14-outside-1)"/>
<path d="M106.503 28.9592L106.477 29.0558L106.503 28.9592L100.199 27.2761L96.555 22.1399L96.555 22.1399C96.0975 21.4953 95.3358 21.1129 94.5184 21.1129C93.701 21.1129 92.939 21.4956 92.4817 22.1399L92.4817 22.1399L88.8375 27.2761L82.5333 28.9594L82.5332 28.9594C81.746 29.1698 81.1219 29.7351 80.8675 30.4743C80.613 31.214 80.766 32.0204 81.2743 32.6294L85.3234 37.4848L85.0721 43.6565C85.0721 43.6565 85.0721 43.6565 85.0721 43.6566C85.0401 44.4346 85.4195 45.1702 86.0831 45.6254L86.0831 45.6254C86.5088 45.9172 87.0127 46.0678 87.5218 46.0678C87.8065 46.0678 88.0928 46.0208 88.3678 45.9252L94.5179 43.7902L100.667 45.9249C101.435 46.1921 102.289 46.0802 102.952 45.6259C103.616 45.1711 103.996 44.4358 103.964 43.6575L103.713 37.4846L107.762 32.6291L107.762 32.6291C108.27 32.0195 108.423 31.2135 108.168 30.4738C107.915 29.7345 107.29 29.1695 106.503 28.9592ZM100.294 35.5878L100.294 35.5878C99.9342 36.0198 99.7475 36.5609 99.7696 37.1134L99.7696 37.1134L99.9569 41.7208L95.3636 40.1262C95.3636 40.1262 95.3636 40.1262 95.3636 40.1262C94.818 39.9367 94.2175 39.937 93.6729 40.126L89.0791 41.7208L89.2666 37.1118L89.2666 37.1117C89.2885 36.561 89.1015 36.02 88.7411 35.5867L88.7411 35.5866L85.7234 31.9681L90.4249 30.7131L90.4249 30.7131C90.9833 30.5636 91.47 30.2303 91.7942 29.7732L94.5179 25.9342L97.2413 29.7727C97.5658 30.23 98.0525 30.5634 98.6118 30.7133L98.6119 30.7133L103.312 31.9681L100.294 35.5878Z" fill="#383530" stroke="#383530" stroke-width="0.2"/>
</svg>
