<svg width="120" height="120" viewBox="0 0 120 120" fill="none" xmlns="http://www.w3.org/2000/svg">
<path d="M86.25 48.748C87.2855 48.748 88.125 47.9086 88.125 46.873C88.125 45.8375 87.2855 44.998 86.25 44.998C85.2145 44.998 84.375 45.8375 84.375 46.873C84.375 47.9086 85.2145 48.748 86.25 48.748Z" fill="#383530"/>
<path d="M107.623 106.875C109.556 104.798 110.627 102.114 110.627 99.2607L110.625 76.9913C110.625 71.5932 107.385 66.8101 102.375 64.8038L101.25 64.3538V62.7526L105.394 59.2988C109.909 55.5376 112.5 50.0063 112.5 44.1263C112.5 33.2363 103.639 24.3751 92.7487 24.3751H89.5519C87.2644 24.3751 85.2412 22.9163 84.5156 20.7451L83.5387 17.8145L75.6506 22.5488C72.9356 24.1763 71.25 27.152 71.25 30.317C71.25 34.9276 74.7244 38.702 79.1869 39.2626C77.4188 42.4445 75 47.9588 75 54.3751V55.727L80.6287 57.6038C80.6925 59.7188 81.5456 61.6988 83.0494 63.2026C83.9625 64.1157 85.0631 64.7551 86.25 65.1563V68.1582C80.5144 70.9707 76.875 76.7513 76.875 83.2238V95.6251H75.7763L73.6387 93.4876C72.615 92.462 71.1956 91.8751 69.7444 91.8751C67.6462 91.8751 65.7581 93.0413 64.8187 94.9201L64.4663 95.6251H63.75C63.7463 95.6251 63.7444 95.6251 63.7406 95.6251H40.9631L35.3381 61.8751H29.6513C25.7081 61.8751 22.5 65.0832 22.5 69.0245C22.5 69.3395 22.5206 69.6582 22.5619 69.9695L26.25 97.6238V103.474C26.25 104.711 26.595 105.859 27.15 106.873H1.875V118.123H118.125V106.873H107.623V106.875ZM105.759 72.5382C106.479 73.8732 106.875 75.3938 106.875 76.9913L106.877 99.2607C106.877 101.25 106.103 103.121 104.627 104.597C103.157 106.065 101.213 106.875 99.1575 106.875H76.875V99.3751H99.375V85.1251C99.375 80.132 101.784 75.452 105.759 72.5382ZM75 30.317C75 28.4626 75.9863 26.7188 77.5781 25.7663L81.5775 23.3663C83.1375 26.2632 86.175 28.1251 89.5519 28.1251H92.7487C101.573 28.1251 108.75 35.3045 108.75 44.1263C108.75 48.8907 106.652 53.3701 102.992 56.4207L101.25 57.8719V55.9276C101.25 55.4345 101.449 54.9507 101.799 54.602L103.352 53.0476C104.415 51.9863 105 50.5726 105 49.0707V48.7501C105 46.3051 103.433 44.2201 101.25 43.4457V41.2501C101.25 38.1488 98.7262 35.6251 95.625 35.6251H81.5625H80.3081C77.3813 35.6251 75 33.2438 75 30.317ZM84.375 57.347V54.8982L78.7913 53.0363C79.1813 46.6388 82.2562 41.2876 83.49 39.3751H84.375H95.625C96.66 39.3751 97.5 40.217 97.5 41.2501V46.8751H99.375C100.41 46.8751 101.25 47.717 101.25 48.7501V49.0707C101.25 49.5713 101.055 50.042 100.701 50.3963L99.1481 51.9507C98.0869 53.012 97.5 54.4238 97.5 55.9276V64.8488L91.875 70.4738L90 68.5988V65.6251H93.75V61.8751H88.9013C87.6919 61.8751 86.5556 61.4045 85.7006 60.5495C84.8456 59.6926 84.375 58.5563 84.375 57.347ZM80.625 83.222C80.625 78.2663 83.3944 73.8601 87.7425 71.6438L91.875 75.7763L99.8269 67.8245L100.984 68.2876C101.852 68.6344 102.647 69.0995 103.352 69.6582C98.535 73.2807 95.625 79.0145 95.625 85.1251V95.6251H80.625V83.222ZM66.7838 99.3751L68.1731 96.5963C68.6794 95.5838 70.1869 95.3419 70.9875 96.1388L73.125 98.2763V106.875H63.7406C62.7112 106.875 61.875 106.033 61.875 105V101.25C61.875 100.219 62.7131 99.3788 63.7463 99.3751H65.625H66.7838ZM29.6494 65.6251H32.1619L37.1606 95.6251H29.7656L26.2781 69.4707C26.2594 69.3245 26.25 69.1745 26.25 69.0245C26.25 67.1495 27.7744 65.6251 29.6494 65.6251ZM30 103.476V99.3751H58.47C58.26 99.9638 58.125 100.588 58.125 101.25V105C58.125 105.662 58.26 106.286 58.47 106.875H33.3994C31.5244 106.875 30 105.351 30 103.476ZM114.375 114.375H5.625V110.625H33.3994H65.625H114.375V114.375Z" fill="#383530"/>
<path d="M9.375 9.375H43.125V13.125H9.375V9.375Z" fill="#383530"/>
<path d="M39.375 16.875H43.125V20.625H39.375V16.875Z" fill="#383530"/>
<path d="M9.375 16.875H35.625V20.625H9.375V16.875Z" fill="#383530"/>
<path d="M9.375 24.375H43.125V28.125H9.375V24.375Z" fill="#383530"/>
<path d="M7.5 35.625H25.6819L35.7337 42.3262C36.5194 42.8494 37.4306 43.125 38.3719 43.125C40.9912 43.125 43.125 40.9931 43.125 38.3719V35.625H45C48.1012 35.625 50.625 33.1012 50.625 30V7.5C50.625 4.39875 48.1012 1.875 45 1.875H7.5C4.39875 1.875 1.875 4.39875 1.875 7.5V30C1.875 33.1012 4.39875 35.625 7.5 35.625ZM5.625 7.5C5.625 6.46688 6.465 5.625 7.5 5.625H45C46.035 5.625 46.875 6.46688 46.875 7.5V30C46.875 31.0331 46.035 31.875 45 31.875H39.375V38.3719C39.375 39.1237 38.4356 39.6225 37.815 39.2062L26.8181 31.875H7.5C6.465 31.875 5.625 31.0331 5.625 30V7.5Z" fill="#383530"/>
<path d="M48.75 54.375H63.75V58.125H48.75V54.375Z" fill="#383530"/>
<path d="M41.25 52.5V60C41.25 62.445 42.8175 64.53 45 65.3044V68.5987C45 71.0944 47.0306 73.125 49.5262 73.125C50.7206 73.125 51.8869 72.6412 52.7269 71.7994L58.9012 65.625H65.625C68.7262 65.625 71.25 63.1012 71.25 60V52.5C71.25 49.3987 68.7262 46.875 65.625 46.875H46.875C43.7737 46.875 41.25 49.3987 41.25 52.5ZM67.5 52.5V60C67.5 61.0331 66.66 61.875 65.625 61.875H57.3488L50.0737 69.1481C49.6312 69.5925 48.7481 69.2325 48.75 68.5987V61.875H46.875C45.84 61.875 45 61.0331 45 60V52.5C45 51.4669 45.84 50.625 46.875 50.625H65.625C66.66 50.625 67.5 51.4669 67.5 52.5Z" fill="#383530"/>
</svg>
