<svg width="34" height="34" viewBox="0 0 34 34" fill="none" xmlns="http://www.w3.org/2000/svg">
<path d="M1.45967 0.881223L32.5133 16.3952C32.6827 16.4798 32.8253 16.6107 32.925 16.7733C33.0247 16.9358 33.0775 17.1234 33.0775 17.3148C33.0775 17.5062 33.0247 17.6938 32.925 17.8563C32.8253 18.0188 32.6827 18.1498 32.5133 18.2344L1.45765 33.7484C1.28367 33.835 1.08879 33.8692 0.89622 33.8467C0.703649 33.8242 0.521505 33.7461 0.371481 33.6217C0.221456 33.4972 0.109874 33.3317 0.0500226 33.1447C-0.00982853 32.9578 -0.0154257 32.7574 0.0338973 32.5673L3.10994 20.7873C3.1598 20.5967 3.26283 20.4247 3.40667 20.2919C3.55051 20.1592 3.72906 20.0713 3.92091 20.0389L17.8369 17.687C17.9198 17.673 17.998 17.6384 18.0644 17.5861C18.1308 17.5338 18.1833 17.4656 18.2171 17.3876L18.2535 17.2646C18.2724 17.1505 18.2527 17.0334 18.1976 16.9321C18.1426 16.8309 18.0554 16.7515 17.9502 16.7068L17.8369 16.674L3.84406 14.3098C3.65258 14.277 3.47446 14.189 3.33101 14.0562C3.18755 13.9235 3.08483 13.7517 3.03511 13.5614L0.0338973 2.06435C-0.0159387 1.87415 -0.0107288 1.67342 0.0489054 1.48614C0.10854 1.29885 0.220078 1.13293 0.370201 1.00818C0.520325 0.883429 0.702689 0.805122 0.895518 0.782609C1.08835 0.760097 1.28349 0.794331 1.45765 0.881223H1.45967Z" fill="#0054A5"/>
</svg>
