<svg width="60" height="60" viewBox="0 0 60 60" fill="none" xmlns="http://www.w3.org/2000/svg">
<circle cx="30.0194" cy="29.7733" r="26.7694" stroke="#FBFBFB" stroke-width="6"/>
<mask id="mask0" mask-type="alpha" maskUnits="userSpaceOnUse" x="4" y="4" width="52" height="52">
<mask id="path-2-inside-1" mask-type="luminance" fill="white">
<path d="M30.0188 23.7472C28.8272 23.7477 27.6625 24.1015 26.6719 24.7638C25.6813 25.4262 24.9093 26.3674 24.4536 27.4684C23.9979 28.5695 23.8789 29.781 24.1116 30.9497C24.3444 32.1183 24.9184 33.1918 25.7612 34.0342C26.604 34.8767 27.6776 35.4503 28.8464 35.6827C30.0152 35.915 31.2266 35.7955 32.3275 35.3394C33.4284 34.8833 34.3693 34.111 35.0313 33.1201C35.6933 32.1293 36.0466 30.9644 36.0466 29.7727C36.0454 28.1747 35.4099 26.6424 34.2797 25.5126C33.1494 24.3828 31.6169 23.7478 30.0188 23.7472ZM44.1066 19.1157C43.7999 18.3383 43.3367 17.6323 42.7457 17.0413C42.1548 16.4504 41.4487 15.9872 40.6714 15.6805C38.2991 14.744 32.6509 14.9541 30.0188 14.9541C27.3868 14.9541 21.7442 14.7361 19.3652 15.6805C18.5878 15.9872 17.8818 16.4504 17.2908 17.0413C16.6999 17.6323 16.2367 18.3383 15.9299 19.1157C14.9946 21.4879 15.2036 27.1418 15.2036 29.7716C15.2036 32.4014 14.9946 38.0485 15.9345 40.4287C16.2412 41.206 16.7044 41.9121 17.2953 42.503C17.8863 43.094 18.5923 43.5572 19.3697 43.8639C21.7419 44.8004 27.3902 44.5903 30.0234 44.5903C32.6566 44.5903 38.2969 44.8083 40.6759 43.8639C41.4533 43.5572 42.1593 43.094 42.7502 42.503C43.3412 41.9121 43.8044 41.206 44.1111 40.4287C45.0544 38.0564 44.8375 32.4026 44.8375 29.7727C44.8375 27.1429 45.0544 21.497 44.1111 19.1168L44.1066 19.1157ZM30.0188 39.0358C28.1868 39.0358 26.3959 38.4925 24.8726 37.4747C23.3493 36.4569 22.162 35.0102 21.4609 33.3176C20.7598 31.625 20.5763 29.7625 20.9338 27.9656C21.2912 26.1688 22.1734 24.5182 23.4689 23.2228C24.7643 21.9273 26.4148 21.0451 28.2117 20.6877C30.0086 20.3302 31.8711 20.5137 33.5637 21.2148C35.2563 21.9159 36.703 23.1032 37.7208 24.6265C38.7386 26.1498 39.2819 27.9407 39.2819 29.7727C39.2834 30.9896 39.0448 32.1948 38.5798 33.3193C38.1148 34.4438 37.4326 35.4656 36.5721 36.326C35.7117 37.1865 34.6899 37.8688 33.5654 38.3337C32.4409 38.7987 31.2357 39.0373 30.0188 39.0358ZM39.6637 22.2832C39.2361 22.2834 38.8179 22.1568 38.4622 21.9194C38.1065 21.6819 37.8292 21.3443 37.6654 20.9493C37.5016 20.5542 37.4586 20.1194 37.5419 19.7C37.6252 19.2805 37.831 18.8951 38.1333 18.5926C38.4357 18.2901 38.8209 18.0841 39.2404 18.0006C39.6598 17.9171 40.0946 17.9598 40.4898 18.1234C40.8849 18.287 41.2226 18.5642 41.4603 18.9197C41.6979 19.2753 41.8247 19.6934 41.8247 20.1211C41.8259 20.4051 41.771 20.6865 41.6632 20.9493C41.5554 21.212 41.3967 21.4509 41.1964 21.6522C40.996 21.8535 40.7579 22.0133 40.4957 22.1223C40.2334 22.2314 39.9523 22.2876 39.6683 22.2877L39.6637 22.2832ZM49.9006 4.46875H10.1371C8.69905 4.46875 7.31987 5.04003 6.30299 6.0569C5.28612 7.07378 4.71484 8.45296 4.71484 9.89104L4.71484 49.6545C4.71484 51.0925 5.28612 52.4717 6.30299 53.4886C7.31987 54.5055 8.69905 55.0767 10.1371 55.0767H49.9006C51.3386 55.0767 52.7178 54.5055 53.7347 53.4886C54.7516 52.4717 55.3228 51.0925 55.3228 49.6545V9.89104C55.3228 8.45296 54.7516 7.07378 53.7347 6.0569C52.7178 5.04003 51.3386 4.46875 49.9006 4.46875ZM47.9666 37.2284C47.8209 40.1237 47.16 42.6891 45.0465 44.797C42.9329 46.9049 40.3698 47.5793 37.4779 47.7171C34.4945 47.8854 25.55 47.8854 22.5666 47.7171C19.6713 47.5714 17.1149 46.9094 14.998 44.797C12.881 42.6846 12.2157 40.118 12.0779 37.2284C11.9095 34.2439 11.9095 25.2982 12.0779 22.3171C12.2236 19.4218 12.8765 16.8564 14.998 14.7485C17.1195 12.6406 19.6826 11.9741 22.5666 11.8363C25.55 11.668 34.4945 11.668 37.4779 11.8363C40.3731 11.982 42.9374 12.644 45.0465 14.7564C47.1555 16.8688 47.8288 19.4354 47.9666 22.3307C48.1349 25.3039 48.1349 34.2416 47.9666 37.2284Z"/>
</mask>
<path d="M30.0188 23.7472C28.8272 23.7477 27.6625 24.1015 26.6719 24.7638C25.6813 25.4262 24.9093 26.3674 24.4536 27.4684C23.9979 28.5695 23.8789 29.781 24.1116 30.9497C24.3444 32.1183 24.9184 33.1918 25.7612 34.0342C26.604 34.8767 27.6776 35.4503 28.8464 35.6827C30.0152 35.915 31.2266 35.7955 32.3275 35.3394C33.4284 34.8833 34.3693 34.111 35.0313 33.1201C35.6933 32.1293 36.0466 30.9644 36.0466 29.7727C36.0454 28.1747 35.4099 26.6424 34.2797 25.5126C33.1494 24.3828 31.6169 23.7478 30.0188 23.7472ZM44.1066 19.1157C43.7999 18.3383 43.3367 17.6323 42.7457 17.0413C42.1548 16.4504 41.4487 15.9872 40.6714 15.6805C38.2991 14.744 32.6509 14.9541 30.0188 14.9541C27.3868 14.9541 21.7442 14.7361 19.3652 15.6805C18.5878 15.9872 17.8818 16.4504 17.2908 17.0413C16.6999 17.6323 16.2367 18.3383 15.9299 19.1157C14.9946 21.4879 15.2036 27.1418 15.2036 29.7716C15.2036 32.4014 14.9946 38.0485 15.9345 40.4287C16.2412 41.206 16.7044 41.9121 17.2953 42.503C17.8863 43.094 18.5923 43.5572 19.3697 43.8639C21.7419 44.8004 27.3902 44.5903 30.0234 44.5903C32.6566 44.5903 38.2969 44.8083 40.6759 43.8639C41.4533 43.5572 42.1593 43.094 42.7502 42.503C43.3412 41.9121 43.8044 41.206 44.1111 40.4287C45.0544 38.0564 44.8375 32.4026 44.8375 29.7727C44.8375 27.1429 45.0544 21.497 44.1111 19.1168L44.1066 19.1157ZM30.0188 39.0358C28.1868 39.0358 26.3959 38.4925 24.8726 37.4747C23.3493 36.4569 22.162 35.0102 21.4609 33.3176C20.7598 31.625 20.5763 29.7625 20.9338 27.9656C21.2912 26.1688 22.1734 24.5182 23.4689 23.2228C24.7643 21.9273 26.4148 21.0451 28.2117 20.6877C30.0086 20.3302 31.8711 20.5137 33.5637 21.2148C35.2563 21.9159 36.703 23.1032 37.7208 24.6265C38.7386 26.1498 39.2819 27.9407 39.2819 29.7727C39.2834 30.9896 39.0448 32.1948 38.5798 33.3193C38.1148 34.4438 37.4326 35.4656 36.5721 36.326C35.7117 37.1865 34.6899 37.8688 33.5654 38.3337C32.4409 38.7987 31.2357 39.0373 30.0188 39.0358ZM39.6637 22.2832C39.2361 22.2834 38.8179 22.1568 38.4622 21.9194C38.1065 21.6819 37.8292 21.3443 37.6654 20.9493C37.5016 20.5542 37.4586 20.1194 37.5419 19.7C37.6252 19.2805 37.831 18.8951 38.1333 18.5926C38.4357 18.2901 38.8209 18.0841 39.2404 18.0006C39.6598 17.9171 40.0946 17.9598 40.4898 18.1234C40.8849 18.287 41.2226 18.5642 41.4603 18.9197C41.6979 19.2753 41.8247 19.6934 41.8247 20.1211C41.8259 20.4051 41.771 20.6865 41.6632 20.9493C41.5554 21.212 41.3967 21.4509 41.1964 21.6522C40.996 21.8535 40.7579 22.0133 40.4957 22.1223C40.2334 22.2314 39.9523 22.2876 39.6683 22.2877L39.6637 22.2832ZM49.9006 4.46875H10.1371C8.69905 4.46875 7.31987 5.04003 6.30299 6.0569C5.28612 7.07378 4.71484 8.45296 4.71484 9.89104L4.71484 49.6545C4.71484 51.0925 5.28612 52.4717 6.30299 53.4886C7.31987 54.5055 8.69905 55.0767 10.1371 55.0767H49.9006C51.3386 55.0767 52.7178 54.5055 53.7347 53.4886C54.7516 52.4717 55.3228 51.0925 55.3228 49.6545V9.89104C55.3228 8.45296 54.7516 7.07378 53.7347 6.0569C52.7178 5.04003 51.3386 4.46875 49.9006 4.46875ZM47.9666 37.2284C47.8209 40.1237 47.16 42.6891 45.0465 44.797C42.9329 46.9049 40.3698 47.5793 37.4779 47.7171C34.4945 47.8854 25.55 47.8854 22.5666 47.7171C19.6713 47.5714 17.1149 46.9094 14.998 44.797C12.881 42.6846 12.2157 40.118 12.0779 37.2284C11.9095 34.2439 11.9095 25.2982 12.0779 22.3171C12.2236 19.4218 12.8765 16.8564 14.998 14.7485C17.1195 12.6406 19.6826 11.9741 22.5666 11.8363C25.55 11.668 34.4945 11.668 37.4779 11.8363C40.3731 11.982 42.9374 12.644 45.0465 14.7564C47.1555 16.8688 47.8288 19.4354 47.9666 22.3307C48.1349 25.3039 48.1349 34.2416 47.9666 37.2284Z" fill="black"/>
<path d="M36.0466 29.7727H42.0466L42.0466 29.7683L36.0466 29.7727ZM44.1066 19.1157L38.5254 21.318L39.6582 24.1888L42.6524 24.9368L44.1066 19.1157ZM40.6714 15.6805L38.4683 21.2613L38.4691 21.2617L40.6714 15.6805ZM19.3652 15.6805L21.5675 21.2617L21.5789 21.2571L19.3652 15.6805ZM15.9299 19.1157L10.3487 16.9134L10.3481 16.9149L15.9299 19.1157ZM15.9345 40.4287L21.5157 38.2264L21.5151 38.225L15.9345 40.4287ZM19.3697 43.8639L21.5728 38.283L21.572 38.2827L19.3697 43.8639ZM40.6759 43.8639L38.4736 38.2827L38.4622 38.2872L40.6759 43.8639ZM44.1111 40.4287L38.5357 38.2118L38.5328 38.2191L38.5299 38.2264L44.1111 40.4287ZM44.1111 19.1168L49.6891 16.9063L48.5541 14.0423L45.5653 13.2957L44.1111 19.1168ZM39.2819 29.7727H33.2819L33.2819 29.7801L39.2819 29.7727ZM36.5721 36.326L32.3295 32.0834L36.5721 36.326ZM39.6637 22.2832L43.9064 18.0406L42.1477 16.2819L39.6606 16.2832L39.6637 22.2832ZM41.8247 20.1211L35.8247 20.1211V20.1336L35.8248 20.1462L41.8247 20.1211ZM39.6683 22.2877L35.4256 26.5304L37.1842 28.289L39.6713 28.2877L39.6683 22.2877ZM10.1371 4.46875V-1.53125V4.46875ZM4.71484 9.89104H-1.28516H4.71484ZM4.71484 49.6545H-1.28516H4.71484ZM10.1371 55.0767V61.0767V55.0767ZM49.9006 55.0767V61.0767V55.0767ZM55.3228 9.89104H61.3228H55.3228ZM47.9666 37.2284L41.9761 36.8908L41.9751 36.9088L41.9742 36.9268L47.9666 37.2284ZM37.4779 47.7171L37.1923 41.7239L37.1661 41.7252L37.1399 41.7267L37.4779 47.7171ZM22.5666 47.7171L22.9046 41.7267L22.8864 41.7256L22.8682 41.7247L22.5666 47.7171ZM12.0779 37.2284L18.071 36.9426L18.0698 36.9165L18.0683 36.8905L12.0779 37.2284ZM12.0779 22.3171L18.0683 22.6553L18.0693 22.637L18.0703 22.6187L12.0779 22.3171ZM22.5666 11.8363L22.853 17.8294L22.8788 17.8282L22.9046 17.8268L22.5666 11.8363ZM37.4779 11.8363L37.1399 17.8268L37.1581 17.8278L37.1763 17.8287L37.4779 11.8363ZM47.9666 22.3307L41.9734 22.6159L41.9747 22.6429L41.9762 22.6698L47.9666 22.3307ZM30.0166 17.7472C27.6384 17.7481 25.3138 18.4542 23.3368 19.7761L30.0069 29.7515C30.0111 29.7487 30.016 29.7472 30.0211 29.7472L30.0166 17.7472ZM23.3368 19.7761C21.3598 21.098 19.8192 22.9764 18.9097 25.1739L29.9975 29.763C29.9995 29.7583 30.0027 29.7543 30.0069 29.7515L23.3368 19.7761ZM18.9097 25.1739C18.0002 27.3714 17.7627 29.7891 18.2272 32.1216L29.9961 29.7777C29.9951 29.7728 29.9956 29.7677 29.9975 29.763L18.9097 25.1739ZM18.2272 32.1216C18.6917 34.454 19.8374 36.5963 21.5194 38.2777L30.0031 29.7908C29.9995 29.7872 29.9971 29.7827 29.9961 29.7777L18.2272 32.1216ZM21.5194 38.2777C23.2013 39.959 25.3441 41.1039 27.6767 41.5675L30.0161 29.7978C30.0112 29.7968 30.0066 29.7944 30.0031 29.7908L21.5194 38.2777ZM27.6767 41.5675C30.0093 42.0312 32.427 41.7928 34.6241 40.8824L30.0309 29.7963C30.0262 29.7983 30.0211 29.7988 30.0161 29.7978L27.6767 41.5675ZM34.6241 40.8824C36.8212 39.9721 38.6991 38.4308 40.0203 36.4533L30.0423 29.7869C30.0395 29.7911 30.0355 29.7944 30.0309 29.7963L34.6241 40.8824ZM40.0203 36.4533C41.3414 34.4758 42.0466 32.151 42.0466 29.7727H30.0466C30.0466 29.7778 30.0451 29.7827 30.0423 29.7869L40.0203 36.4533ZM42.0466 29.7683C42.0442 26.58 40.7763 23.5231 38.5215 21.2692L30.0378 29.756C30.0434 29.7617 30.0466 29.7693 30.0466 29.7772L42.0466 29.7683ZM38.5215 21.2692C36.2667 19.0152 33.2093 17.7484 30.0211 17.7472L30.0166 29.7472C30.0246 29.7472 30.0322 29.7504 30.0378 29.756L38.5215 21.2692ZM49.6878 16.9134C49.0794 15.3714 48.1605 13.9709 46.9884 12.7987L38.5031 21.284C38.5128 21.2937 38.5204 21.3053 38.5254 21.318L49.6878 16.9134ZM46.9884 12.7987C45.8162 11.6265 44.4157 10.7077 42.8737 10.0993L38.4691 21.2617C38.4818 21.2667 38.4934 21.2743 38.5031 21.284L46.9884 12.7987ZM42.8745 10.0996C40.5792 9.19347 37.5552 9.03 35.6325 8.9691C33.4757 8.9008 31.1143 8.95409 30.0188 8.95409V20.9541C31.5554 20.9541 33.3342 20.9023 35.2526 20.9631C36.1749 20.9923 36.9857 21.0455 37.6388 21.1264C38.3691 21.2168 38.5775 21.3045 38.4683 21.2613L42.8745 10.0996ZM30.0188 8.95409C28.9341 8.95409 26.5623 8.89891 24.4101 8.96605C22.4866 9.02605 19.4563 9.18882 17.1515 10.1038L21.5789 21.2571C21.4684 21.301 21.6749 21.2132 22.4029 21.1228C23.0541 21.0419 23.863 20.989 24.7842 20.9602C26.706 20.9003 28.4715 20.9541 30.0188 20.9541V8.95409ZM17.1629 10.0993C15.6209 10.7077 14.2204 11.6265 13.0482 12.7987L21.5335 21.284C21.5432 21.2743 21.5547 21.2667 21.5675 21.2617L17.1629 10.0993ZM13.0482 12.7987C11.876 13.9709 10.9572 15.3714 10.3487 16.9134L21.5111 21.318C21.5162 21.3053 21.5238 21.2937 21.5335 21.284L13.0482 12.7987ZM10.3481 16.9149C9.44358 19.2091 9.28003 22.2335 9.21902 24.1568C9.15055 26.3152 9.20358 28.6757 9.20358 29.7716H21.2036C21.2036 28.2377 21.1521 26.4564 21.213 24.5373C21.2423 23.6143 21.2955 22.8025 21.3764 22.1484C21.4669 21.4169 21.5546 21.2077 21.5117 21.3165L10.3481 16.9149ZM9.20358 29.7716C9.20358 30.8678 9.15053 33.2266 9.21964 35.3857C9.28129 37.3116 9.44656 40.3348 10.3538 42.6323L21.5151 38.225C21.5568 38.3304 21.4687 38.119 21.3779 37.3887C21.2966 36.7349 21.243 35.9239 21.2135 35.0018C21.1521 33.0849 21.2036 31.3052 21.2036 29.7716H9.20358ZM10.3533 42.631C10.9617 44.173 11.8805 45.5735 13.0527 46.7457L21.538 38.2604C21.5283 38.2507 21.5207 38.2391 21.5157 38.2264L10.3533 42.631ZM13.0527 46.7457C14.2249 47.9178 15.6254 48.8367 17.1674 49.4451L21.572 38.2827C21.5592 38.2777 21.5477 38.2701 21.538 38.2604L13.0527 46.7457ZM17.1666 49.4448C19.4619 50.3509 22.4859 50.5144 24.4088 50.5753C26.5657 50.6436 28.9273 50.5903 30.0234 50.5903V38.5903C28.4862 38.5903 26.7071 38.642 24.7886 38.5813C23.8662 38.5521 23.0554 38.4989 22.4023 38.418C21.6719 38.3275 21.4635 38.2399 21.5728 38.283L17.1666 49.4448ZM30.0234 50.5903C31.1086 50.5903 33.4802 50.6455 35.6321 50.5783C37.5554 50.5183 40.5848 50.3555 42.8896 49.4406L38.4622 38.2872C38.5725 38.2434 38.3661 38.3312 37.6384 38.4216C36.9874 38.5025 36.1788 38.5554 35.2578 38.5842C33.3365 38.6441 31.5713 38.5903 30.0234 38.5903V50.5903ZM42.8782 49.4451C44.4202 48.8367 45.8207 47.9178 46.9929 46.7457L38.5076 38.2604C38.4979 38.2701 38.4863 38.2777 38.4736 38.2827L42.8782 49.4451ZM46.9929 46.7457C48.1651 45.5735 49.0839 44.173 49.6923 42.631L38.5299 38.2264C38.5249 38.2391 38.5173 38.2507 38.5076 38.2604L46.9929 46.7457ZM49.6866 42.6456C50.6027 40.3416 50.7651 37.3066 50.8251 35.3846C50.8924 33.2302 50.8375 30.8581 50.8375 29.7727H38.8375C38.8375 31.3173 38.891 33.087 38.831 35.01C38.8022 35.9323 38.7491 36.7421 38.6683 37.3936C38.5777 38.1229 38.4901 38.3265 38.5357 38.2118L49.6866 42.6456ZM50.8375 29.7727C50.8375 28.6876 50.8924 26.3173 50.8251 24.1637C50.765 22.2394 50.602 19.21 49.6891 16.9063L38.5332 21.3274C38.4899 21.2182 38.5778 21.426 38.6682 22.155C38.7492 22.8071 38.8022 23.6169 38.831 24.5386C38.891 26.4605 38.8375 28.2281 38.8375 29.7727H50.8375ZM45.5653 13.2957L45.5608 13.2946L42.6524 24.9368L42.657 24.9379L45.5653 13.2957ZM30.0188 33.0358C29.3735 33.0358 28.7426 32.8444 28.206 32.4859L21.5391 42.4635C24.0491 44.1407 27.0001 45.0358 30.0188 45.0358V33.0358ZM28.206 32.4859C27.6694 32.1273 27.2511 31.6177 27.0042 31.0215L15.9176 35.6137C17.0728 38.4026 19.0291 40.7864 21.5391 42.4635L28.206 32.4859ZM27.0042 31.0215C26.7572 30.4252 26.6926 29.7691 26.8185 29.1362L15.049 26.7951C14.4601 29.7558 14.7624 32.8247 15.9176 35.6137L27.0042 31.0215ZM26.8185 29.1362C26.9444 28.5032 27.2552 27.9218 27.7115 27.4654L19.2262 18.9801C17.0916 21.1147 15.638 23.8343 15.049 26.7951L26.8185 29.1362ZM27.7115 27.4654C28.1679 27.0091 28.7493 26.6983 29.3822 26.5724L27.0412 14.803C24.0804 15.3919 21.3608 16.8455 19.2262 18.9801L27.7115 27.4654ZM29.3822 26.5724C30.0152 26.4465 30.6713 26.5111 31.2676 26.7581L35.8598 15.6715C33.0708 14.5163 30.0019 14.214 27.0412 14.803L29.3822 26.5724ZM31.2676 26.7581C31.8638 27.005 32.3734 27.4233 32.732 27.9599L42.7096 21.293C41.0325 18.783 38.6487 16.8267 35.8598 15.6715L31.2676 26.7581ZM32.732 27.9599C33.0905 28.4965 33.2819 29.1274 33.2819 29.7727H45.2819C45.2819 26.754 44.3867 23.803 42.7096 21.293L32.732 27.9599ZM33.2819 29.7801C33.2824 30.2078 33.1986 30.6314 33.0352 31.0266L44.1245 35.612C44.891 33.7583 45.2844 31.7715 45.2819 29.7654L33.2819 29.7801ZM33.0352 31.0266C32.8717 31.4219 32.6319 31.781 32.3295 32.0834L40.8148 40.5687C42.2333 39.1502 43.358 37.4658 44.1245 35.612L33.0352 31.0266ZM32.3295 32.0834C32.0271 32.3858 31.668 32.6256 31.2727 32.7891L35.8581 43.8784C37.7119 43.1119 39.3963 41.9872 40.8148 40.5687L32.3295 32.0834ZM31.2727 32.7891C30.8775 32.9525 30.4539 33.0363 30.0262 33.0358L30.0115 45.0358C32.0175 45.0383 34.0043 44.645 35.8581 43.8784L31.2727 32.7891ZM39.6606 16.2832C40.4197 16.2828 41.1619 16.5076 41.7933 16.929L35.1311 26.9097C36.4739 27.8061 38.0524 28.2841 39.6669 28.2832L39.6606 16.2832ZM41.7933 16.929C42.4247 17.3505 42.917 17.9498 43.2078 18.651L32.123 23.2476C32.7414 24.7389 33.7882 26.0134 35.1311 26.9097L41.7933 16.929ZM43.2078 18.651C43.4985 19.3523 43.5748 20.124 43.427 20.8686L31.6568 18.5313C31.3423 20.1149 31.5046 21.7562 32.123 23.2476L43.2078 18.651ZM43.427 20.8686C43.2791 21.6132 42.9138 22.2972 42.3771 22.8342L33.8896 14.3511C32.7483 15.493 31.9712 16.9478 31.6568 18.5313L43.427 20.8686ZM42.3771 22.8342C41.8404 23.3711 41.1566 23.7368 40.4121 23.8851L38.0687 12.1161C36.4853 12.4314 35.0309 13.2092 33.8896 14.3511L42.3771 22.8342ZM40.4121 23.8851C39.6675 24.0333 38.8958 23.9574 38.1944 23.667L42.7851 12.5798C41.2935 11.9622 39.6521 11.8008 38.0687 12.1161L40.4121 23.8851ZM38.1944 23.667C37.493 23.3766 36.8935 22.8847 36.4717 22.2535L46.4489 15.586C45.5518 14.2437 44.2768 13.1975 42.7851 12.5798L38.1944 23.667ZM36.4717 22.2535C36.0499 21.6223 35.8247 20.8802 35.8247 20.1211L47.8247 20.1211C47.8247 18.5066 47.3459 16.9283 46.4489 15.586L36.4717 22.2535ZM35.8248 20.1462C35.8227 19.6404 35.9204 19.1392 36.1125 18.6713L47.214 23.2272C47.6216 22.2339 47.8292 21.1697 47.8247 20.0959L35.8248 20.1462ZM36.1125 18.6713C36.3045 18.2034 36.587 17.778 36.9438 17.4195L45.449 25.8848C46.2065 25.1238 46.8063 24.2206 47.214 23.2272L36.1125 18.6713ZM36.9438 17.4195C37.3006 17.0611 37.7246 16.7765 38.1916 16.5823L42.7997 27.6623C43.7912 27.25 44.6915 26.6459 45.449 25.8848L36.9438 17.4195ZM38.1916 16.5823C38.6586 16.3881 39.1594 16.288 39.6652 16.2877L39.6713 28.2877C40.7452 28.2872 41.8083 28.0746 42.7997 27.6623L38.1916 16.5823ZM43.9109 18.0451L43.9064 18.0406L35.4211 26.5259L35.4256 26.5304L43.9109 18.0451ZM49.9006 -1.53125H10.1371V10.4688H49.9006V-1.53125ZM10.1371 -1.53125C7.10775 -1.53125 4.20245 -0.327834 2.06035 1.81426L10.5456 10.2995C10.4373 10.4079 10.2903 10.4688 10.1371 10.4688V-1.53125ZM2.06035 1.81426C-0.0817404 3.95635 -1.28516 6.86166 -1.28516 9.89104H10.7148C10.7148 10.0443 10.654 10.1912 10.5456 10.2995L2.06035 1.81426ZM-1.28516 9.89104V49.6545H10.7148V9.89104H-1.28516ZM-1.28516 49.6545C-1.28516 52.6838 -0.0817409 55.5891 2.06035 57.7312L10.5456 49.246C10.654 49.3543 10.7148 49.5012 10.7148 49.6545H-1.28516ZM2.06035 57.7312C4.20245 59.8733 7.10775 61.0767 10.1371 61.0767V49.0767C10.2903 49.0767 10.4373 49.1376 10.5456 49.246L2.06035 57.7312ZM10.1371 61.0767H49.9006V49.0767H10.1371V61.0767ZM49.9006 61.0767C52.9299 61.0767 55.8352 59.8733 57.9773 57.7312L49.4921 49.246C49.6004 49.1376 49.7473 49.0767 49.9006 49.0767V61.0767ZM57.9773 57.7312C60.1194 55.5891 61.3228 52.6838 61.3228 49.6545H49.3228C49.3228 49.5012 49.3837 49.3543 49.4921 49.246L57.9773 57.7312ZM61.3228 49.6545V9.89104H49.3228V49.6545H61.3228ZM61.3228 9.89104C61.3228 6.86166 60.1194 3.95636 57.9773 1.81426L49.4921 10.2995C49.3837 10.1912 49.3228 10.0443 49.3228 9.89104H61.3228ZM57.9773 1.81426C55.8352 -0.327834 52.9299 -1.53125 49.9006 -1.53125V10.4688C49.7473 10.4688 49.6004 10.4079 49.4921 10.2995L57.9773 1.81426ZM41.9742 36.9268C41.8659 39.0777 41.4389 39.921 40.8095 40.5487L49.2834 49.0453C52.8812 45.4572 53.7758 41.1697 53.959 37.53L41.9742 36.9268ZM40.8095 40.5487C40.1611 41.1954 39.2994 41.6235 37.1923 41.7239L37.7635 53.7103C41.4401 53.5351 45.7048 52.6144 49.2834 49.0453L40.8095 40.5487ZM37.1399 41.7267C34.3817 41.8823 25.6628 41.8823 22.9046 41.7267L22.2286 53.7076C25.4371 53.8886 34.6073 53.8886 37.8158 53.7076L37.1399 41.7267ZM22.8682 41.7247C20.7287 41.617 19.8808 41.1932 19.2361 40.5498L10.7599 49.0442C14.3491 52.6257 18.6139 53.5258 22.265 53.7095L22.8682 41.7247ZM19.2361 40.5498C18.598 39.9131 18.1722 39.0643 18.071 36.9426L6.08467 37.5142C6.25911 41.1717 7.1641 45.4561 10.7599 49.0442L19.2361 40.5498ZM18.0683 36.8905C17.9127 34.131 17.9127 25.411 18.0683 22.6553L6.0874 21.9789C5.90635 25.1854 5.90637 34.3568 6.08737 37.5662L18.0683 36.8905ZM18.0703 22.6187C18.1792 20.4548 18.6033 19.6244 19.227 19.0047L10.769 10.4923C7.14971 14.0884 6.26798 18.3888 6.08544 22.0155L18.0703 22.6187ZM19.227 19.0047C19.8813 18.3546 20.7444 17.9302 22.853 17.8294L22.2802 5.84312C18.6208 6.01799 14.3576 6.92661 10.769 10.4923L19.227 19.0047ZM22.9046 17.8268C25.6628 17.6711 34.3817 17.6711 37.1399 17.8268L37.8158 5.84581C34.6073 5.66479 25.4371 5.66479 22.2286 5.84581L22.9046 17.8268ZM37.1763 17.8287C39.3241 17.9368 40.1696 18.3638 40.8004 18.9956L49.2925 10.5172C45.7053 6.92418 41.4222 6.02721 37.7795 5.84387L37.1763 17.8287ZM40.8004 18.9956C41.4436 19.6398 41.8727 20.5003 41.9734 22.6159L53.9598 22.0454C53.7849 18.3705 52.8675 14.0979 49.2925 10.5172L40.8004 18.9956ZM41.9762 22.6698C42.1317 25.4166 42.1318 34.1284 41.9761 36.8908L53.9571 37.566C54.1381 34.3548 54.1381 25.1912 53.957 21.9915L41.9762 22.6698Z" fill="#FBFBFB" mask="url(#path-2-inside-1)"/>
</mask>
<g mask="url(#mask0)">
<circle cx="30.0194" cy="29.7733" r="26.7694" fill="#FBFBFB" stroke="#FBFBFB" stroke-width="6"/>
</g>
</svg>
