<svg width="92" height="52" viewBox="0 0 92 52" fill="none" xmlns="http://www.w3.org/2000/svg">
<path d="M37.986 34.6165L37.455 33.1486L36.3435 34.2445C33.8693 36.6841 30.8914 37.8973 27.3515 37.8973C23.8661 37.8973 20.913 36.7097 18.4371 34.3193C15.9623 31.9299 14.7459 29.095 14.7459 25.7616C14.7459 22.4282 15.9623 19.5932 18.4371 17.2039C20.913 14.8135 23.8661 13.6258 27.3515 13.6258C30.8369 13.6258 33.7901 14.8135 36.266 17.2039C38.7408 19.5932 39.9572 22.4282 39.9572 25.7616C39.9572 32.5528 42.4675 38.3795 47.4481 43.188C52.4276 47.9955 58.4459 50.406 65.4474 50.406C72.4489 50.406 78.4672 47.9955 83.4467 43.188C88.4273 38.3795 90.9376 32.5528 90.9376 25.7616C90.9376 18.9704 88.4273 13.1437 83.4467 8.33509C78.4672 3.52759 72.4489 1.11719 65.4474 1.11719C59.5623 1.11719 54.302 2.88409 49.7023 6.41398L48.8669 7.05509L49.5503 7.85627C51.8534 10.5563 53.6067 13.5715 54.813 16.9067L55.3439 18.3746L56.4555 17.2786C58.9297 14.839 61.9075 13.6258 65.4474 13.6258C68.9328 13.6258 71.8859 14.8135 74.3618 17.2039C76.8366 19.5932 78.0531 22.4282 78.0531 25.7616C78.0531 29.095 76.8366 31.9299 74.3618 34.3193C71.8859 36.7097 68.9328 37.8973 65.4474 37.8973C61.962 37.8973 59.0089 36.7097 56.533 34.3193C54.0582 31.9299 52.8417 29.095 52.8417 25.7616C52.8417 18.9704 50.3314 13.1437 45.3508 8.33509C40.3713 3.52759 34.353 1.11719 27.3515 1.11719C20.3501 1.11719 14.3317 3.52759 9.35225 8.33509C4.37164 13.1437 1.86133 18.9704 1.86133 25.7616C1.86133 32.5528 4.37164 38.3795 9.35225 43.188C14.3317 47.9955 20.3501 50.406 27.3515 50.406C33.2367 50.406 38.497 48.639 43.0966 45.1092L43.9321 44.4681L43.2487 43.6669C40.9455 40.9668 39.1923 37.9517 37.986 34.6165Z" fill="#FBFBFB" stroke="#FBFBFB" stroke-width="2"/>
</svg>
