<svg width="104" height="104" viewBox="0 0 104 104" fill="none" xmlns="http://www.w3.org/2000/svg">
<path fill-rule="evenodd" clip-rule="evenodd" d="M29.6285 0.332764H74.4235C91.9385 0.332764 103.667 12.6294 103.667 30.9194V73.1363C103.667 91.3694 91.9385 103.666 74.4235 103.666H29.6285C12.1135 103.666 0.333496 91.3694 0.333496 73.1363V30.9194C0.333496 12.6294 12.1135 0.332764 29.6285 0.332764ZM49.053 67.4477L73.5946 42.9061C75.3513 41.1494 75.3513 38.3077 73.5946 36.4994C71.838 34.7427 68.9446 34.7427 67.188 36.4994L45.8496 57.8377L36.808 48.7961C35.0513 47.0394 32.158 47.0394 30.4013 48.7961C28.6446 50.5527 28.6446 53.3944 30.4013 55.2027L42.698 67.4477C43.5763 68.3261 44.713 68.7394 45.8496 68.7394C47.038 68.7394 48.1746 68.3261 49.053 67.4477Z" fill="#37C8EE"/>
</svg>
