<svg width="21" height="21" viewBox="0 0 21 21" fill="none" xmlns="http://www.w3.org/2000/svg">
<rect width="21" height="21" rx="7" fill="#E7EBED"/>
<g clip-path="url(#clip0)">
<path d="M10.5 5.58578C7.67322 5.58578 5.37207 7.46516 5.37207 9.77486C5.37207 11.8435 7.19675 13.5768 9.66028 13.9062C9.82737 13.9417 10.0547 14.0173 10.1124 14.1601C10.1637 14.2896 10.1462 14.4895 10.1286 14.6246L10.0585 15.063C10.0393 15.1925 9.95599 15.5728 10.5068 15.3403C11.0585 15.1087 13.4622 13.5866 14.5391 12.3409C15.2758 11.529 15.6279 10.697 15.6279 9.77486C15.6279 7.46516 13.3267 5.58578 10.5 5.58578ZM8.49283 11.1483H7.47323C7.3258 11.1483 7.20402 11.0256 7.20402 10.8778V8.8262C7.20402 8.67791 7.3258 8.55527 7.47323 8.55527C7.62194 8.55527 7.74245 8.67791 7.74245 8.8262V10.6069H8.49283C8.64154 10.6069 8.76162 10.7286 8.76162 10.8778C8.76162 11.0256 8.64111 11.1483 8.49283 11.1483ZM9.54661 10.8778C9.54661 11.0256 9.42611 11.1483 9.27697 11.1483C9.12954 11.1483 9.00904 11.0256 9.00904 10.8778V8.8262C9.00904 8.67791 9.12954 8.55527 9.27825 8.55527C9.42611 8.55527 9.54661 8.67791 9.54661 8.8262V10.8778ZM11.9999 10.8778C11.9999 10.994 11.9255 11.097 11.8153 11.1342C11.7879 11.1432 11.7585 11.1474 11.7302 11.1474C11.6401 11.1474 11.5632 11.1085 11.5123 11.0397L10.4684 9.61333V10.8774C10.4684 11.0252 10.3491 11.1479 10.1987 11.1479C10.0509 11.1479 9.93121 11.0252 9.93121 10.8774V8.8262C9.93121 8.70996 10.0051 8.60698 10.115 8.57023C10.1406 8.5604 10.1731 8.55613 10.1979 8.55613C10.2812 8.55613 10.3581 8.60099 10.4094 8.66552L11.4615 10.0975V8.8262C11.4615 8.67791 11.582 8.55527 11.7307 8.55527C11.8781 8.55527 11.9999 8.67791 11.9999 8.8262V10.8778ZM13.6472 9.58085C13.7964 9.58085 13.9164 9.70349 13.9164 9.8522C13.9164 10.0005 13.7964 10.1231 13.6472 10.1231H12.8973V10.6069H13.6472C13.7964 10.6069 13.9164 10.7286 13.9164 10.8778C13.9164 11.0256 13.7964 11.1483 13.6472 11.1483H12.6276C12.4802 11.1483 12.3597 11.0256 12.3597 10.8778V8.8262C12.3597 8.67791 12.4802 8.55527 12.6289 8.55527H13.6485C13.7964 8.55527 13.9164 8.67791 13.9164 8.8262C13.9164 8.97619 13.7964 9.09712 13.6472 9.09712H12.8973V9.58085H13.6472Z" fill="#7E8EB3"/>
</g>
<defs>
<clipPath id="clip0">
<rect width="10.2558" height="10.2558" fill="white" transform="translate(5.37207 5.3721)"/>
</clipPath>
</defs>
</svg>
