<svg width="21" height="21" viewBox="0 0 21 21" fill="none" xmlns="http://www.w3.org/2000/svg">
<rect width="21" height="21" rx="7" fill="#E7EBED"/>
<path d="M10.5011 6H10.4989C8.01769 6 6 8.01825 6 10.5C6 11.4844 6.31725 12.3967 6.85669 13.1376L6.29588 14.8093L8.02556 14.2564C8.73712 14.7277 9.58594 15 10.5011 15C12.9823 15 15 12.9812 15 10.5C15 8.01881 12.9823 6 10.5011 6Z" fill="#7E8EB3"/>
<path d="M13.1198 12.3545C13.0112 12.6611 12.5804 12.9154 12.2367 12.9896C12.0016 13.0397 11.6944 13.0796 10.6606 12.651C9.33812 12.1031 8.48649 10.7593 8.42012 10.6721C8.35655 10.5849 7.88574 9.96054 7.88574 9.31479C7.88574 8.66904 8.21368 8.3546 8.34587 8.2196C8.45443 8.10879 8.63387 8.05817 8.80599 8.05817C8.86168 8.05817 8.91174 8.06098 8.95674 8.06323C9.08893 8.06885 9.1553 8.07673 9.24249 8.28542C9.35105 8.54698 9.61543 9.19273 9.64693 9.2591C9.67899 9.32548 9.71106 9.41548 9.66605 9.50267C9.62387 9.59267 9.58674 9.6326 9.52037 9.7091C9.45399 9.7856 9.39099 9.8441 9.32462 9.92623C9.26387 9.99767 9.19524 10.0742 9.27174 10.2064C9.34824 10.3357 9.61262 10.7672 10.0019 11.1137C10.5042 11.5609 10.9114 11.7037 11.0571 11.7645C11.1657 11.8095 11.2951 11.7988 11.3744 11.7144C11.4751 11.6059 11.5994 11.4259 11.7259 11.2487C11.8159 11.1215 11.9296 11.1058 12.0488 11.1508C12.1703 11.193 12.8132 11.5108 12.9454 11.5766C13.0776 11.643 13.1648 11.6745 13.1969 11.7302C13.2284 11.7859 13.2284 12.0474 13.1198 12.3545Z" fill="#FAFAFA"/>
</svg>
