<svg width="133" height="133" viewBox="0 0 133 133" fill="none" xmlns="http://www.w3.org/2000/svg">
<path fill-rule="evenodd" clip-rule="evenodd" d="M54.8364 62.2327C52.4119 62.2327 50.4949 64.1169 50.4949 66.4998C50.4949 68.8273 52.4119 70.7669 54.8364 70.7669H88.6663V97.2561C88.6663 110.833 77.4461 121.917 63.5758 121.917H36.1172C22.3033 121.917 11.083 110.889 11.083 97.3115V35.7436C11.083 22.1111 22.3597 11.0832 36.1735 11.0832H63.6886C77.4461 11.0832 88.6663 22.1111 88.6663 35.6882V62.2327H54.8364ZM108.784 47.3266L124.965 63.4529C125.797 64.2841 126.24 65.3371 126.24 66.5008C126.24 67.6091 125.797 68.7175 124.965 69.4933L108.784 85.6196C107.952 86.4508 106.844 86.8941 105.791 86.8941C104.683 86.8941 103.575 86.4508 102.743 85.6196C101.081 83.9571 101.081 81.2416 102.743 79.5791L111.61 70.7679H88.6675V62.2337H111.61L102.743 53.4225C101.081 51.76 101.081 49.0446 102.743 47.3821C104.406 45.6641 107.121 45.6641 108.784 47.3266Z" fill="#37C8EE"/>
</svg>
