<svg width="43" height="43" viewBox="0 0 43 43" fill="none" xmlns="http://www.w3.org/2000/svg">
<rect width="43" height="43" rx="7" fill="#E7EBED"/>
<path d="M18.5157 30.6389V27.4538C18.5157 26.6407 19.1797 25.9816 19.9987 25.9816H22.9926C23.3859 25.9816 23.7631 26.1367 24.0413 26.4128C24.3194 26.6889 24.4756 27.0633 24.4756 27.4538V30.6389C24.4731 30.9769 24.6066 31.302 24.8465 31.5419C25.0864 31.7818 25.4129 31.9167 25.7534 31.9167H27.796C28.7499 31.9191 29.6657 31.5446 30.3411 30.8759C31.0166 30.2071 31.3962 29.299 31.3962 28.3519V19.278C31.3961 18.513 31.0546 17.7873 30.4635 17.2965L23.5149 11.7874C22.3062 10.8214 20.5744 10.8526 19.4018 11.8614L12.6118 17.2965C11.9928 17.7729 11.6228 18.5007 11.6045 19.278V28.3427C11.6045 30.3165 13.2163 31.9167 15.2047 31.9167H17.2006C17.9079 31.9167 18.4826 31.3502 18.4877 30.6482L18.5157 30.6389Z" fill="#7E8EB3"/>
</svg>
