<svg width="43" height="43" viewBox="0 0 43 43" fill="none" xmlns="http://www.w3.org/2000/svg">
<rect width="43" height="43" rx="7" fill="#E7EBED"/>
<path fill-rule="evenodd" clip-rule="evenodd" d="M26.7785 11.9993L26.7795 12.8114C29.7637 13.0453 31.735 15.0788 31.7382 18.1972L31.75 27.3252C31.7543 30.7251 29.6183 32.8171 26.1944 32.8225L17.8312 32.8333C14.4288 32.8376 12.2661 30.6959 12.2618 27.2862L12.25 18.2654C12.2457 15.1264 14.1475 13.0984 17.1317 12.8244L17.1306 12.0123C17.1295 11.5359 17.4825 11.1775 17.9531 11.1775C18.4238 11.1764 18.7767 11.5337 18.7778 12.0102L18.7789 12.7681L25.1323 12.7595L25.1313 12.0015C25.1302 11.5251 25.4832 11.1677 25.9538 11.1667C26.4137 11.1656 26.7774 11.5229 26.7785 11.9993ZM13.8983 18.6L30.0921 18.5784V18.1994C30.0461 15.8714 28.8781 14.65 26.7817 14.4681L26.7827 15.3018C26.7827 15.7674 26.4201 16.1367 25.9602 16.1367C25.4896 16.1378 25.1355 15.7696 25.1355 15.304L25.1345 14.427L18.781 14.4356L18.7821 15.3116C18.7821 15.7783 18.4302 16.1464 17.9596 16.1464C17.4889 16.1475 17.1349 15.7804 17.1349 15.3138L17.1338 14.48C15.0481 14.689 13.894 15.9147 13.8972 18.2633L13.8983 18.6ZM25.5099 23.5213V23.5332C25.5206 24.0313 25.9271 24.4092 26.4201 24.3984C26.9015 24.3865 27.2855 23.9739 27.2748 23.4758C27.2523 22.9994 26.8662 22.6107 26.3859 22.6118C25.8939 22.6226 25.5088 23.0232 25.5099 23.5213ZM26.3934 28.383C25.9014 28.3722 25.5046 27.9618 25.5035 27.4638C25.4928 26.9657 25.8875 26.5531 26.3795 26.5412H26.3902C26.8929 26.5412 27.3004 26.9516 27.3004 27.4605C27.3015 27.9694 26.895 28.382 26.3934 28.383ZM21.1031 23.5386C21.1245 24.0367 21.532 24.4254 22.0241 24.4038C22.5054 24.381 22.8894 23.9696 22.868 23.4715C22.8562 22.9842 22.4605 22.6053 21.9791 22.6064C21.4871 22.628 21.1021 23.0406 21.1031 23.5386ZM22.0283 28.3343C21.5363 28.356 21.1299 27.9673 21.1074 27.4692C21.1074 26.9711 21.4914 26.5596 21.9834 26.5369C22.4647 26.5358 22.8616 26.9148 22.8723 27.401C22.8947 27.9001 22.5097 28.3116 22.0283 28.3343ZM16.6964 23.5765C16.7178 24.0746 17.1253 24.4644 17.6173 24.4417C18.0986 24.42 18.4826 24.0075 18.4601 23.5094C18.4494 23.0221 18.0537 22.6432 17.5713 22.6443C17.0793 22.6659 16.6953 23.0785 16.6964 23.5765ZM17.6216 28.3397C17.1295 28.3625 16.7231 27.9727 16.7006 27.4746C16.6996 26.9765 17.0846 26.564 17.5766 26.5423C18.058 26.5412 18.4548 26.9202 18.4655 27.4074C18.4879 27.9055 18.104 28.3181 17.6216 28.3397Z" fill="#7E8EB3"/>
</svg>
