<svg width="43" height="43" viewBox="0 0 43 43" fill="none" xmlns="http://www.w3.org/2000/svg">
<rect width="43" height="43" rx="7" fill="#0054A5"/>
<path fill-rule="evenodd" clip-rule="evenodd" d="M18.414 27.1217H24.6978C25.1714 27.1217 25.5642 26.725 25.5642 26.2467C25.5642 25.7683 25.1714 25.3833 24.6978 25.3833H18.414C17.9404 25.3833 17.5477 25.7683 17.5477 26.2467C17.5477 26.725 17.9404 27.1217 18.414 27.1217ZM22.3183 19.55H18.414C17.9404 19.55 17.5477 19.9467 17.5477 20.425C17.5477 20.9033 17.9404 21.2883 18.414 21.2883H22.3183C22.7919 21.2883 23.1846 20.9033 23.1846 20.425C23.1846 19.9467 22.7919 19.55 22.3183 19.55ZM30.5617 18.5299C30.8332 18.5267 31.1289 18.5233 31.3975 18.5233C31.6863 18.5233 31.9173 18.7567 31.9173 19.0483V28.4283C31.9173 31.3217 29.5955 33.6667 26.7308 33.6667H17.5361C14.5328 33.6667 12.084 31.205 12.084 28.1717V15.595C12.084 12.7017 14.4173 10.3333 17.2936 10.3333H23.4619C23.7622 10.3333 23.9932 10.5783 23.9932 10.87V14.6267C23.9932 16.7617 25.7374 18.5117 27.8513 18.5233C28.3451 18.5233 28.7804 18.527 29.1613 18.5303C29.4577 18.5328 29.7211 18.535 29.9536 18.535C30.118 18.535 30.3312 18.5325 30.5617 18.5299ZM30.8803 16.827C29.9307 16.8305 28.8114 16.827 28.0063 16.8188C26.7288 16.8188 25.6765 15.756 25.6765 14.4657V11.3903C25.6765 10.8875 26.2806 10.6378 26.626 11.0007C27.2517 11.6578 28.1117 12.5612 28.9676 13.4603C29.8198 14.3555 30.6679 15.2464 31.2765 15.8855C31.6138 16.239 31.3666 16.8258 30.8803 16.827Z" fill="#FBFBFB"/>
</svg>
