<svg width="43" height="43" viewBox="0 0 43 43" fill="none" xmlns="http://www.w3.org/2000/svg">
<rect width="43" height="43" rx="7" fill="#E7EBED"/>
<path fill-rule="evenodd" clip-rule="evenodd" d="M18.414 27.1218H24.6978C25.1714 27.1218 25.5642 26.7252 25.5642 26.2468C25.5642 25.7685 25.1714 25.3835 24.6978 25.3835H18.414C17.9404 25.3835 17.5477 25.7685 17.5477 26.2468C17.5477 26.7252 17.9404 27.1218 18.414 27.1218ZM22.3183 19.5502H18.414C17.9404 19.5502 17.5477 19.9468 17.5477 20.4252C17.5477 20.9035 17.9404 21.2885 18.414 21.2885H22.3183C22.7919 21.2885 23.1846 20.9035 23.1846 20.4252C23.1846 19.9468 22.7919 19.5502 22.3183 19.5502ZM30.5617 18.53C30.8332 18.5269 31.1289 18.5235 31.3975 18.5235C31.6863 18.5235 31.9173 18.7568 31.9173 19.0485V28.4285C31.9173 31.3218 29.5955 33.6668 26.7308 33.6668H17.5361C14.5328 33.6668 12.084 31.2052 12.084 28.1718V15.5952C12.084 12.7018 14.4173 10.3335 17.2936 10.3335H23.4619C23.7622 10.3335 23.9932 10.5785 23.9932 10.8702V14.6268C23.9932 16.7618 25.7374 18.5118 27.8513 18.5235C28.3451 18.5235 28.7804 18.5272 29.1613 18.5304C29.4577 18.5329 29.7211 18.5352 29.9536 18.5352C30.118 18.5352 30.3312 18.5327 30.5617 18.53ZM30.8803 16.8272C29.9307 16.8307 28.8114 16.8272 28.0063 16.819C26.7288 16.819 25.6765 15.7562 25.6765 14.4658V11.3905C25.6765 10.8877 26.2806 10.638 26.626 11.0008C27.2517 11.6579 28.1117 12.5614 28.9676 13.4605C29.8198 14.3557 30.6679 15.2466 31.2765 15.8857C31.6138 16.2392 31.3666 16.826 30.8803 16.8272Z" fill="#7E8EB3"/>
</svg>
