<svg width="43" height="43" viewBox="0 0 43 43" fill="none" xmlns="http://www.w3.org/2000/svg">
<rect width="43" height="43" rx="7" fill="#0054A5"/>
<path fill-rule="evenodd" clip-rule="evenodd" d="M28.2111 17.4773H33.5C33.5 13.2307 30.9556 10.75 26.6444 10.75H15.3556C11.0444 10.75 8.5 13.2307 8.5 17.4231V26.5769C8.5 30.7693 11.0444 33.25 15.3556 33.25H26.6444C30.9556 33.25 33.5 30.7693 33.5 26.5769V26.1869H28.2111C25.7565 26.1869 23.7667 24.2469 23.7667 21.8538C23.7667 19.4606 25.7565 17.5206 28.2111 17.5206V17.4773ZM28.2111 19.3405H32.5667C33.0821 19.3405 33.5 19.7479 33.5 20.2505V23.4137C33.494 23.9138 33.0796 24.3178 32.5667 24.3237H28.3111C27.0685 24.34 25.9819 23.5105 25.7 22.3304C25.5589 21.5979 25.757 20.842 26.2413 20.2653C26.7257 19.6886 27.4467 19.3501 28.2111 19.3405ZM28.4 22.6662H28.8111C29.3389 22.6662 29.7667 22.2491 29.7667 21.7346C29.7667 21.2201 29.3389 20.803 28.8111 20.803H28.4C28.1476 20.8001 27.9045 20.8958 27.725 21.0688C27.5455 21.2418 27.4444 21.4777 27.4444 21.7238C27.4444 22.2401 27.8705 22.6603 28.4 22.6662ZM14.4222 17.4773H21.4778C22.0055 17.4773 22.4333 17.0602 22.4333 16.5456C22.4333 16.0311 22.0055 15.614 21.4778 15.614H14.4222C13.8988 15.614 13.4728 16.0245 13.4667 16.5348C13.4666 17.0511 13.8927 17.4713 14.4222 17.4773Z" fill="#FBFBFB"/>
</svg>
