<svg width="26" height="26" viewBox="0 0 26 26" fill="none" xmlns="http://www.w3.org/2000/svg">
<path fill-rule="evenodd" clip-rule="evenodd" d="M10.7193 12.1659C10.2454 12.1659 9.87059 12.5342 9.87059 13.0001C9.87059 13.4551 10.2454 13.8342 10.7193 13.8342H17.3327V19.0126C17.3327 21.6667 15.1392 23.8334 12.4278 23.8334H7.05991C4.35945 23.8334 2.16602 21.6776 2.16602 19.0234V6.98758C2.16602 4.32258 4.37047 2.16675 7.07093 2.16675H12.4498C15.1392 2.16675 17.3327 4.32258 17.3327 6.97675V12.1659H10.7193ZM21.2654 9.25196L24.4287 12.4045C24.5912 12.567 24.6779 12.7728 24.6779 13.0003C24.6779 13.217 24.5912 13.4336 24.4287 13.5853L21.2654 16.7378C21.1029 16.9003 20.8862 16.987 20.6804 16.987C20.4637 16.987 20.2471 16.9003 20.0846 16.7378C19.7596 16.4128 19.7596 15.882 20.0846 15.557L21.8179 13.8345H17.3329V12.1661H21.8179L20.0846 10.4436C19.7596 10.1186 19.7596 9.5878 20.0846 9.2628C20.4096 8.92696 20.9404 8.92696 21.2654 9.25196Z" fill="#25B8DE"/>
</svg>
