<svg width="22" height="22" viewBox="0 0 22 22" fill="none" xmlns="http://www.w3.org/2000/svg">
<g id="Iconly/Light-Outline/Edit">
<g id="Edit">
<path id="Fill 1" fill-rule="evenodd" clip-rule="evenodd" d="M19.0216 20.1114H12.373C11.9935 20.1114 11.6855 19.8034 11.6855 19.4239C11.6855 19.0444 11.9935 18.7364 12.373 18.7364H19.0216C19.4011 18.7364 19.7091 19.0444 19.7091 19.4239C19.7091 19.8034 19.4011 20.1114 19.0216 20.1114Z" fill="white"/>
<g id="Group 5">
<mask id="mask0" mask-type="alpha" maskUnits="userSpaceOnUse" x="1" y="2" width="17" height="19">
<path id="Clip 4" fill-rule="evenodd" clip-rule="evenodd" d="M1.8335 2.75012H17.5824V20.1114H1.8335V2.75012Z" fill="white"/>
</mask>
<g mask="url(#mask0)">
<path id="Fill 3" fill-rule="evenodd" clip-rule="evenodd" d="M12.0179 4.59871L3.38749 15.3925C3.23074 15.5886 3.17299 15.8416 3.23074 16.0845L3.85499 18.7291L6.64074 18.6943C6.90565 18.6915 7.1504 18.5733 7.31265 18.3716C10.2616 14.682 15.8835 7.64754 16.043 7.44129C16.1933 7.19746 16.252 6.85279 16.1732 6.52096C16.0925 6.18087 15.8807 5.89212 15.5755 5.70787C15.5104 5.66296 13.9658 4.46396 13.9182 4.42637C13.337 3.96071 12.4891 4.04137 12.0179 4.59871ZM3.31233 20.1115C2.99425 20.1115 2.71741 19.8933 2.64316 19.5825L1.89241 16.4008C1.7375 15.7417 1.8915 15.0615 2.31408 14.5335L10.9491 3.73338C10.9527 3.72971 10.9555 3.72513 10.9592 3.72146C11.9061 2.58938 13.6184 2.42254 14.7734 3.34929C14.8192 3.38504 16.3528 4.57671 16.3528 4.57671C16.9102 4.90854 17.3456 5.50163 17.5106 6.20379C17.6747 6.89863 17.5555 7.61546 17.1732 8.22138C17.1448 8.26629 17.1201 8.3048 8.38608 19.2315C7.96533 19.7558 7.33466 20.061 6.65725 20.0693L3.3215 20.1115H3.31233Z" fill="white"/>
</g>
</g>
<path id="Fill 6" fill-rule="evenodd" clip-rule="evenodd" d="M14.8711 10.711C14.7245 10.711 14.5778 10.6643 14.4522 10.569L9.45456 6.72996C9.15389 6.49896 9.09706 6.06813 9.32806 5.76563C9.55998 5.46496 9.99081 5.40905 10.2924 5.64005L15.291 9.47813C15.5916 9.70913 15.6485 10.1409 15.4166 10.4425C15.2818 10.6185 15.0774 10.711 14.8711 10.711Z" fill="white"/>
</g>
</g>
</svg>
