<svg width="205" height="205" viewBox="0 0 205 205" fill="none" xmlns="http://www.w3.org/2000/svg">
<g clip-path="url(#clip0)">
<path d="M178.259 90.1847C182.098 85.4495 184.405 79.4232 184.405 72.8661C184.405 57.6759 172.046 45.3176 156.856 45.3176C141.666 45.3176 129.308 57.6759 129.308 72.8661C129.308 79.4272 131.617 85.4567 135.461 90.1935C131.822 91.3538 128.367 93.0532 125.219 95.2337C120.25 87.999 111.921 83.2429 102.5 83.2429C93.0789 83.2429 84.7506 87.999 79.7806 95.2337C76.6329 93.0528 73.1782 91.3538 69.5394 90.1935C73.3828 85.4567 75.6921 79.4272 75.6921 72.8661C75.6921 57.6759 63.3338 45.3176 48.144 45.3176C32.9537 45.3176 20.5955 57.6759 20.5955 72.8661C20.5955 79.4232 22.9019 85.4491 26.7409 90.1847C11.2506 95.1258 0 109.653 0 126.76V160.861C0 164.185 2.69439 166.879 6.01785 166.879H54.3572V198.786C54.3572 202.109 57.0516 204.803 60.3751 204.803H144.625C147.948 204.803 150.643 202.109 150.643 198.786V166.879H198.982C202.306 166.879 205 164.185 205 160.861V126.76C205 109.653 193.749 95.1258 178.259 90.1847ZM156.856 57.3533C165.41 57.3533 172.369 64.3124 172.369 72.8661C172.369 81.4143 165.419 88.3697 156.872 88.3781H156.841C148.295 88.3697 141.344 81.4143 141.344 72.8661C141.344 64.3124 148.303 57.3533 156.856 57.3533ZM102.5 95.2786C111.113 95.2786 118.13 102.343 118.007 111.02C117.882 119.5 110.948 126.304 102.5 126.304C93.9185 126.304 86.9872 119.303 86.9872 110.791C86.9872 102.352 93.8431 95.2786 102.5 95.2786ZM48.144 57.3533C56.6974 57.3533 63.6564 64.3124 63.6564 72.8661C63.6564 81.4143 56.7058 88.3697 48.1596 88.3781H48.1287C39.5818 88.3697 32.6316 81.4143 32.6316 72.8661C32.6312 64.3124 39.5902 57.3533 48.144 57.3533ZM12.0357 126.76C12.0357 112.232 23.8543 100.414 38.3818 100.414H57.9077C64.2875 100.414 70.4526 102.752 75.2239 106.909C74.1467 114.51 76.3119 122.214 81.0797 128.111C68.6091 132.085 58.9681 142.242 55.635 154.843H37.7078V132.322C37.7078 128.998 35.0134 126.304 31.69 126.304C28.3665 126.304 25.6721 128.998 25.6721 132.322V154.843H12.0357V126.76ZM138.607 192.768H126.571V174.982C126.571 171.658 123.877 168.964 120.554 168.964C117.23 168.964 114.536 171.658 114.536 174.982V192.768H90.4643V174.982C90.4643 171.658 87.7699 168.964 84.4465 168.964C81.123 168.964 78.4286 171.658 78.4286 174.982V192.768H66.3929V164.684C66.3929 150.215 78.163 138.34 92.7378 138.34H112.262C126.817 138.34 138.607 150.194 138.607 164.684V192.768ZM192.964 154.843H179.328V132.322C179.328 128.998 176.633 126.304 173.31 126.304C169.987 126.304 167.292 128.998 167.292 132.322V154.843H149.365C146.054 142.325 136.472 132.111 123.92 128.111C128.522 122.42 130.89 114.769 129.776 106.909C134.548 102.752 140.713 100.414 147.092 100.414H166.618C181.146 100.414 192.964 112.232 192.964 126.76V154.843Z" fill="#37C8EE"/>
<path d="M70.0004 30.6918C71.3753 33.7168 74.9427 35.056 77.9689 33.6799C80.9946 32.3046 82.3326 28.7372 80.9569 25.7115L72.9331 8.05911C71.5575 5.03333 67.9893 3.69496 64.9647 5.07104C61.9389 6.44632 60.601 10.0137 61.9766 13.0395L70.0004 30.6918Z" fill="#37C8EE"/>
<path d="M127.031 33.68C130.06 35.0564 133.626 33.7145 135 30.6919L143.023 13.0395C144.399 10.0138 143.061 6.44599 140.035 5.07112C137.009 3.69544 133.442 5.0334 132.067 8.05918L124.043 25.7115C122.667 28.7373 124.005 32.3047 127.031 33.68Z" fill="#37C8EE"/>
<path d="M102.5 29.8176C105.824 29.8176 108.518 27.1232 108.518 23.7997V6.21438C108.518 2.89092 105.824 0.196533 102.5 0.196533C99.1768 0.196533 96.4824 2.89092 96.4824 6.21438V23.7997C96.4824 27.1232 99.1768 29.8176 102.5 29.8176Z" fill="#37C8EE"/>
</g>
<defs>
<clipPath id="clip0">
<rect width="205" height="205" fill="white"/>
</clipPath>
</defs>
</svg>
