<svg width="218" height="218" viewBox="0 0 218 218" fill="none" xmlns="http://www.w3.org/2000/svg">
<path d="M180.811 129.514C179.049 129.514 177.621 130.942 177.621 132.704V195.434C177.621 197.004 176.343 198.282 174.773 198.282H9.22903C7.65846 198.282 6.38099 197.005 6.38099 195.434V91.3621C6.38099 89.7915 7.65846 88.514 9.22903 88.514H84.4821C86.2441 88.514 87.6726 87.0856 87.6726 85.3235C87.6726 83.5615 86.2441 82.1331 84.4821 82.1331H9.22903C4.13998 82.1331 0 86.2735 0 91.3621V195.434C0 200.522 4.13998 204.663 9.22903 204.663H174.773C179.861 204.663 184.002 200.523 184.002 195.434V132.704C184.002 130.942 182.573 129.514 180.811 129.514Z" fill="#37C8EE"/>
<path d="M214.87 93.2616L169.101 22.2195C165.518 16.6574 159.428 13.3372 152.811 13.3372C146.195 13.3372 140.106 16.6578 136.522 22.2195L90.7534 93.2616C86.8521 99.3171 86.5815 106.708 90.0307 113.033C93.4794 119.357 99.8391 123.133 107.043 123.133H157.219C158.981 123.133 160.41 121.705 160.41 119.943C160.41 118.181 158.981 116.752 157.219 116.752H107.043C102.212 116.752 97.9465 114.22 95.6332 109.978C93.3203 105.736 93.5015 100.779 96.1181 96.7179L141.887 25.6759C144.29 21.9455 148.374 19.7186 152.812 19.7186C157.25 19.7186 161.334 21.9455 163.737 25.6759L209.506 96.7179C212.122 100.779 212.304 105.736 209.991 109.978C207.677 114.22 203.412 116.752 198.581 116.752H170.817C169.055 116.752 167.626 118.181 167.626 119.943C167.626 121.705 169.055 123.133 170.817 123.133H198.581C205.785 123.133 212.144 119.357 215.593 113.033C219.041 106.708 218.771 99.3175 214.87 93.2616Z" fill="#37C8EE"/>
<path d="M133.033 62.9847C133.987 61.5034 133.56 59.5287 132.078 58.5746C130.598 57.6204 128.622 58.0471 127.668 59.5287L101.483 100.173C100.131 102.272 100.041 104.732 101.236 106.922C102.431 109.114 104.548 110.371 107.044 110.371H198.581C201.077 110.371 203.194 109.114 204.389 106.923C205.584 104.732 205.494 102.272 204.142 100.173L158.374 29.131C157.132 27.2039 155.105 26.0988 152.813 26.0988C150.521 26.0988 148.494 27.2039 147.252 29.131L135.033 48.0978C134.078 49.5791 134.506 51.5538 135.987 52.508C137.468 53.4621 139.442 53.0354 140.397 51.5538L152.616 32.5874C152.658 32.5227 152.686 32.4959 152.686 32.4938C152.7 32.4891 152.742 32.4797 152.813 32.4797C152.891 32.4797 152.933 32.4904 152.931 32.4874C152.931 32.4874 152.961 32.5112 153.01 32.5869L198.778 103.629C198.819 103.692 198.837 103.733 198.843 103.738C198.837 103.76 198.821 103.805 198.787 103.868C198.749 103.938 198.717 103.977 198.726 103.977C198.712 103.98 198.668 103.99 198.582 103.99H107.044C106.969 103.99 106.926 103.983 106.918 103.985C106.902 103.968 106.873 103.93 106.839 103.867C106.8 103.796 106.784 103.751 106.78 103.757C106.784 103.744 106.8 103.702 106.847 103.629L133.033 62.9847Z" fill="#37C8EE"/>
<path d="M149.621 95.5936C149.621 97.3556 151.05 98.7841 152.812 98.7841C154.574 98.7841 156.002 97.3556 156.002 95.5936V89.5236C156.002 87.7616 154.574 86.3331 152.812 86.3331C151.05 86.3331 149.621 87.7616 149.621 89.5236V95.5936Z" fill="#37C8EE"/>
<path d="M152.812 78.3742C154.574 78.3742 156.002 76.9457 156.002 75.1837V50.6306C156.002 48.8686 154.574 47.4401 152.812 47.4401C151.05 47.4401 149.621 48.8686 149.621 50.6306V75.1837C149.621 76.9457 151.05 78.3742 152.812 78.3742Z" fill="#37C8EE"/>
<path d="M24.598 105.459H30.4153C32.1773 105.459 33.6058 104.03 33.6058 102.268C33.6058 100.506 32.1773 99.078 30.4153 99.078H24.598C19.8926 99.078 16.0645 102.906 16.0645 107.612V120.693C16.0645 125.399 19.8926 129.227 24.598 129.227H54.0368C58.7422 129.227 62.5704 125.399 62.5704 120.693V107.612C62.5704 102.906 58.7422 99.078 54.0368 99.078H44.0123C42.2503 99.078 40.8218 100.506 40.8218 102.268C40.8218 104.03 42.2503 105.459 44.0123 105.459H54.0368C55.2237 105.459 56.1894 106.425 56.1894 107.612V120.693C56.1894 121.88 55.2237 122.846 54.0368 122.846H24.598C23.4111 122.846 22.4454 121.88 22.4454 120.693V107.612C22.4454 106.425 23.4111 105.459 24.598 105.459Z" fill="#37C8EE"/>
<path d="M142.506 169.508C140.369 167.238 137.34 165.818 133.984 165.818C130.628 165.818 127.599 167.238 125.462 169.508C123.324 167.238 120.296 165.818 116.94 165.818C110.481 165.818 105.227 171.072 105.227 177.531C105.227 183.989 110.481 189.243 116.94 189.243C120.295 189.243 123.324 187.822 125.462 185.553C127.6 187.822 130.628 189.243 133.984 189.243C137.34 189.243 140.369 187.822 142.506 185.553C144.644 187.822 147.672 189.243 151.028 189.243C157.487 189.243 162.741 183.989 162.741 177.531C162.741 171.072 157.487 165.818 151.028 165.818C147.672 165.818 144.644 167.238 142.506 169.508ZM116.94 182.862C114 182.862 111.608 180.47 111.608 177.531C111.608 174.591 114 172.199 116.94 172.199C119.88 172.199 122.272 174.591 122.272 177.531C122.271 180.47 119.88 182.862 116.94 182.862ZM133.984 182.862C131.044 182.862 128.652 180.47 128.652 177.531C128.652 174.591 131.044 172.199 133.984 172.199C136.924 172.199 139.316 174.591 139.316 177.531C139.316 180.47 136.924 182.862 133.984 182.862ZM156.36 177.531C156.36 180.471 153.968 182.862 151.028 182.862C148.089 182.862 145.697 180.47 145.697 177.531C145.697 174.591 148.089 172.199 151.028 172.199C153.968 172.199 156.36 174.59 156.36 177.531Z" fill="#37C8EE"/>
<path d="M22.9737 140.208C21.2117 140.208 19.7832 141.636 19.7832 143.398C19.7832 145.16 21.2117 146.589 22.9737 146.589H30.4139C32.1759 146.589 33.6044 145.16 33.6044 143.398C33.6044 141.636 32.1759 140.208 30.4139 140.208H22.9737Z" fill="#37C8EE"/>
<path d="M42.5 143.398C42.5 145.16 43.9285 146.589 45.6905 146.589H164.02C165.782 146.589 167.21 145.16 167.21 143.398C167.21 141.636 165.782 140.208 164.02 140.208H45.6905C43.9285 140.208 42.5 141.636 42.5 143.398Z" fill="#37C8EE"/>
<path d="M22.9737 169.876H93.4955C95.2575 169.876 96.686 168.448 96.686 166.686C96.686 164.924 95.2575 163.495 93.4955 163.495H22.9737C21.2117 163.495 19.7832 164.924 19.7832 166.686C19.7832 168.448 21.2117 169.876 22.9737 169.876Z" fill="#37C8EE"/>
</svg>
