<svg width="101" height="101" viewBox="0 0 101 101" fill="none" xmlns="http://www.w3.org/2000/svg">
<path fill-rule="evenodd" clip-rule="evenodd" d="M28.6693 0.0786133H72.3805C89.4718 0.0786133 100.916 12.0778 100.916 29.9253V71.1207C100.916 88.9178 89.4718 100.912 72.3805 100.912H28.6693C11.578 100.912 0.0830078 88.9178 0.0830078 71.1207V29.9253C0.0830078 12.0778 11.578 0.0786133 28.6693 0.0786133ZM65.6755 65.6206C67.3896 63.9114 67.3896 61.1385 65.6755 59.4244L56.7013 50.4502L65.6755 41.471C67.3896 39.7619 67.3896 36.9385 65.6755 35.2244C63.9613 33.5052 61.1884 33.5052 59.4238 35.2244L50.5001 44.1935L41.5259 35.2244C39.7613 33.5052 36.9884 33.5052 35.2742 35.2244C33.5601 36.9385 33.5601 39.7619 35.2742 41.471L44.2484 50.4502L35.2742 59.3739C33.5601 61.1385 33.5601 63.9114 35.2742 65.6206C36.1313 66.4776 37.2909 66.9364 38.4001 66.9364C39.5596 66.9364 40.6688 66.4776 41.5259 65.6206L50.5001 56.7019L59.4742 65.6206C60.3313 66.5331 61.4405 66.9364 62.5496 66.9364C63.7092 66.9364 64.8184 66.4776 65.6755 65.6206Z" fill="#37C8EE"/>
</svg>
