<svg width="43" height="43" viewBox="0 0 43 43" fill="none" xmlns="http://www.w3.org/2000/svg">
<rect width="43" height="43" rx="7" fill="#0054A5"/>
<path fill-rule="evenodd" clip-rule="evenodd" d="M22 32.0001C16.48 32.0001 12 27.5301 12 22.0001C12 16.4801 16.48 12.0001 22 12.0001C27.53 12.0001 32 16.4801 32 22.0001C32 27.5301 27.53 32.0001 22 32.0001ZM25.19 25.7101C25.31 25.7801 25.44 25.8201 25.58 25.8201C25.83 25.8201 26.08 25.6901 26.22 25.4501C26.43 25.1001 26.32 24.6401 25.96 24.4201L22.4 22.3001V17.6801C22.4 17.2601 22.06 16.9301 21.65 16.9301C21.24 16.9301 20.9 17.2601 20.9 17.6801V22.7301C20.9 22.9901 21.04 23.2301 21.27 23.3701L25.19 25.7101Z" fill="#FBFBFB"/>
</svg>
