<svg width="21" height="25" viewBox="0 0 21 25" fill="none" xmlns="http://www.w3.org/2000/svg">
<path fill-rule="evenodd" clip-rule="evenodd" d="M11.1634 14.5904H13.2331C13.7236 14.5904 14.1304 14.1917 14.1304 13.6963C14.1304 13.1888 13.7236 12.79 13.2331 12.79H11.1634V10.6996C11.1634 10.2042 10.7686 9.80542 10.2781 9.80542C9.78755 9.80542 9.38078 10.2042 9.38078 10.6996V12.79H7.32303C6.83252 12.79 6.42575 13.1888 6.42575 13.6963C6.42575 14.1917 6.83252 14.5904 7.32303 14.5904H9.38078V16.6808C9.38078 17.1763 9.78755 17.575 10.2781 17.575C10.7686 17.575 11.1634 17.1763 11.1634 16.6808V14.5904ZM19.3662 8.90595C19.6474 8.90271 19.9536 8.89917 20.2318 8.89917C20.5309 8.89917 20.7702 9.14084 20.7702 9.44292V19.1579C20.7702 22.1546 18.3655 24.5833 15.3865 24.5833H5.87538C2.76482 24.5833 0.228516 22.0338 0.228516 18.8921V5.86626C0.228516 2.86959 2.64518 0.416672 5.62414 0.416672H12.0128C12.3238 0.416672 12.5631 0.670422 12.5631 0.972505V4.86334C12.5631 7.07459 14.3696 8.88709 16.559 8.89917C17.0703 8.89917 17.5212 8.90299 17.9157 8.90634C18.2227 8.90894 18.4955 8.91126 18.7364 8.91126C18.9067 8.91126 19.1274 8.90871 19.3662 8.90595ZM19.6949 7.1425C18.7115 7.14612 17.5522 7.1425 16.7184 7.13404C15.3952 7.13404 14.3053 6.03324 14.3053 4.69683V1.51166C14.3053 0.99087 14.931 0.732286 15.2887 1.10808C15.9376 1.78952 16.8298 2.72679 17.7174 3.6592C18.5989 4.58514 19.4758 5.5063 20.1053 6.16737C20.4546 6.53349 20.1986 7.14129 19.6949 7.1425Z" fill="#25B8DE"/>
</svg>
