<svg width="207" height="207" viewBox="0 0 207 207" fill="none" xmlns="http://www.w3.org/2000/svg">
<path d="M109.969 187.594H84.0938C83.2359 187.594 82.4133 187.935 81.8067 188.541C81.2001 189.148 80.8594 189.97 80.8594 190.828C80.8594 191.686 81.2001 192.509 81.8067 193.115C82.4133 193.722 83.2359 194.062 84.0938 194.062H109.969C110.827 194.062 111.649 193.722 112.256 193.115C112.862 192.509 113.203 191.686 113.203 190.828C113.203 189.97 112.862 189.148 112.256 188.541C111.649 187.935 110.827 187.594 109.969 187.594Z" fill="#37C8EE"/>
<path d="M119.672 71.1562H74.3906C73.5328 71.1562 72.7101 71.497 72.1036 72.1036C71.497 72.7101 71.1562 73.5328 71.1562 74.3906V132.609C71.1563 133.338 71.4023 134.045 71.8545 134.616C72.3066 135.188 72.9384 135.59 73.6474 135.757C74.3565 135.924 75.1013 135.848 75.7612 135.539C76.4211 135.23 76.9575 134.708 77.2834 134.056L78.5108 131.601L81.8066 134.896C82.107 135.197 82.4635 135.435 82.856 135.598C83.2484 135.76 83.669 135.844 84.0938 135.844C84.5185 135.844 84.9391 135.76 85.3315 135.598C85.724 135.435 86.0805 135.197 86.3809 134.896L90.5625 130.714L94.7441 134.896C95.0445 135.197 95.401 135.435 95.7935 135.598C96.1859 135.76 96.6065 135.844 97.0312 135.844C97.456 135.844 97.8766 135.76 98.269 135.598C98.6615 135.435 99.018 135.197 99.3184 134.896L103.5 130.714L107.682 134.896C107.982 135.197 108.339 135.435 108.731 135.598C109.123 135.76 109.544 135.844 109.969 135.844C110.394 135.844 110.814 135.76 111.207 135.598C111.599 135.435 111.956 135.197 112.256 134.896L115.552 131.601L116.779 134.056C117.105 134.708 117.641 135.23 118.301 135.539C118.961 135.848 119.706 135.924 120.415 135.757C121.124 135.59 121.756 135.188 122.208 134.616C122.66 134.045 122.906 133.338 122.906 132.609V74.3906C122.906 73.5328 122.565 72.7101 121.959 72.1036C121.352 71.497 120.53 71.1562 119.672 71.1562ZM116.438 122.906C116.013 122.906 115.592 122.99 115.2 123.152C114.807 123.315 114.451 123.553 114.15 123.854L109.969 128.036L105.787 123.854C105.487 123.553 105.13 123.315 104.738 123.152C104.345 122.99 103.925 122.906 103.5 122.906C103.075 122.906 102.655 122.99 102.262 123.152C101.87 123.315 101.513 123.553 101.213 123.854L97.0312 128.036L92.8496 123.854C92.5493 123.553 92.1927 123.315 91.8003 123.152C91.4079 122.99 90.9873 122.906 90.5625 122.906C90.1377 122.906 89.7171 122.99 89.3247 123.152C88.9323 123.315 88.5757 123.553 88.2754 123.854L84.0938 128.036L79.9121 123.854C79.6118 123.553 79.2552 123.315 78.8628 123.152C78.4703 122.99 78.0497 122.906 77.625 122.906V77.625H116.438V122.906Z" fill="#37C8EE"/>
<path d="M84.0938 97.0312H109.969C110.827 97.0312 111.649 96.6905 112.256 96.0839C112.862 95.4774 113.203 94.6547 113.203 93.7969C113.203 92.9391 112.862 92.1164 112.256 91.5098C111.649 90.9033 110.827 90.5625 109.969 90.5625H84.0938C83.2359 90.5625 82.4133 90.9033 81.8067 91.5098C81.2001 92.1164 80.8594 92.9391 80.8594 93.7969C80.8594 94.6547 81.2001 95.4774 81.8067 96.0839C82.4133 96.6905 83.2359 97.0312 84.0938 97.0312Z" fill="#37C8EE"/>
<path d="M84.0938 87.3281H109.969C110.827 87.3281 111.649 86.9874 112.256 86.3808C112.862 85.7742 113.203 84.9516 113.203 84.0938C113.203 83.2359 112.862 82.4133 112.256 81.8067C111.649 81.2001 110.827 80.8594 109.969 80.8594H84.0938C83.2359 80.8594 82.4133 81.2001 81.8067 81.8067C81.2001 82.4133 80.8594 83.2359 80.8594 84.0938C80.8594 84.9516 81.2001 85.7742 81.8067 86.3808C82.4133 86.9874 83.2359 87.3281 84.0938 87.3281Z" fill="#37C8EE"/>
<path d="M84.0938 106.734H109.969C110.827 106.734 111.649 106.394 112.256 105.787C112.862 105.18 113.203 104.358 113.203 103.5C113.203 102.642 112.862 101.82 112.256 101.213C111.649 100.606 110.827 100.266 109.969 100.266H84.0938C83.2359 100.266 82.4133 100.606 81.8067 101.213C81.2001 101.82 80.8594 102.642 80.8594 103.5C80.8594 104.358 81.2001 105.18 81.8067 105.787C82.4133 106.394 83.2359 106.734 84.0938 106.734Z" fill="#37C8EE"/>
<path d="M84.0938 116.438H109.969C110.827 116.438 111.649 116.097 112.256 115.49C112.862 114.884 113.203 114.061 113.203 113.203C113.203 112.345 112.862 111.523 112.256 110.916C111.649 110.31 110.827 109.969 109.969 109.969H84.0938C83.2359 109.969 82.4133 110.31 81.8067 110.916C81.2001 111.523 80.8594 112.345 80.8594 113.203C80.8594 114.061 81.2001 114.884 81.8067 115.49C82.4133 116.097 83.2359 116.438 84.0938 116.438Z" fill="#37C8EE"/>
<path d="M155.25 24.5368V14.5547C155.247 11.5534 154.053 8.67593 151.931 6.55368C149.808 4.43143 146.931 3.23769 143.93 3.23438H50.1328C47.1315 3.23769 44.2541 4.43143 42.1318 6.55368C40.0096 8.67593 38.8158 11.5534 38.8125 14.5547V192.445C38.8158 195.447 40.0096 198.324 42.1318 200.446C44.2541 202.569 47.1315 203.762 50.1328 203.766H143.93C146.931 203.762 149.808 202.569 151.931 200.446C154.053 198.324 155.247 195.447 155.25 192.445V72.4945C160.028 70.5635 164.12 67.2493 167.001 62.9769C169.882 58.7045 171.422 53.6688 171.422 48.5156C171.422 43.3624 169.882 38.3267 167.001 34.0544C164.12 29.782 160.028 26.4678 155.25 24.5368ZM111.95 9.70312L110.87 12.9375H83.1922L82.1127 9.70312H111.95ZM148.781 192.445C148.78 193.732 148.269 194.965 147.359 195.875C146.449 196.784 145.216 197.296 143.93 197.297H50.1328C48.8464 197.296 47.613 196.784 46.7034 195.875C45.7938 194.965 45.2823 193.732 45.2813 192.445V14.5547C45.2823 13.2683 45.7938 12.0349 46.7034 11.1253C47.613 10.2157 48.8464 9.7042 50.1328 9.70312H75.2922L77.7908 17.1947C78.0055 17.8388 78.4173 18.3989 78.9681 18.7958C79.5188 19.1927 80.1805 19.4063 80.8594 19.4062H113.203C113.882 19.4063 114.544 19.1927 115.094 18.7958C115.645 18.3989 116.057 17.8388 116.272 17.1947L118.77 9.70312H143.93C145.216 9.7042 146.449 10.2157 147.359 11.1253C148.269 12.0349 148.78 13.2683 148.781 14.5547V22.8509C145.135 22.3832 141.431 22.6978 137.916 23.7737C134.402 24.8495 131.156 26.662 128.397 29.0903C125.637 31.5186 123.426 34.507 121.912 37.8565C120.398 41.206 119.615 44.8397 119.615 48.5156C119.615 52.1915 120.398 55.8252 121.912 59.1747C123.426 62.5243 125.637 65.5127 128.397 67.941C131.156 70.3693 134.402 72.1817 137.916 73.2576C141.431 74.3334 145.135 74.648 148.781 74.1804V192.445ZM145.547 67.9219C141.709 67.9219 137.957 66.7837 134.765 64.6513C131.574 62.5189 129.087 59.4881 127.618 55.9421C126.149 52.396 125.765 48.4941 126.514 44.7297C127.262 40.9652 129.111 37.5073 131.825 34.7933C134.539 32.0793 137.996 30.2311 141.761 29.4823C145.525 28.7335 149.427 29.1178 152.973 30.5866C156.519 32.0554 159.55 34.5427 161.683 37.7341C163.815 40.9254 164.953 44.6774 164.953 48.5156C164.948 53.6608 162.901 58.5937 159.263 62.2319C155.625 65.8701 150.692 67.9164 145.547 67.9219Z" fill="#37C8EE"/>
<path d="M160.772 39.7598C160.471 39.4594 160.115 39.2211 159.722 39.0586C159.33 38.896 158.909 38.8124 158.484 38.8124C158.06 38.8124 157.639 38.896 157.247 39.0586C156.854 39.2211 156.498 39.4594 156.197 39.7598L142.313 53.6449L138.131 49.4629C137.831 49.1625 137.474 48.9243 137.082 48.7617C136.689 48.5992 136.269 48.5155 135.844 48.5155C135.419 48.5155 134.998 48.5992 134.606 48.7617C134.214 48.9243 133.857 49.1625 133.557 49.4629C133.256 49.7632 133.018 50.1198 132.856 50.5122C132.693 50.9046 132.609 51.3252 132.609 51.75C132.609 52.1747 132.693 52.5953 132.856 52.9878C133.018 53.3802 133.256 53.7368 133.557 54.0371L140.025 60.5058C140.326 60.8062 140.682 61.0445 141.075 61.207C141.467 61.3696 141.888 61.4532 142.313 61.4532C142.737 61.4532 143.158 61.3696 143.55 61.207C143.943 61.0445 144.299 60.8062 144.6 60.5058L160.772 44.334C161.072 44.0336 161.31 43.6771 161.473 43.2846C161.635 42.8922 161.719 42.4716 161.719 42.0469C161.719 41.6221 161.635 41.2015 161.473 40.8091C161.31 40.4167 161.072 40.0601 160.772 39.7598Z" fill="#37C8EE"/>
</svg>
