<svg width="24" height="19" viewBox="0 0 24 19" fill="none" xmlns="http://www.w3.org/2000/svg">
<path d="M22.5932 7.962C23.1356 8.582 23.1356 9.419 22.5932 10.038C20.8847 11.987 16.7857 16 12.0002 16C7.21461 16 3.11563 11.987 1.40716 10.038C1.14326 9.74113 1 9.37592 1 9C1 8.62408 1.14326 8.25887 1.40716 7.962C3.11563 6.013 7.21461 2 12.0002 2C16.7857 2 20.8847 6.013 22.5932 7.962V7.962Z" stroke="#2B2B2B" stroke-width="2" stroke-linecap="round" stroke-linejoin="round"/>
<path d="M12 12C13.6569 12 15 10.6569 15 9C15 7.34315 13.6569 6 12 6C10.3431 6 9 7.34315 9 9C9 10.6569 10.3431 12 12 12Z" stroke="#2B2B2B" stroke-width="2" stroke-linecap="round" stroke-linejoin="round"/>
<line x1="20.8857" y1="1.40959" x2="2.40959" y2="17.1143" stroke="#2B2B2B" stroke-width="2" stroke-linecap="round"/>
</svg>
