<svg width="24" height="16" viewBox="0 0 24 16" fill="none" xmlns="http://www.w3.org/2000/svg">
<path d="M22.5932 6.962C23.1356 7.582 23.1356 8.419 22.5932 9.038C20.8847 10.987 16.7857 15 12.0002 15C7.21461 15 3.11563 10.987 1.40716 9.038C1.14326 8.74113 1 8.37592 1 8C1 7.62408 1.14326 7.25887 1.40716 6.962C3.11563 5.013 7.21461 1 12.0002 1C16.7857 1 20.8847 5.013 22.5932 6.962V6.962Z" stroke="#2B2B2B" stroke-width="2" stroke-linecap="round" stroke-linejoin="round"/>
<path d="M12 11C13.6569 11 15 9.65685 15 8C15 6.34315 13.6569 5 12 5C10.3431 5 9 6.34315 9 8C9 9.65685 10.3431 11 12 11Z" stroke="#2B2B2B" stroke-width="2" stroke-linecap="round" stroke-linejoin="round"/>
</svg>
