<svg width="154" height="144" viewBox="0 0 154 144" fill="none" xmlns="http://www.w3.org/2000/svg">
<path d="M145.984 26.3529H122.499V8.80807C122.499 4.389 118.904 0.793457 114.485 0.793457H39.6517C35.2326 0.793457 31.6371 4.3887 31.6371 8.80807V33.7501C31.6371 38.1691 35.2323 41.7647 39.6517 41.7647H57.1845V48.975C57.1845 50.9072 55.6138 52.4791 53.6834 52.4791H40.8852C40.3101 52.4791 39.7567 52.6987 39.338 53.0933L24.6451 66.9383C24.6051 66.9756 24.5564 67.0219 24.4448 66.9741C24.3332 66.9259 24.3332 66.8577 24.3332 66.8026V54.7353C24.3332 53.4894 23.3235 52.4794 22.0773 52.4794H8.01582C6.0836 52.4794 4.51172 50.9075 4.51172 48.9753V34.3694C4.51172 32.4371 6.0839 30.8653 8.01582 30.8653H23.2946C24.5407 30.8653 25.5505 29.8552 25.5505 28.6094C25.5505 27.3636 24.5407 26.3535 23.2946 26.3535H8.01582C3.59584 26.3535 0 29.9494 0 34.3694V48.9753C0 53.3953 3.59584 56.9911 8.01582 56.9911H19.8215V66.8026C19.8215 68.7081 20.9076 70.3612 22.6566 71.1161C24.0679 71.7438 26.1839 71.6491 27.7389 70.2219L41.7803 56.9908H53.6834C58.1016 56.9908 61.6962 53.395 61.6962 48.975V41.7647H66.8405V51.5777C66.8405 53.4825 67.9269 55.135 69.676 55.89C71.0872 56.5177 73.2038 56.4233 74.7589 54.9957L88.7987 41.7644H92.3037V48.9747C92.3037 53.3947 95.8981 56.9905 100.317 56.9905H112.22L126.261 70.2216C127.514 71.3086 129.348 71.9481 131.343 71.1155C133.092 70.3605 134.179 68.7075 134.179 66.802V56.9905H145.984C150.404 56.9905 154 53.3947 154 48.9747V34.3688C154 29.9488 150.404 26.3529 145.984 26.3529ZM87.903 37.253C87.3279 37.253 86.7745 37.4725 86.3558 37.8671L71.6644 51.7124C71.625 51.7497 71.576 51.7963 71.4638 51.7479C71.3519 51.6995 71.3519 51.6321 71.3519 51.5777V39.5088C71.3519 38.263 70.3422 37.253 69.0961 37.253H39.6514C37.7201 37.253 36.1485 35.6817 36.1485 33.7501V8.80807C36.1485 6.87676 37.7201 5.30518 39.6514 5.30518H114.484C116.416 5.30518 117.987 6.87646 117.987 8.80807V33.7501C117.987 35.6814 116.416 37.253 114.484 37.253H87.903ZM149.488 48.9747C149.488 50.9069 147.916 52.4788 145.984 52.4788H131.923C130.677 52.4788 129.667 53.4888 129.667 54.7347V66.802C129.667 66.857 129.667 66.9253 129.555 66.9734C129.443 67.0213 129.395 66.975 129.355 66.938L114.662 53.093C114.243 52.6987 113.69 52.4788 113.115 52.4788H100.317C98.3861 52.4788 96.8155 50.9069 96.8155 48.9747V41.7644H114.485C118.904 41.7644 122.499 38.1691 122.499 33.7498V30.8644H145.984C147.916 30.8644 149.488 32.4362 149.488 34.3685V48.9747Z" fill="#25B8DE"/>
<path d="M48.4351 18.9648H59.4418C60.688 18.9648 61.6977 17.9548 61.6977 16.709C61.6977 15.4631 60.688 14.4531 59.4418 14.4531H48.4351C47.1889 14.4531 46.1792 15.4631 46.1792 16.709C46.1792 17.9548 47.1892 18.9648 48.4351 18.9648Z" fill="#25B8DE"/>
<path d="M105.416 23.4399H48.4351C47.1889 23.4399 46.1792 24.45 46.1792 25.6958C46.1792 26.9416 47.1889 27.9517 48.4351 27.9517H105.415C106.662 27.9517 107.671 26.9416 107.671 25.6958C107.671 24.45 106.661 23.4399 105.416 23.4399Z" fill="#25B8DE"/>
<path d="M23.0282 39.5908H14.8271C13.581 39.5908 12.5713 40.6008 12.5713 41.8467C12.5713 43.0925 13.581 44.1025 14.8271 44.1025H23.0282C24.2744 44.1025 25.2841 43.0925 25.2841 41.8467C25.2841 40.6008 24.2741 39.5908 23.0282 39.5908Z" fill="#25B8DE"/>
<path d="M137.841 39.5908H129.64C128.394 39.5908 127.384 40.6008 127.384 41.8467C127.384 43.0925 128.394 44.1025 129.64 44.1025H137.841C139.087 44.1025 140.097 43.0925 140.097 41.8467C140.097 40.6008 139.087 39.5908 137.841 39.5908Z" fill="#25B8DE"/>
<path d="M36.8123 87.5378C35.3535 81.2241 29.8095 76.8149 23.3298 76.8149C16.8501 76.8149 11.3061 81.2244 9.84758 87.5381L2.23059 121.565C0.834066 123.37 0 125.631 0 128.083V140.949C0 142.195 1.00972 143.205 2.25586 143.205C3.502 143.205 4.51172 142.195 4.51172 140.949V128.083C4.51172 124.686 7.2753 121.923 10.6723 121.923H20.9244L15.0421 128.848C14.2354 129.797 14.3512 131.221 15.3007 132.027C15.7248 132.388 16.244 132.564 16.7601 132.564C17.3993 132.564 18.0342 132.294 18.4806 131.768L23.3301 126.059L28.1793 131.768C28.6254 132.294 29.2606 132.564 29.8998 132.564C30.4159 132.564 30.9348 132.388 31.3592 132.027C32.3087 131.221 32.4245 129.797 31.6178 128.847L25.7354 121.923H35.9873C39.3843 121.923 42.1479 124.686 42.1479 128.083V140.949C42.1479 142.195 43.1576 143.205 44.4037 143.205C45.6499 143.205 46.6596 142.195 46.6596 140.949V128.083C46.6596 125.63 45.8255 123.369 44.429 121.565L36.8123 87.5378ZM23.3298 81.3267C27.6959 81.3267 31.4319 84.2975 32.4155 88.5511H14.2438C15.2277 84.2975 18.9637 81.3267 23.3298 81.3267ZM16.2783 117.411H10.6723C9.63523 117.411 8.63363 117.562 7.68526 117.84L10.6086 104.742C11.858 107.272 13.8411 109.375 16.2783 110.776V117.411ZM25.8702 117.411H20.79V112.425C21.609 112.573 22.4509 112.655 23.312 112.655H23.3475C24.2087 112.655 25.0509 112.573 25.8702 112.425V117.411ZM23.3475 108.143H23.312C17.9918 108.143 13.6636 103.815 13.6636 98.4944V93.0628H32.996V98.4944C32.996 103.815 28.6678 108.143 23.3475 108.143ZM35.9873 117.411H30.3819V110.776C32.8188 109.375 34.8016 107.271 36.051 104.742L38.9743 117.84C38.0257 117.563 37.0241 117.411 35.9873 117.411Z" fill="#25B8DE"/>
<path d="M89.7137 117.411H84.1192V112.895C88.3735 110.445 91.2459 105.855 91.2459 100.603V89.8854C91.2459 84.5905 86.9381 80.283 81.6432 80.283H71.2807C71.0906 76.1364 67.6611 72.8203 63.4682 72.8203C59.1538 72.8203 55.6437 76.3304 55.6437 80.6448C55.6437 84.7643 58.8446 88.1469 62.8895 88.4447V100.603C62.8895 105.854 65.7616 110.445 70.0153 112.895V117.411H64.4211C58.5299 117.411 53.7373 122.204 53.7373 128.095V140.947C53.7373 142.193 54.747 143.203 55.9932 143.203C57.2393 143.203 58.249 142.193 58.249 140.947V128.095C58.249 124.692 61.0177 121.923 64.4211 121.923H65.7301V124.961C65.7301 128.277 68.4281 130.975 71.7439 130.975H82.3918C85.7076 130.975 88.4056 128.277 88.4056 124.961V121.923H89.7137C93.1171 121.923 95.8861 124.692 95.8861 128.095V140.947C95.8861 142.193 96.8958 143.203 98.1419 143.203C99.3881 143.203 100.398 142.193 100.398 140.947V128.095C100.397 122.204 95.6045 117.411 89.7137 117.411ZM63.4685 83.9573C61.6418 83.9573 60.1557 82.4715 60.1557 80.6448C60.1557 78.8182 61.6415 77.332 63.4685 77.332C65.2954 77.332 66.7813 78.8182 66.7813 80.6448C66.7813 82.4715 65.2951 83.9573 63.4685 83.9573ZM67.4015 89.8854C67.4015 87.0783 69.6853 84.7947 72.4922 84.7947H81.6435C84.4507 84.7947 86.7345 87.0783 86.7345 89.8854V91.1322L82.1028 88.7933C81.4047 88.4405 80.5718 88.4748 79.9047 88.885L67.4018 96.5688V89.8854H67.4015ZM83.8939 124.961C83.8939 125.789 83.2202 126.463 82.3918 126.463H71.7439C70.9155 126.463 70.2418 125.789 70.2418 124.961V121.923H72.2717C73.5179 121.923 74.5276 120.913 74.5276 119.667V114.549C75.3523 114.698 76.2005 114.781 77.068 114.781C77.9352 114.781 78.7831 114.699 79.6075 114.549V119.668C79.6075 120.913 80.6172 121.923 81.8634 121.923H83.8939V124.961ZM77.068 110.269C72.149 110.269 68.0764 106.577 67.4776 101.817L81.1935 93.3883L86.7345 96.1862V100.603C86.7342 105.933 82.3978 110.269 77.068 110.269Z" fill="#25B8DE"/>
<path d="M143.328 117.411H137.722V112.566C141.747 111.977 144.848 108.503 144.848 104.318V90.807C144.848 85.004 140.127 80.283 134.324 80.283C133.078 80.283 132.068 81.293 132.068 82.5388C132.068 83.7847 133.078 84.7947 134.324 84.7947C136.842 84.7947 139.003 86.3506 139.897 88.5511H116.274C115.239 88.5511 114.396 87.7087 114.396 86.6728C114.396 85.6372 115.239 84.7947 116.274 84.7947H123.748C124.994 84.7947 126.004 83.7847 126.004 82.5388C126.004 81.293 124.994 80.283 123.748 80.283H116.274C112.751 80.283 109.884 83.1494 109.884 86.6728C109.856 90.0914 112.89 93.1744 116.492 93.0629V104.318C116.492 108.503 119.593 111.977 123.618 112.566V117.411H118.011C112.127 117.411 107.34 122.199 107.34 128.083V140.951C107.34 142.196 108.35 143.206 109.596 143.206C110.842 143.206 111.852 142.196 111.852 140.951V128.083C111.852 124.687 114.615 121.923 118.011 121.923H123.67C123.997 124.647 125.883 126.896 128.414 127.752V131.513C128.414 132.759 129.424 133.769 130.67 133.769C131.916 133.769 132.926 132.759 132.926 131.513V127.754C135.454 126.9 137.343 124.649 137.67 121.923H143.328C146.725 121.923 149.488 124.686 149.488 128.083V140.95C149.488 142.196 150.498 143.206 151.744 143.206C152.99 143.206 154 142.196 154 140.95V128.083C154 122.199 149.212 117.411 143.328 117.411ZM133.21 121.08C133.21 122.477 132.074 123.613 130.663 123.613C129.266 123.613 128.13 122.477 128.13 121.08V112.655H133.21V121.08ZM136.511 108.143H124.829C122.719 108.143 121.003 106.427 121.003 104.318V93.0629H140.336V104.318C140.336 106.427 138.62 108.143 136.511 108.143Z" fill="#25B8DE"/>
<path d="M130.67 97.5056C129.424 97.5056 128.415 98.5156 128.415 99.7615V102.268C128.415 103.514 129.424 104.524 130.67 104.524C131.917 104.524 132.926 103.514 132.926 102.268V99.7615C132.926 98.5156 131.916 97.5056 130.67 97.5056Z" fill="#25B8DE"/>
<path d="M23.3296 97.0935C22.0835 97.0935 21.0737 98.1035 21.0737 99.3494V101.856C21.0737 103.102 22.0835 104.112 23.3296 104.112C24.5757 104.112 25.5854 103.102 25.5854 101.856V99.3494C25.5854 98.1035 24.5757 97.0935 23.3296 97.0935Z" fill="#25B8DE"/>
<path d="M77.106 106.633C78.3518 106.633 79.3618 105.623 79.3618 104.377C79.3618 103.132 78.3518 102.122 77.106 102.122C75.8601 102.122 74.8501 103.132 74.8501 104.377C74.8501 105.623 75.8601 106.633 77.106 106.633Z" fill="#25B8DE"/>
</svg>
