<svg width="22" height="21" viewBox="0 0 22 21" fill="none" xmlns="http://www.w3.org/2000/svg">
<g clip-path="url(#clip0)">
<path d="M11 0C5.21006 0 0.5 4.71006 0.5 10.5C0.5 12.4752 1.04883 14.3927 2.08994 16.0577C1.67519 17.5108 0.926058 20.2593 0.917981 20.288C0.879212 20.4302 0.920808 20.582 1.02702 20.6842C1.13323 20.7864 1.28669 20.8227 1.42642 20.7799L5.58846 19.4997C7.21879 20.4819 9.08577 21 11 21C16.7899 21 21.5 16.2899 21.5 10.5C21.5 4.71006 16.7899 0 11 0ZM11 20.1923C9.17502 20.1923 7.39729 19.6822 5.85863 18.7179C5.79362 18.6771 5.7189 18.6565 5.64419 18.6565C5.60421 18.6565 5.56423 18.6625 5.52546 18.6742L1.89125 19.7929C2.15819 18.8184 2.63796 17.0754 2.91621 16.1058C2.94852 15.9935 2.93035 15.8724 2.86694 15.7742C1.84683 14.2045 1.30769 12.3807 1.30769 10.5C1.30769 5.1559 5.6559 0.807692 11 0.807692C16.3441 0.807692 20.6923 5.1559 20.6923 10.5C20.6923 15.8441 16.3441 20.1923 11 20.1923Z" fill="#383530"/>
<path d="M17.8591 12.974C17.1136 12.5601 16.4788 12.1449 16.0156 11.842C15.6618 11.611 15.4062 11.4442 15.2188 11.3501C14.695 11.0888 14.298 11.2734 14.147 11.4261C14.128 11.445 14.111 11.4656 14.0965 11.4874C13.5525 12.3036 12.8422 13.0842 12.6342 13.1262C12.3939 13.0887 11.2692 12.4494 10.1513 11.5185C9.01006 10.5675 8.29202 9.65681 8.18662 9.0365C8.91879 8.28292 9.1825 7.80881 9.1825 7.26927C9.1825 6.71317 7.88535 4.39146 7.65071 4.15683C7.41527 3.92179 6.88502 3.88504 6.0745 4.04658C5.99656 4.06233 5.92467 4.10069 5.86814 4.15683C5.77 4.25496 3.47373 6.59606 4.56492 9.43348C5.76273 12.5475 8.83721 16.1672 12.7569 16.7552C13.2024 16.8218 13.62 16.855 14.0109 16.855C16.3168 16.855 17.6778 15.6947 18.0611 13.3932C18.0897 13.2248 18.0086 13.0568 17.8591 12.974ZM12.8769 15.9564C8.73181 15.3349 6.12094 11.2282 5.3189 9.14352C4.52333 7.07583 5.9905 5.23227 6.35881 4.8155C6.65846 4.76461 6.97387 4.74321 7.10552 4.76381C7.38054 5.14625 8.33281 6.94538 8.37481 7.26927C8.37481 7.48129 8.30575 7.7765 7.48352 8.59913C7.4076 8.67465 7.36519 8.77723 7.36519 8.88465C7.36519 10.9992 11.8253 13.9327 12.6152 13.9327C13.3021 13.9327 14.1979 12.7781 14.7079 12.0258C14.7374 12.027 14.7871 12.0371 14.8578 12.0726C15.0031 12.1457 15.2551 12.3101 15.5738 12.5185C15.9946 12.7935 16.5535 13.1586 17.2134 13.537C16.9137 14.9787 16.0762 16.437 12.8769 15.9564Z" fill="#383530"/>
</g>
<defs>
<clipPath id="clip0">
<rect width="21" height="21" fill="white" transform="translate(0.5)"/>
</clipPath>
</defs>
</svg>
