<svg width="22" height="21" viewBox="0 0 22 21" fill="none" xmlns="http://www.w3.org/2000/svg">
<g clip-path="url(#clip0)">
<path d="M18.3174 2.50931C16.3587 0.891136 13.76 0 11.0001 0C8.24027 0 5.6416 0.891136 3.68288 2.50931C1.70027 4.14718 0.608398 6.33148 0.608398 8.65979C0.608398 10.8503 1.55933 12.9085 3.28601 14.4553C4.89041 15.8925 7.07895 16.8118 9.48469 17.0659V20.567C9.48469 20.7318 9.57817 20.8822 9.72582 20.9552C9.78665 20.9852 9.85229 21 9.91763 21C10.011 21 10.1037 20.9698 10.1807 20.911L16.6734 15.9462C18.2111 14.7852 19.2717 13.7672 20.0111 12.7424C20.9402 11.4546 21.3919 10.1191 21.3919 8.65979C21.3919 6.33148 20.3 4.14718 18.3174 2.50931ZM16.1496 15.2567L10.3507 19.6909V16.6701C10.3507 16.4434 10.1758 16.2551 9.94972 16.2383C7.57654 16.0623 5.41523 15.2 3.86383 13.8103C2.32299 12.43 1.47438 10.6008 1.47438 8.65979C1.47438 4.36228 5.7476 0.865979 11.0001 0.865979C16.2527 0.865979 20.5259 4.36228 20.5259 8.65979C20.5259 11.5536 18.4235 13.5398 16.1496 15.2567Z" fill="#383530"/>
<path d="M13.477 6.78287C13.4753 6.459 13.3058 6.27861 13.0343 6.28173C12.7654 6.28537 12.6034 6.47017 12.6017 6.79322C12.5971 7.39097 12.6004 7.98819 12.5992 8.58541C12.5992 8.67166 12.5911 8.75692 12.5839 8.91972C12.4816 8.80022 12.4237 8.73873 12.3721 8.67214C11.8182 7.95303 11.2659 7.23253 10.7124 6.51243C10.5771 6.33633 10.4059 6.23012 10.1813 6.30057C9.95765 6.3705 9.85957 6.55317 9.85914 6.77374C9.8549 7.92792 9.8549 9.0814 9.85914 10.2351C9.85957 10.4244 9.93608 10.5867 10.1204 10.6739C10.4461 10.8271 10.7543 10.596 10.7581 10.1827C10.7657 9.61861 10.7607 9.05369 10.7607 8.48877C10.7607 8.37983 10.7607 8.27071 10.7607 8.16147C10.8693 8.21092 10.9222 8.26868 10.9704 8.33042C11.5226 9.04113 12.0736 9.75236 12.6246 10.4649C12.7612 10.6437 12.9176 10.7745 13.1628 10.6911C13.403 10.6096 13.4791 10.4294 13.4791 10.1958C13.4779 9.05776 13.4813 7.92047 13.477 6.78287Z" fill="#383530"/>
<path d="M15.1711 7.18569C15.2544 7.17928 15.3495 7.16625 15.4463 7.16599C15.7728 7.16317 16.1009 7.16963 16.4269 7.16175C16.5461 7.15837 16.6768 7.14992 16.7821 7.10043C16.9884 7.00418 17.0497 6.81163 16.9943 6.60358C16.9402 6.39128 16.7821 6.28096 16.5584 6.28027C15.9778 6.27884 15.3973 6.27758 14.8167 6.27884C14.4006 6.27992 14.234 6.44095 14.2332 6.85532C14.2289 7.95182 14.2289 9.04841 14.2332 10.1444C14.234 10.5523 14.412 10.7257 14.8184 10.7274C15.3596 10.7299 15.8987 10.7291 16.4383 10.7269C16.5271 10.726 16.6175 10.7138 16.703 10.6888C16.8962 10.6322 17.0011 10.5002 17.0074 10.2946C17.0146 10.0789 16.9165 9.93024 16.714 9.86832C16.6053 9.83515 16.4882 9.82688 16.3761 9.82602C15.971 9.82078 15.5646 9.82364 15.1524 9.82364C15.1524 9.51747 15.1524 9.25192 15.1524 8.97311C15.2298 8.96593 15.2924 8.95562 15.3554 8.95501C15.7398 8.95289 16.1254 8.96363 16.5093 8.94995C16.8438 8.93744 17.0193 8.75419 17.0066 8.47063C16.9956 8.21577 16.8087 8.05847 16.5025 8.05271C16.2895 8.0489 16.0772 8.05202 15.8628 8.05184C15.0687 8.05184 15.0687 8.05184 15.1431 7.25562C15.1444 7.23981 15.155 7.22518 15.1711 7.18569Z" fill="#383530"/>
<path d="M7.26918 9.82845C7.17995 9.81806 7.08988 9.82373 7.00025 9.82373C6.6252 9.82313 6.25183 9.82373 5.84166 9.82373C5.84166 9.68531 5.84166 9.58763 5.84166 9.49081C5.84166 8.61595 5.84335 7.74049 5.8404 6.86555C5.83915 6.49223 5.67379 6.28422 5.39092 6.28201C5.09787 6.27928 4.93931 6.4782 4.93931 6.85672C4.93849 7.96898 4.93762 9.08064 4.94018 10.1933C4.94191 10.5468 5.11355 10.7198 5.4679 10.7269C5.78589 10.7325 6.97999 10.7376 7.2578 10.7232C7.52881 10.7079 7.71741 10.5075 7.7136 10.2701C7.70936 10.0422 7.52881 9.85924 7.26918 9.82845Z" fill="#383530"/>
<path d="M9.09875 6.72306C9.0962 6.38598 8.98882 6.27925 8.66364 6.27881C8.33254 6.27795 8.22052 6.37987 8.21965 6.71475C8.21584 7.90123 8.21584 9.08732 8.21965 10.2742C8.22052 10.6073 8.34146 10.7268 8.65477 10.7274C8.97695 10.7291 9.09707 10.6047 9.09875 10.2573C9.10049 9.67653 9.09962 9.09606 9.09962 8.51482C9.09962 7.91751 9.10049 7.32072 9.09875 6.72306Z" fill="#383530"/>
</g>
<defs>
<clipPath id="clip0">
<rect width="21" height="21" fill="white" transform="translate(0.5)"/>
</clipPath>
</defs>
</svg>
