<svg width="485" height="639" viewBox="0 0 485 639" fill="none" xmlns="http://www.w3.org/2000/svg">
<path d="M357.884 140.252C394.071 82.0839 399 24.7646 372.655 6.21332C346.31 -12.338 294.004 11.6088 251.422 65.2811L129.74 218.771L254.503 306.631L357.884 140.252Z" fill="#25B8DE"/>
<path opacity="0.1" d="M343.646 130.228L237.733 294.875L224.778 270.112L329.974 119.903C359.716 77.4217 376.385 38.6038 376.452 16.9884C376.449 16.5705 376.594 16.165 376.861 15.844C377.129 15.523 377.502 15.3073 377.913 15.2353C378.325 15.1634 378.749 15.2399 379.109 15.4511C379.47 15.6623 379.744 15.9946 379.882 16.3889C387.376 37.9544 374.387 82.4509 343.646 130.228Z" fill="#FBFBFB"/>
<path d="M254.428 306.593C271.271 282.672 256.993 243.612 222.536 219.351C188.079 195.089 146.492 194.813 129.649 218.734C112.806 242.655 127.084 281.715 161.541 305.977C195.998 330.238 237.585 330.514 254.428 306.593Z" fill="#25B8DE"/>
<path opacity="0.5" d="M254.428 306.593C271.271 282.672 256.993 243.612 222.536 219.351C188.079 195.089 146.492 194.813 129.649 218.734C112.806 242.655 127.084 281.715 161.541 305.977C195.998 330.238 237.585 330.514 254.428 306.593Z" fill="#FBFBFB"/>
<path opacity="0.1" d="M241.48 192.242C214.103 172.958 183.045 167.446 163.212 176.455L132.321 215.39C150.639 194.94 189.79 196.339 222.529 219.387C255.269 242.434 269.807 278.887 256.684 302.984L282.613 261.352C284.844 239.487 269.157 211.726 241.48 192.242Z" fill="#2B2B2B"/>
<path opacity="0.2" d="M285.327 66.7128C277.734 78.7362 272.005 101.234 294.57 117.104C317.135 132.975 336.385 120.035 345.128 108.778L285.327 66.7128Z" fill="#2B2B2B"/>
<path d="M350.457 94.9225C347.876 116.405 323.046 132.075 296.985 113.724C270.923 95.3721 277.301 66.7125 296.652 57.1038C308.575 51.1421 323.763 53.7732 334.154 61.0006C344.545 68.2279 352.056 81.6002 350.457 94.9225Z" fill="#FBFBFB"/>
<path d="M300.532 108.646C290.39 101.519 285.194 92.1933 285.927 82.4347C286.26 78.2229 287.677 74.169 290.041 70.6672C292.404 67.1654 295.634 64.335 299.416 62.4512C308.475 57.9216 321.298 59.3371 330.607 65.8817C339.916 72.4263 345.594 84.05 344.345 94.1084C343.85 98.292 342.282 102.277 339.793 105.676C337.304 109.075 333.979 111.773 330.14 113.509C321.248 117.539 310.673 115.79 300.532 108.646Z" fill="#25B8DE"/>
<path opacity="0.3" d="M300.532 108.646C290.39 101.519 285.194 92.1933 285.927 82.4347C286.26 78.2229 287.677 74.169 290.041 70.6672C292.404 67.1654 295.634 64.335 299.416 62.4512C308.475 57.9216 321.298 59.3371 330.607 65.8817C339.916 72.4263 345.594 84.05 344.345 94.1084C343.85 98.292 342.282 102.277 339.793 105.676C337.304 109.075 333.979 111.773 330.14 113.509C321.248 117.539 310.673 115.79 300.532 108.646Z" fill="#2B2B2B"/>
<path d="M300.532 108.646C290.39 101.519 285.011 92.4598 285.411 83.1675C285.584 79.2168 286.845 75.3907 289.055 72.1112C291.264 68.8318 294.337 66.2265 297.934 64.5829C306.643 60.5529 319.216 62.3181 328.525 68.8793C337.834 75.4406 343.729 86.6812 342.863 96.24C342.527 100.186 341.105 103.962 338.753 107.148C336.401 110.335 333.213 112.807 329.541 114.292C320.998 117.806 310.673 115.791 300.532 108.646Z" fill="#25B8DE"/>
<path opacity="0.2" d="M300.532 108.646C290.39 101.519 285.011 92.4598 285.411 83.1675C285.584 79.2168 286.845 75.3907 289.055 72.1112C291.264 68.8318 294.337 66.2265 297.934 64.5829C306.643 60.5529 319.216 62.3181 328.525 68.8793C337.834 75.4406 343.729 86.6812 342.863 96.24C342.527 100.186 341.105 103.962 338.753 107.148C336.401 110.335 333.213 112.807 329.541 114.292C320.998 117.806 310.673 115.791 300.532 108.646Z" fill="#FBFBFB"/>
<path opacity="0.3" d="M335.586 75.4569L288.708 96.1398C286.383 92.2218 285.227 87.7206 285.377 83.1672C285.466 81.0225 285.888 78.9045 286.626 76.8891L316.885 63.5668C324.229 65.428 330.776 69.6097 335.553 75.4902L335.586 75.4569Z" fill="#FBFBFB"/>
<path opacity="0.3" d="M342.314 88.7966L299.299 107.748C296.712 105.85 294.354 103.66 292.272 101.22L339.066 80.5701C340.528 83.1467 341.622 85.9159 342.314 88.7966Z" fill="#FBFBFB"/>
<path opacity="0.1" d="M389.208 51.7093C387.776 40.2188 378.95 26.9298 364.995 17.1046C351.04 7.2794 335.569 3.44924 324.262 5.96383C343.496 -1.87968 360.732 -2.17943 372.655 6.21362C384.579 14.6067 390.107 30.9598 389.208 51.7093Z" fill="#2B2B2B"/>
<path opacity="0.5" d="M222.51 259.751C227.758 252.299 223.507 240.27 213.017 232.883C202.526 225.497 189.768 225.55 184.521 233.003C179.274 240.455 183.524 252.484 194.015 259.871C204.505 267.257 217.263 267.204 222.51 259.751Z" fill="#25B8DE"/>
<path opacity="0.5" d="M173.037 252.76C167.791 260.204 155.035 260.271 144.544 252.877C134.053 245.483 129.789 233.46 135.035 226.016C140.281 218.572 153.054 218.505 163.545 225.899C174.036 233.293 178.216 245.317 173.037 252.76Z" fill="#25B8DE"/>
<path opacity="0.5" d="M245.827 304.067C240.581 311.527 227.825 311.577 217.333 304.183C206.842 296.79 202.596 284.766 207.841 277.322C213.087 269.879 225.843 269.812 236.334 277.206C246.826 284.6 251.072 296.623 245.827 304.067Z" fill="#25B8DE"/>
<path opacity="0.5" d="M196.351 297.056C191.105 304.5 178.349 304.55 167.858 297.173C157.367 289.796 153.12 277.756 158.366 270.295C163.611 262.835 176.368 262.801 186.859 270.178C197.35 277.556 201.53 289.596 196.351 297.056Z" fill="#25B8DE"/>
<path opacity="0.5" d="M222.529 259.789C221.974 260.575 221.326 261.291 220.597 261.92C223.512 254.493 219.115 244.185 209.74 237.59C200.364 230.996 189.19 230.33 183.178 235.559C183.532 234.672 183.984 233.829 184.527 233.044C189.773 225.6 202.546 225.534 213.037 232.928C223.528 240.321 227.758 252.328 222.529 259.789Z" fill="#25B8DE"/>
<path opacity="0.5" d="M173.037 252.759C172.484 253.542 171.842 254.258 171.122 254.891C174.036 247.447 169.657 237.156 160.264 230.544C150.872 223.933 139.715 223.284 133.703 228.529C134.053 227.641 134.505 226.797 135.052 226.015C140.298 218.554 153.054 218.504 163.545 225.898C174.036 233.292 178.216 245.299 173.037 252.759Z" fill="#25B8DE"/>
<path opacity="0.5" d="M245.827 304.083C245.273 304.86 244.631 305.57 243.912 306.198C246.826 298.754 242.429 288.462 233.054 281.868C223.678 275.273 212.504 274.59 206.492 279.853C206.838 278.958 207.291 278.108 207.841 277.321C213.087 269.861 225.843 269.811 236.334 277.205C246.826 284.599 251.089 296.622 245.827 304.083Z" fill="#25B8DE"/>
<path opacity="0.5" d="M196.351 297.056C195.807 297.841 195.163 298.552 194.436 299.171C197.35 291.744 192.954 281.436 183.578 274.841C174.202 268.247 163.028 267.581 157.017 272.826C157.359 271.93 157.813 271.08 158.366 270.295C163.611 262.835 176.367 262.801 186.859 270.178C197.35 277.556 201.53 289.596 196.351 297.056Z" fill="#25B8DE"/>
<path d="M212.305 121.95C212.305 121.95 189.823 151.126 170.239 176.239C167.458 179.74 163.814 182.457 159.666 184.124C155.517 185.791 151.006 186.351 146.576 185.747C129.473 183.633 101.613 195.739 101.613 195.739C101.613 195.739 154.319 109.161 212.305 121.95Z" fill="#25B8DE"/>
<path opacity="0.3" d="M212.305 121.95C212.305 121.95 189.823 151.126 170.239 176.239C167.458 179.74 163.814 182.457 159.666 184.124C155.517 185.791 151.006 186.351 146.576 185.747C129.473 183.633 101.613 195.739 101.613 195.739C101.613 195.739 154.319 109.161 212.305 121.95Z" fill="#2B2B2B"/>
<path d="M317.734 196.207C317.734 196.207 297.934 227.198 280.798 254.092C278.44 257.89 277.111 262.236 276.942 266.704C276.773 271.171 277.769 275.605 279.832 279.571C287.592 294.975 285.561 325.35 285.561 325.35C285.561 325.35 349.325 246.465 317.734 196.207Z" fill="#25B8DE"/>
<path opacity="0.3" d="M317.734 196.207C317.734 196.207 297.934 227.198 280.798 254.092C278.44 257.89 277.111 262.236 276.942 266.704C276.773 271.171 277.769 275.605 279.832 279.571C287.592 294.975 285.561 325.35 285.561 325.35C285.561 325.35 349.325 246.465 317.734 196.207Z" fill="#2B2B2B"/>
<path opacity="0.8" d="M389.805 434.385C410.605 383.494 320.679 369.072 285.092 381.845C249.505 394.618 213.218 404.11 211.819 370.055C210.42 336 237.831 314.884 224.758 307.024C217.514 302.661 215.449 310.354 211.869 321.578C200.911 355.967 155.881 344.417 167.406 413.935C172.803 446.495 152.82 449.736 132.685 472.87C106.371 503.102 119.982 546.862 152.82 562.617C224.758 597.131 356.977 592.862 435.75 550.339C490.47 520.8 496.167 452.977 469.318 413.935C454.195 391.945 414.2 380.875 389.805 434.385Z" fill="#8CD2F0"/>
<path opacity="0.8" d="M153.276 242.368C149.546 229.412 129.363 245.698 109.479 265.432C70.788 303.832 77.1502 331.377 60.3382 351.9C40.8716 375.665 4.4577 410.562 18.5003 448.909C36.3009 497.518 -37.67 519.122 27.1419 569.352C61.2254 595.767 178.37 619.581 235.08 564.491C257.603 542.612 277.998 487.465 247.382 469.147C207.812 445.471 172.679 488.049 139.193 459.92C112.188 437.236 106.805 419.853 113.268 384.306C119.749 348.66 85.2236 341.638 103.218 296.539C124.334 243.617 159.021 262.051 153.276 242.368Z" fill="#8CD2F0"/>
<g style="mix-blend-mode:screen" opacity="0.16">
<path d="M153.276 242.281C149.546 229.325 129.363 245.612 109.479 265.346C70.788 303.745 77.1502 331.29 60.3382 351.814C40.8716 375.578 4.4577 410.476 18.5003 448.823C36.3009 497.432 -37.67 519.036 27.1419 569.265C61.2254 595.68 178.37 619.495 235.08 564.405C257.603 542.525 277.998 487.379 247.382 469.06C207.812 445.384 172.679 487.962 139.193 459.834C112.188 437.15 106.805 419.767 113.268 384.22C119.749 348.573 85.2236 341.552 103.218 296.453C124.334 243.53 159.021 261.965 153.276 242.281Z" fill="#FBFBFB"/>
</g>
<path opacity="0.8" d="M191.387 247.07C195.794 239.025 210.916 243.849 210.582 254.38C210.249 264.912 171.091 278.714 178.368 315.082C185.645 351.45 247.453 344.193 263.861 380.627C272.666 400.18 258.989 416.895 240.041 420.684C223.367 424.019 219.024 443.868 233.004 450.456C280.101 472.649 290.928 419.601 357.514 427.721C424.1 435.841 493.934 503.379 425.724 584.7C357.514 666.021 166.96 645.867 102.539 584.7C38.1187 523.532 37.6005 460.423 86.8401 416.895C136.08 373.367 104.242 356.357 122.619 328.468C140.996 300.578 174.479 277.913 191.387 247.07Z" fill="#8CD2F0"/>
<g style="mix-blend-mode:screen" opacity="0.4">
<path d="M191.387 246.985C195.794 238.94 210.916 243.764 210.582 254.295C210.249 264.826 171.091 278.629 178.368 314.997C185.645 351.365 247.453 344.108 263.861 380.542C272.666 400.095 258.989 416.81 240.041 420.599C223.367 423.933 219.024 443.783 233.004 450.371C280.101 472.564 290.928 419.516 357.514 427.636C424.1 435.755 493.934 503.294 425.724 584.615C357.514 665.936 166.96 645.782 102.539 584.615C38.1187 523.447 37.6005 460.337 86.8401 416.81C136.08 373.282 104.242 356.271 122.619 328.382C140.996 300.493 174.479 277.828 191.387 246.985Z" fill="#FBFBFB"/>
</g>
</svg>
