<svg width="135" height="135" viewBox="0 0 135 135" fill="none" xmlns="http://www.w3.org/2000/svg">
<path fill-rule="evenodd" clip-rule="evenodd" d="M38.4532 0.415894H96.6145C119.356 0.415894 134.584 16.3817 134.584 40.1292V94.943C134.584 118.617 119.356 134.583 96.6145 134.583H38.4532C15.712 134.583 0.416992 118.617 0.416992 94.943V40.1292C0.416992 16.3817 15.712 0.415894 38.4532 0.415894ZM63.6736 87.5571L95.5382 55.6925C97.819 53.4117 97.819 49.7221 95.5382 47.3742C93.2574 45.0934 89.5007 45.0934 87.2199 47.3742L59.5145 75.0796L47.7749 63.34C45.494 61.0592 41.7374 61.0592 39.4565 63.34C37.1757 65.6208 37.1757 69.3104 39.4565 71.6583L55.4224 87.5571C56.5628 88.6975 58.0386 89.2342 59.5145 89.2342C61.0574 89.2342 62.5332 88.6975 63.6736 87.5571Z" fill="#25B8DE"/>
</svg>
